<svg width="40" height="40" viewBox="0 0 40 40" fill="none" xmlns="http://www.w3.org/2000/svg">
<path fill-rule="evenodd" clip-rule="evenodd" d="M18.7513 9.64683C16.4799 9.883 14.3219 10.7579 12.5273 12.1702C10.7327 13.5825 9.37504 15.4744 8.61153 17.6266C7.84803 19.7789 7.70997 22.1034 8.21334 24.3309C8.71672 26.5584 9.84093 28.5976 11.4557 30.2124C13.0705 31.8272 15.1098 32.9514 17.3373 33.4548C19.5648 33.9582 21.8893 33.8201 24.0415 33.0566C26.1938 32.2931 28.0856 30.9354 29.4979 29.1408C30.9102 27.3462 31.7851 25.1882 32.0213 22.9168H20.0013C19.6698 22.9168 19.3518 22.7851 19.1174 22.5507C18.883 22.3163 18.7513 21.9984 18.7513 21.6668V9.64683ZM5.41797 21.6668C5.41797 17.7991 6.95442 14.0898 9.68933 11.3549C12.4242 8.61995 16.1336 7.0835 20.0013 7.0835C20.3328 7.0835 20.6508 7.21519 20.8852 7.44961C21.1196 7.68403 21.2513 8.00198 21.2513 8.3335V20.4168H33.3346C33.6662 20.4168 33.9841 20.5485 34.2185 20.7829C34.4529 21.0174 34.5846 21.3353 34.5846 21.6668C34.5846 25.5346 33.0482 29.2439 30.3133 31.9788C27.5784 34.7137 23.869 36.2502 20.0013 36.2502C16.1336 36.2502 12.4242 34.7137 9.68933 31.9788C6.95442 29.2439 5.41797 25.5346 5.41797 21.6668Z" fill="#FFCC00"/>
<path fill-rule="evenodd" clip-rule="evenodd" d="M25.8359 7.79003V15.8334H33.8793C33.4143 13.8796 32.4162 12.0932 30.9961 10.6732C29.5761 9.25306 27.7897 8.25498 25.8359 7.79003ZM24.9993 5.10337C31.0326 5.85337 35.8159 10.6367 36.5659 16.67C36.6809 17.5834 35.9226 18.3334 35.0026 18.3334H24.1693C23.9483 18.3334 23.7363 18.2456 23.58 18.0893C23.4237 17.933 23.3359 17.721 23.3359 17.5V6.6667C23.3359 5.7467 24.0859 4.98837 24.9993 5.10337Z" fill="#FFCC00"/>
</svg>
