<svg width="61" height="60" viewBox="0 0 61 60" fill="none" xmlns="http://www.w3.org/2000/svg">
<g id="mingcute:ai-line">
<g id="Group">
<path id="Vector" d="M23.1473 13.62C24.6673 9.245 30.813 9.1125 32.6151 13.2225L32.7676 13.6225L34.8187 19.5225C35.2887 20.8756 36.0484 22.1138 37.0463 23.1536C38.0442 24.1933 39.2572 25.0105 40.6035 25.55L41.1551 25.7525L47.1534 27.7675C51.6013 29.2625 51.736 35.3075 47.5601 37.08L47.1534 37.23L41.1551 39.2475C39.7789 39.7096 38.5196 40.4566 37.4621 41.4381C36.4045 42.4197 35.5733 43.613 35.0246 44.9375L34.8187 45.4775L32.7701 51.38C31.2502 55.755 25.1044 55.8875 23.3049 51.78L23.1473 51.38L21.0988 45.48C20.629 44.1265 19.8695 42.8878 18.8716 41.8475C17.8737 40.8073 16.6605 39.9897 15.3139 39.45L14.7649 39.2475L8.7666 37.2325C4.31614 35.7375 4.18143 29.6925 8.35993 27.9225L8.7666 27.7675L14.7649 25.7525C16.1406 25.2901 17.3994 24.543 18.4565 23.5614C19.5136 22.5799 20.3444 21.3867 20.8929 20.0625L21.0988 19.5225L23.1473 13.62ZM27.9587 15.235L25.9101 21.135C25.1944 23.1983 24.03 25.0833 22.498 26.6587C20.9661 28.2342 19.1034 29.4623 17.0397 30.2575L16.4043 30.485L10.406 32.5L16.4043 34.515C18.5019 35.219 20.4184 36.3643 22.0201 37.8712C23.6218 39.378 24.8704 41.2101 25.6788 43.24L25.9101 43.865L27.9587 49.765L30.0073 43.865C30.7231 41.8017 31.8875 39.9167 33.4194 38.3413C34.9513 36.7658 36.814 35.5377 38.8777 34.7425L39.5131 34.5175L45.5115 32.5L39.5131 30.485C37.4155 29.781 35.4991 28.6357 33.8973 27.1288C32.2956 25.622 31.047 23.7899 30.2386 21.76L30.0098 21.135L27.9587 15.235ZM48.2921 5C48.7675 5 49.2335 5.1312 49.637 5.37868C50.0405 5.62616 50.3653 5.98001 50.5745 6.4L50.6965 6.6925L51.5861 9.2575L54.1963 10.1325C54.6729 10.2917 55.0906 10.5865 55.3966 10.9795C55.7026 11.3725 55.8831 11.846 55.9152 12.3401C55.9473 12.8341 55.8296 13.3263 55.577 13.7545C55.3244 14.1826 54.9483 14.5273 54.4963 14.745L54.1963 14.865L51.5886 15.74L50.699 18.3075C50.5368 18.7761 50.2369 19.1867 49.8372 19.4875C49.4375 19.7882 48.956 19.9655 48.4538 19.9968C47.9516 20.0281 47.4512 19.9121 47.0161 19.6634C46.581 19.4148 46.2307 19.0447 46.0096 18.6L45.8876 18.3075L44.9981 15.7425L42.3878 14.8675C41.9112 14.7083 41.4935 14.4135 41.1875 14.0205C40.8815 13.6275 40.701 13.154 40.6689 12.6599C40.6368 12.1659 40.7545 11.6737 41.0071 11.2455C41.2597 10.8174 41.6358 10.4727 42.0878 10.255L42.3878 10.135L44.9955 9.26L45.8851 6.6925C46.0565 6.19856 46.3807 5.76977 46.8124 5.46625C47.244 5.16272 47.7614 4.99969 48.2921 5Z" fill="#111933"/>
</g>
</g>
</svg>
