<svg width="64" height="64" viewBox="0 0 64 64" fill="none" xmlns="http://www.w3.org/2000/svg">
<path d="M31.6542 0.0140062C15.9365 -0.461339 2.32191 11.2183 0.26499 26.5434C-1.98414 43.2994 10.394 58.3757 25.6246 60.7905C44.5692 63.794 62.944 46.418 61.2943 27.5686C60.0512 13.367 47.6313 0.497043 31.6542 0.0140062Z" fill="#FDC500"/>
<path d="M38.3835 59.9783C37.9707 59.8405 37.6018 59.5966 37.3141 59.2713C37.0263 58.9459 36.83 58.5507 36.7449 58.1255L35.527 52.1227L25.1089 52.491L23.8268 58.7445C23.6472 59.6203 24.3659 60.4991 25.1939 60.8215L29.5527 62.5201C30.3625 62.8357 31.2343 62.9616 32.1008 62.8879L41.3125 62.1032C41.4438 62.0913 41.5669 62.0347 41.6611 61.9428C41.7552 61.851 41.8146 61.7295 41.8291 61.599C41.8604 61.3285 42.0498 61.0248 41.7923 60.9397L38.3835 59.9783Z" fill="#97A6B7"/>
<path d="M38.4878 59.6134C38.0772 59.4793 37.7094 59.2394 37.4219 58.9181C37.1344 58.5967 36.9374 58.2053 36.8509 57.7836L35.6343 51.8564L25.468 52.2206L24.188 58.3959C24.1011 58.8147 24.1662 59.2506 24.3716 59.6261C24.5771 60.0015 24.9097 60.2923 25.3102 60.4465L29.6646 62.1235C30.4744 62.4354 31.345 62.5597 32.2103 62.4868L41.4125 61.7119C41.543 61.7009 41.6656 61.6453 41.7597 61.5546C41.8537 61.4638 41.9134 61.3435 41.9286 61.2139C41.9437 61.0844 41.9135 60.9536 41.8429 60.8438C41.7723 60.7339 41.6658 60.6517 41.5413 60.6111L38.4878 59.6134Z" fill="url(#paint0_linear_2156_7725)"/>
<path d="M3.82076 56.1121C2.6909 56.1791 1.76671 55.4493 1.76671 54.4845V19.7182C1.76671 18.7537 2.6909 18.0089 3.82076 18.0577L56.2964 21.6761C57.1257 21.7117 57.5708 21.0449 57.5708 21.8653V51.4331C57.5708 52.2535 56.8993 52.9609 56.0702 53.0102L3.82076 56.1121Z" fill="#97A6B7"/>
<path d="M4.29032 56.1121C3.16046 56.1791 2.23627 55.4493 2.23627 54.4845V19.7182C2.23627 18.7537 3.16046 18.0089 4.29032 18.0577L56.5391 20.3127C57.3684 20.3485 58.0397 21.0449 58.0397 21.8653V51.4331C58.0397 52.2535 57.368 52.9609 56.5391 53.0102L4.29032 56.1121Z" fill="white"/>
<g style="mix-blend-mode:multiply" opacity="0.3">
<path d="M56.5391 21.0093L4.29122 18.8688C3.68723 18.8439 3.19623 19.2424 3.19623 19.7564V54.4328C3.19623 54.9477 3.68723 55.3374 4.29122 55.3027L56.5391 52.315C56.9836 52.2895 57.3431 51.9122 57.3431 51.472V21.8391C57.3422 21.3989 56.9827 21.0275 56.5391 21.0093Z" fill="#D8DEE8"/>
</g>
<path d="M56.1499 49.8125L4.85686 52.3342C4.31841 52.3606 3.88081 52.0061 3.88081 51.5431V20.2114C3.88081 19.7477 4.31841 19.388 4.85686 19.4078L56.1499 21.3039C56.3448 21.3121 56.529 21.3946 56.6645 21.5343C56.8 21.674 56.8765 21.8601 56.8781 22.0544V49.0532C56.8759 49.2481 56.7995 49.4349 56.6644 49.5758C56.5292 49.7168 56.3453 49.8014 56.1499 49.8125Z" fill="url(#paint1_linear_2156_7725)"/>
<g style="mix-blend-mode:soft-light" opacity="0.6">
<path d="M17.6525 22.7164L5.93813 22.3733V21.2611L17.6525 21.6384V22.7164Z" fill="white"/>
</g>
<g style="mix-blend-mode:soft-light" opacity="0.36">
<path d="M23.169 22.571L20.463 22.4894V21.7295L23.169 21.8165V22.571Z" fill="white"/>
</g>
<g style="mix-blend-mode:soft-light" opacity="0.36">
<path d="M23.169 23.6187L20.463 23.5451V22.7852L23.169 22.8645V23.6187Z" fill="white"/>
</g>
<path d="M36.6547 23.9861L26.1563 23.7V22.9519L36.6547 23.2598V23.9861Z" fill="url(#paint2_linear_2156_7725)"/>
<path opacity="0.5" d="M38.3762 25.0375L27.9821 24.7841V24.0398L38.3762 24.3147V25.0375Z" fill="url(#paint3_linear_2156_7725)"/>
<path opacity="0.5" d="M38.3762 26.0416L27.9821 25.8181V25.0737L38.3762 25.3188V26.0416Z" fill="url(#paint4_linear_2156_7725)"/>
<g style="mix-blend-mode:soft-light" opacity="0.6">
<path d="M38.3762 27.0459L27.9821 26.8525V26.1082L38.3762 26.3233V27.0459Z" fill="white"/>
</g>
<g style="mix-blend-mode:soft-light" opacity="0.36">
<path d="M23.169 24.6666L20.463 24.6006V23.8407L23.169 23.9123V24.6666Z" fill="white"/>
</g>
<g style="mix-blend-mode:soft-light" opacity="0.36">
<path d="M23.169 25.7148L20.463 25.6566V24.8969L23.169 24.9606V25.7148Z" fill="white"/>
</g>
<g style="mix-blend-mode:soft-light" opacity="0.36">
<path d="M23.169 26.7628L20.463 26.7125V25.9525L23.169 26.0086V26.7628Z" fill="white"/>
</g>
<g style="mix-blend-mode:soft-light" opacity="0.36">
<path d="M23.169 27.8111L20.463 27.7685V27.0085L23.169 27.0567V27.8111Z" fill="white"/>
</g>
<g style="mix-blend-mode:soft-light" opacity="0.6">
<path d="M30.4204 27.925L23.7595 27.8201V27.067L30.4204 27.1857V27.925Z" fill="white"/>
</g>
<g style="mix-blend-mode:soft-light" opacity="0.36">
<path d="M23.169 28.8583L20.463 28.8235V28.0636L23.169 28.104V28.8583Z" fill="white"/>
</g>
<g style="mix-blend-mode:soft-light" opacity="0.36">
<path d="M23.169 29.9066L20.463 29.8796V29.1199L23.169 29.1524V29.9066Z" fill="white"/>
</g>
<g style="mix-blend-mode:soft-light" opacity="0.36">
<path d="M23.169 30.9544L20.463 30.9352V30.1753L23.169 30.2001V30.9544Z" fill="white"/>
</g>
<path opacity="0.5" d="M33.5412 28.9922L26.1563 28.897V28.1489L33.5412 28.2592V28.9922Z" fill="url(#paint5_linear_2156_7725)"/>
<g style="mix-blend-mode:soft-light" opacity="0.6">
<path d="M37.3779 30.0487L27.9821 29.9549V29.2106L37.3779 29.324V30.0487Z" fill="white"/>
</g>
<path d="M37.3779 31.0554L27.9821 30.9888V30.2445L37.3779 30.3307V31.0554Z" fill="url(#paint6_linear_2156_7725)"/>
<g style="mix-blend-mode:soft-light" opacity="0.36">
<path d="M23.169 32.0029L20.463 31.9915V31.2316L23.169 31.2487V32.0029Z" fill="white"/>
</g>
<g style="mix-blend-mode:soft-light" opacity="0.36">
<path d="M23.169 33.0509L20.463 33.0472V32.2872L23.169 32.2967V33.0509Z" fill="white"/>
</g>
<g style="mix-blend-mode:soft-light" opacity="0.36">
<path d="M23.169 34.099L20.463 34.1032V33.3433L23.169 33.3446V34.099Z" fill="white"/>
</g>
<g style="mix-blend-mode:soft-light" opacity="0.36">
<path d="M23.169 35.1469L20.463 35.1588V34.3988L23.169 34.3925V35.1469Z" fill="white"/>
</g>
<g style="mix-blend-mode:soft-light" opacity="0.36">
<path d="M23.169 36.1947L20.463 36.2144V35.4545L23.169 35.4404V36.1947Z" fill="white"/>
</g>
<g style="mix-blend-mode:soft-light" opacity="0.36">
<path d="M23.169 37.2427L20.463 37.2702V36.5105L23.169 36.4885V37.2427Z" fill="white"/>
</g>
<g style="mix-blend-mode:soft-light" opacity="0.36">
<path d="M23.169 38.2908L20.463 38.3262V37.5663L23.169 37.5366V38.2908Z" fill="white"/>
</g>
<g style="mix-blend-mode:soft-light" opacity="0.36">
<path d="M23.169 39.339L20.463 39.3821V38.6222L23.169 38.5846V39.339Z" fill="white"/>
</g>
<g style="mix-blend-mode:soft-light" opacity="0.36">
<path d="M23.169 40.3866L20.463 40.4374V39.6775L23.169 39.6322V40.3866Z" fill="white"/>
</g>
<g style="mix-blend-mode:soft-light" opacity="0.36">
<path d="M23.169 41.435L20.463 41.4939V40.734L23.169 40.6808V41.435Z" fill="white"/>
</g>
<g style="mix-blend-mode:soft-light" opacity="0.36">
<path d="M23.169 42.4825L20.463 42.5491V41.7891L23.169 41.7283V42.4825Z" fill="white"/>
</g>
<g style="mix-blend-mode:soft-light" opacity="0.36">
<path d="M23.169 43.5311L20.463 43.6054V42.8454L23.169 42.7769V43.5311Z" fill="white"/>
</g>
<g style="mix-blend-mode:soft-light" opacity="0.36">
<path d="M23.169 44.5786L20.463 44.6605V43.9006L23.169 43.8243V44.5786Z" fill="white"/>
</g>
<g style="mix-blend-mode:soft-light" opacity="0.36">
<path d="M23.169 45.6269L20.463 45.7168V44.9568L23.169 44.8724V45.6269Z" fill="white"/>
</g>
<g style="mix-blend-mode:soft-light" opacity="0.36">
<path d="M23.169 46.675L20.463 46.7725V46.0126L23.169 45.9205V46.675Z" fill="white"/>
</g>
<g style="mix-blend-mode:soft-light" opacity="0.36">
<path d="M23.169 47.7229L20.463 47.8283V47.0684L23.169 46.9686V47.7229Z" fill="white"/>
</g>
<g style="mix-blend-mode:soft-light" opacity="0.36">
<path d="M23.169 48.7708L20.463 48.884V48.1243L23.169 48.0166V48.7708Z" fill="white"/>
</g>
<g style="mix-blend-mode:soft-light" opacity="0.36">
<path d="M23.169 49.8188L20.463 49.9399V49.18L23.169 49.0646V49.8188Z" fill="white"/>
</g>
<path opacity="0.5" d="M31.1215 22.8104L23.7412 22.588V21.8348L31.1215 22.0726V22.8104Z" fill="url(#paint7_linear_2156_7725)"/>
<g style="mix-blend-mode:soft-light" opacity="0.6">
<path d="M36.6547 44.17L26.1563 44.4885V43.7404L36.6547 43.4437V44.17Z" fill="white"/>
</g>
<path opacity="0.5" d="M38.3762 45.122L27.9821 45.4672V44.7229L38.3762 44.3992V45.122Z" fill="url(#paint8_linear_2156_7725)"/>
<path opacity="0.5" d="M38.3762 46.126L27.9821 46.5009V45.7566L38.3762 45.4032V46.126Z" fill="url(#paint9_linear_2156_7725)"/>
<path opacity="0.5" d="M42.8552 46.9556L32.7304 47.3501V46.6157L42.8552 46.2421V46.9556Z" fill="url(#paint10_linear_2156_7725)"/>
<path d="M42.8552 47.9473L32.7304 48.371V47.6366L42.8552 47.2338V47.9473Z" fill="url(#paint11_linear_2156_7725)"/>
<g style="mix-blend-mode:soft-light" opacity="0.6">
<path d="M42.8552 48.9383L32.7304 49.391V48.6566L42.8552 48.2247V48.9383Z" fill="white"/>
</g>
<path opacity="0.5" d="M31.1215 43.3124L23.7412 43.5151V42.7619L31.1215 42.5747V43.3124Z" fill="url(#paint12_linear_2156_7725)"/>
<path opacity="0.5" d="M36.6547 33.0689L26.1563 33.0548V32.3068L36.6547 32.3426V33.0689Z" fill="url(#paint13_linear_2156_7725)"/>
<g style="mix-blend-mode:soft-light" opacity="0.6">
<path d="M38.3762 34.0754L27.9821 34.0913V33.3469L38.3762 33.3526V34.0754Z" fill="white"/>
</g>
<path opacity="0.5" d="M38.3762 35.0794L27.9821 35.1253V34.381L38.3762 34.3566V35.0794Z" fill="url(#paint14_linear_2156_7725)"/>
<path opacity="0.5" d="M38.3762 36.084L27.9821 36.1598V35.4155L38.3762 35.3612V36.084Z" fill="url(#paint15_linear_2156_7725)"/>
<path opacity="0.5" d="M30.4204 37.1688L23.7595 37.2365V36.4834L30.4204 36.4296V37.1688Z" fill="url(#paint16_linear_2156_7725)"/>
<g style="mix-blend-mode:soft-light" opacity="0.6">
<path d="M33.5412 38.1553L26.1563 38.2518V37.5035L33.5412 37.4226V38.1553Z" fill="white"/>
</g>
<path d="M37.3779 39.1127L27.9821 39.2624V38.518L37.3779 38.3879V39.1127Z" fill="url(#paint17_linear_2156_7725)"/>
<path opacity="0.5" d="M37.3779 40.1198L27.9821 40.2965V39.5521L37.3779 39.3948V40.1198Z" fill="url(#paint18_linear_2156_7725)"/>
<path opacity="0.5" d="M39.4608 41.0817L30.178 41.283V40.5433L39.4608 40.3611V41.0817Z" fill="url(#paint19_linear_2156_7725)"/>
<path opacity="0.5" d="M39.4608 42.0823L30.178 42.3104V41.5705L39.4608 41.3617V42.0823Z" fill="url(#paint20_linear_2156_7725)"/>
<path d="M31.1215 32.036L23.7412 32.0048V31.2517L31.1215 31.2983V32.036Z" fill="url(#paint21_linear_2156_7725)"/>
<g style="mix-blend-mode:soft-light">
<path d="M17.6525 24.4011L10.9475 24.2352V23.1375L17.6525 23.3229V24.4011Z" fill="white"/>
</g>
<g style="mix-blend-mode:soft-light" opacity="0.6">
<path d="M9.21318 24.1924L10.4761 24.2236V23.1245L9.21318 23.0896V24.1924Z" fill="white"/>
</g>
<g style="mix-blend-mode:soft-light" opacity="0.6">
<path d="M17.6525 25.9506L10.9475 25.813V24.7153L17.6525 24.8727V25.9506Z" fill="white"/>
</g>
<g style="mix-blend-mode:soft-light" opacity="0.6">
<path d="M9.21318 25.7778L10.4761 25.8037V24.7047L9.21318 24.675V25.7778Z" fill="white"/>
</g>
<g style="mix-blend-mode:soft-light" opacity="0.6">
<path d="M17.6525 27.5009L10.9475 27.3914V26.2937L17.6525 26.4229V27.5009Z" fill="white"/>
</g>
<g style="mix-blend-mode:soft-light" opacity="0.6">
<path d="M9.21318 27.3628L10.4761 27.3834V26.2844L9.21318 26.26V27.3628Z" fill="white"/>
</g>
<g style="mix-blend-mode:soft-light">
<path d="M17.6525 38.5008L5.93813 38.6581V37.5459L17.6525 37.4226V38.5008Z" fill="white"/>
</g>
<g style="mix-blend-mode:soft-light" opacity="0.6">
<path d="M17.6525 40.1852L10.9475 40.3059V39.2082L17.6525 39.1073V40.1852Z" fill="white"/>
</g>
<g style="mix-blend-mode:soft-light" opacity="0.6">
<path d="M9.21318 40.3376L10.4761 40.3147V39.2157L9.21318 39.2348V40.3376Z" fill="white"/>
</g>
<g style="mix-blend-mode:soft-light" opacity="0.6">
<path d="M17.6525 41.7351L10.9475 41.8839V40.7862L17.6525 40.657V41.7351Z" fill="white"/>
</g>
<g style="mix-blend-mode:soft-light" opacity="0.6">
<path d="M9.21318 41.9223L10.4761 41.8942V40.7952L9.21318 40.8196V41.9223Z" fill="white"/>
</g>
<g style="mix-blend-mode:soft-light" opacity="0.6">
<path d="M17.6525 43.2848L10.9475 43.4615V42.364L17.6525 42.2067V43.2848Z" fill="white"/>
</g>
<g style="mix-blend-mode:soft-light" opacity="0.6">
<path d="M9.21318 43.5074L10.4761 43.474V42.375L9.21318 42.4047V43.5074Z" fill="white"/>
</g>
<g style="mix-blend-mode:soft-light">
<path d="M17.6525 29.0607L5.93813 28.9187V27.8065L17.6525 27.9825V29.0607Z" fill="white"/>
</g>
<g style="mix-blend-mode:soft-light" opacity="0.6">
<path d="M17.6525 30.7455L10.9475 30.6948V29.5973L17.6525 29.6674V30.7455Z" fill="white"/>
</g>
<g style="mix-blend-mode:soft-light" opacity="0.6">
<path d="M9.21318 30.6816L10.4761 30.6913V29.5923L9.21318 29.5791V30.6816Z" fill="white"/>
</g>
<g style="mix-blend-mode:soft-light" opacity="0.6">
<path d="M17.6525 32.2954L10.9475 32.2728V31.175L17.6525 31.2172V32.2954Z" fill="white"/>
</g>
<g style="mix-blend-mode:soft-light" opacity="0.6">
<path d="M9.21318 32.2666L10.4761 32.271V31.172L9.21318 31.1641V32.2666Z" fill="white"/>
</g>
<g style="mix-blend-mode:soft-light" opacity="0.6">
<path d="M17.6525 35.4146L10.9475 35.4486V34.3509L17.6525 34.3364V35.4146Z" fill="white"/>
</g>
<g style="mix-blend-mode:soft-light" opacity="0.6">
<path d="M9.21318 35.4575L10.4761 35.4511V34.3521L9.21318 34.3547V35.4575Z" fill="white"/>
</g>
<g style="mix-blend-mode:soft-light" opacity="0.6">
<path d="M17.6525 36.9647L10.9475 37.0269V35.9292L17.6525 35.8866V36.9647Z" fill="white"/>
</g>
<g style="mix-blend-mode:soft-light" opacity="0.6">
<path d="M9.21318 37.0426L10.4761 37.0309V35.9319L9.21318 35.9398V37.0426Z" fill="white"/>
</g>
<g style="mix-blend-mode:soft-light" opacity="0.6">
<path d="M17.6525 33.8453L10.9475 33.8508V32.7531L17.6525 32.7671V33.8453Z" fill="white"/>
</g>
<g style="mix-blend-mode:soft-light" opacity="0.6">
<path d="M9.21318 33.8516L10.4761 33.8507V32.7517L9.21318 32.749V33.8516Z" fill="white"/>
</g>
<g style="mix-blend-mode:soft-light">
<path d="M17.6525 44.8343L5.93813 45.1925V44.0801L17.6525 43.7563V44.8343Z" fill="white"/>
</g>
<g style="mix-blend-mode:soft-light" opacity="0.6">
<path d="M17.6525 46.5186L10.9475 46.7542V45.6565L17.6525 45.4407V46.5186Z" fill="white"/>
</g>
<g style="mix-blend-mode:soft-light" opacity="0.6">
<path d="M9.21318 46.8148L10.4761 46.7704V45.6714L9.21318 45.7123V46.8148Z" fill="white"/>
</g>
<g style="mix-blend-mode:soft-light" opacity="0.6">
<path d="M17.6525 48.0688L10.9475 48.3325V47.2348L17.6525 46.9908V48.0688Z" fill="white"/>
</g>
<g style="mix-blend-mode:soft-light" opacity="0.6">
<path d="M9.21318 48.4L10.4761 48.3504V47.2513L9.21318 47.2973V48.4Z" fill="white"/>
</g>
<g style="mix-blend-mode:soft-light" opacity="0.6">
<path d="M17.6525 49.6181L10.9475 49.9099V48.8122L17.6525 48.5399V49.6181Z" fill="white"/>
</g>
<g style="mix-blend-mode:soft-light" opacity="0.6">
<path d="M9.21318 49.9853L10.4761 49.9303V48.8313L9.21318 48.8825V49.9853Z" fill="white"/>
</g>
<g style="mix-blend-mode:soft-light" opacity="0.6">
<path d="M19.0759 49.5619L18.8179 49.5731V21.6765L19.0759 21.6849V49.5619Z" fill="white"/>
</g>
<g style="mix-blend-mode:soft-light" opacity="0.6">
<path d="M51.0838 50.8584C39.7101 51.0953 37.1523 52.7125 33.9205 50.7747C29.4798 48.112 31.5021 43.3753 27.1755 40.8909C21.7359 37.7672 15.4642 43.4878 12.6253 40.6988C9.79795 37.9215 15.1388 31.3844 12.0471 24.0978C10.8062 21.1736 8.69281 19.2744 7.23414 18.1862L4.29032 18.0592C3.16046 18.0104 2.23627 18.7551 2.23627 19.7197V54.486C2.23627 55.4508 3.16046 56.1806 4.29032 56.1136L56.5391 53.0103C57.3684 52.9611 58.0397 52.2537 58.0397 51.4333V50.9076C56.4729 50.8525 54.0477 50.796 51.0838 50.8584Z" fill="white"/>
</g>
<path d="M49.6598 27.1844C52.456 29.7101 56.0168 30.3769 57.8103 28.7717H57.8114L57.8182 28.7638C57.8922 28.6983 57.9628 28.629 58.0296 28.5561C58.1134 28.464 58.1914 28.3668 58.2633 28.2652L60.4317 25.8335L60.8821 25.328L57.6361 22.4848C57.1334 21.713 56.5314 21.01 55.8456 20.3937C55.0381 19.6646 54.1667 19.0908 53.2932 18.6807L50.044 15.8363L47.5047 18.9916C47.4954 19.002 47.4851 19.0114 47.4758 19.0215C47.381 19.125 47.294 19.2351 47.2154 19.3512C47.0907 19.5341 46.986 19.7297 46.9029 19.9346C46.0902 21.9285 47.1657 24.93 49.6598 27.1844Z" fill="url(#paint22_linear_2156_7725)"/>
<path style="mix-blend-mode:multiply" opacity="0.3" d="M49.6397 27.2056C50.3953 27.9207 51.2518 28.5242 52.1808 28.9342C53.1344 29.354 54.4809 29.7364 55.5351 29.6482C57.289 29.5021 58.117 28.3956 59.1886 27.206C59.6017 26.748 60.0453 26.3153 60.4334 25.8354C59.415 25.7062 58.0932 26.038 57.1381 26.3727C56.3128 26.6617 55.5271 27.1324 54.6524 27.2616C52.7237 27.5473 50.6634 26.3553 49.6989 24.7214C49.1094 23.723 49.344 22.4275 48.5871 21.5028C48.0979 20.905 47.3412 20.578 46.9022 19.9354C46.9808 20.0506 46.7069 20.8674 46.6873 21.041C46.6414 21.4402 46.6461 21.8434 46.7012 22.2414C46.8323 23.1719 47.2308 24.0498 47.7236 24.8436C48.2588 25.7089 48.9027 26.5027 49.6397 27.2056Z" fill="url(#paint23_linear_2156_7725)"/>
<path d="M47.5354 13.6466L58.8073 16.1582L63.6564 26.5982L63.9675 26.8481L63.8592 26.9819L52.1395 24.3734L47.1006 13.5182L47.209 13.3844L47.5354 13.6466Z" fill="url(#paint24_linear_2156_7725)"/>
<path d="M58.9565 15.9739L64 26.8325L52.2762 24.2202L47.2326 13.3616L58.9565 15.9739Z" fill="url(#paint25_linear_2156_7725)"/>
<path d="M59.434 32.2282C59.477 32.2347 59.5208 32.2248 59.5567 32.2003C59.5926 32.1758 59.6177 32.1386 59.6271 32.0963L60.8997 26.3223C60.9047 26.2994 60.905 26.2757 60.9004 26.2527C60.8958 26.2297 60.8865 26.2079 60.873 26.1887L56.0343 19.2787C56.0083 19.2417 55.9687 19.2165 55.9241 19.2086C55.8795 19.2007 55.8335 19.2107 55.7964 19.2365C55.7592 19.2624 55.7339 19.3018 55.7259 19.3463C55.718 19.3907 55.7281 19.4364 55.754 19.4734L60.5499 26.3221L59.2932 32.0234C59.2835 32.0674 59.2918 32.1135 59.3162 32.1515C59.3406 32.1895 59.3792 32.2163 59.4234 32.226L59.434 32.2282Z" fill="url(#paint26_linear_2156_7725)"/>
<path d="M59.8248 31.955L59.7224 31.7295C59.7032 31.6876 59.673 31.6516 59.635 31.6253C59.597 31.599 59.5526 31.5834 59.5065 31.5801C59.4603 31.5768 59.4141 31.586 59.3727 31.6066C59.3314 31.6273 59.2963 31.6586 59.2714 31.6974L59.1495 31.9121C59.1162 31.9636 59.1118 32.0238 59.1065 32.0849L58.9401 33.9667C58.9366 34.0071 59.0919 34.0546 59.3082 34.0726C59.5245 34.0906 59.6856 34.0726 59.6893 34.0322L59.8559 32.1451C59.8623 32.0801 59.8516 32.0146 59.8248 31.955Z" fill="url(#paint27_linear_2156_7725)"/>
<path d="M47.9343 41.0505C47.3956 40.4776 48.8872 38.3255 49.6854 37.3825C50.3829 36.5586 51.0997 35.7123 51.9804 35.8191C52.7528 35.9132 53.5053 36.725 53.5503 37.5027C53.6703 39.5955 48.7003 41.8647 47.9343 41.0505Z" fill="url(#paint28_linear_2156_7725)"/>
<path d="M54.4032 63.1646C54.5048 63.2468 54.5233 63.4518 54.5356 63.5856C54.5412 63.6456 54.544 63.6755 54.5372 63.6966C54.4882 63.8505 54.1879 63.8672 53.7169 63.9151C52.9726 63.9909 52.751 64.0491 52.6928 63.9388C52.6383 63.8355 52.7702 63.6663 52.7852 63.6476C52.8651 63.5472 52.9633 63.5107 53.1531 63.4485C53.5042 63.3334 53.7414 63.2703 53.8134 63.2507C54.2618 63.1321 54.3366 63.1107 54.4032 63.1646Z" fill="url(#paint29_linear_2156_7725)"/>
<path d="M53.9606 62.4873L53.8862 63.3318C53.9083 63.3727 54.1594 63.4951 54.3595 63.3901L54.5511 62.5598L53.9606 62.4873Z" fill="#D8DEE8"/>
<path d="M48.5004 63.0565C48.6217 63.1901 48.6495 63.4365 48.5445 63.5576C48.4395 63.6787 48.2843 63.5875 47.8412 63.6015C47.3668 63.6156 47.2427 63.7272 46.9203 63.6387C46.7899 63.6028 46.5597 63.5158 46.5641 63.4231C46.5672 63.3571 46.6844 63.3244 47.0757 63.1936C47.6311 63.0084 47.6287 62.9983 47.7465 62.9789C48.0431 62.9291 48.3397 62.88 48.5004 63.0565Z" fill="url(#paint30_linear_2156_7725)"/>
<path d="M48.1962 62.2856L47.9581 63.0744C47.976 63.1166 48.2181 63.2576 48.4257 63.1682L48.7788 62.403L48.1962 62.2856Z" fill="#D8DEE8"/>
<path d="M50.3113 45.0161C50.2731 47.9822 50.0556 50.9433 49.6598 53.8833C49.2684 56.7918 48.7033 59.6744 47.9675 62.516L48.8784 62.7601C49.649 62.0446 50.6218 60.9183 51.09 59.3266C51.3811 58.3376 51.2842 57.8311 51.4689 56.616C51.7629 54.6821 52.3583 53.6677 52.9739 52.1076C53.527 50.7057 54.1808 48.6481 54.5313 45.898L50.3113 45.0161Z" fill="url(#paint31_linear_2156_7725)"/>
<path d="M53.0525 44.7626C53.2384 48.133 53.3899 51.5656 53.5071 55.0604C53.594 57.6822 53.6584 60.2705 53.7004 62.8255L54.6312 62.94C55.0574 62.1517 55.3836 61.3137 55.6022 60.4453C55.9332 59.1225 55.8568 58.3369 56.002 56.966C56.1651 55.4276 56.4019 55.0934 56.8214 53.1536C57.6725 49.217 58.0982 47.2485 57.1487 46.0243C56.8401 45.6267 55.8738 44.6296 53.0525 44.7626Z" fill="url(#paint32_linear_2156_7725)"/>
<path d="M57.5741 36.2919C56.5642 36.0088 55.5264 35.8362 54.4789 35.777C52.6188 35.6724 51.6889 35.6201 51.03 36.0611C49.5073 37.0797 50.6862 39.431 50.0632 45.2597C49.9749 46.092 49.9542 46.9299 49.89 47.765C49.7831 49.1469 49.7589 49.222 49.8553 49.362C50.4608 50.2411 52.7197 48.9157 56.0307 49.4391C57.8831 49.7321 58.723 50.4061 59.2305 49.9202C59.8224 49.3526 59.3148 47.8257 58.8774 46.5115C58.3758 45.0026 58.066 44.9833 57.7811 43.8471C57.4836 42.6604 57.6635 42.0479 57.7098 40.1753C57.741 38.8793 57.6957 37.5826 57.5741 36.2919Z" fill="url(#paint33_linear_2156_7725)"/>
<g style="mix-blend-mode:multiply" opacity="0.3">
<path d="M53.0719 47.2335C53.9374 47.166 54.4988 47.6532 55.2457 47.2735C56.2699 46.7529 56.5989 45.1328 56.5338 43.9863C56.4345 42.2442 55.4357 41.7852 55.607 40.6591C55.7001 40.0501 56.1366 39.2416 57.7034 38.4158C57.7242 39.1109 57.7202 39.7034 57.7085 40.1739C57.6621 42.0465 57.4823 42.6572 57.7798 43.8457C58.0647 44.9818 58.3745 45.0012 58.8761 46.51C59.3132 47.8242 59.8208 49.3511 59.2292 49.9188C58.7216 50.4055 57.8815 49.7307 56.0294 49.4377C53.1765 48.9865 51.1059 49.9065 50.1998 49.608C51.2959 47.8071 52.2889 47.2944 53.0719 47.2335Z" fill="url(#paint34_linear_2156_7725)"/>
</g>
<path d="M56.3937 36.4109C57.0116 35.9054 58.2545 36.4768 58.5868 36.6306C60.4392 37.484 62.1024 39.7833 61.6904 42.2126C61.6286 42.5769 61.342 44.2816 59.8925 45.1077C58.5846 45.8529 56.8185 45.6613 55.4038 44.6056L54.8236 44.0933L54.2527 43.478C54.7016 43.1056 55.2178 42.8221 55.7736 42.6429C56.7144 42.3405 57.3994 42.8831 57.8359 42.4706C58.1371 42.186 58.1377 41.6832 58.0634 41.3786C57.9135 40.7643 57.37 40.5916 56.9159 40.1558C55.8502 39.1341 55.6538 37.017 56.3937 36.4109Z" fill="url(#paint35_linear_2156_7725)"/>
<path d="M47.5122 44.344L55.7961 44.2207L53.5934 45.2795L47.491 44.8817L47.5122 44.344Z" fill="url(#paint36_linear_2156_7725)"/>
<path d="M56.0885 44.4403C56.0885 44.5157 56.0652 44.5892 56.0217 44.6509C55.9783 44.7126 55.9169 44.7596 55.8458 44.7853L53.1988 45.8182L53.1866 45.1018L55.7961 44.2206C55.8303 44.2108 55.8663 44.209 55.9012 44.2155C55.9361 44.2219 55.9691 44.2364 55.9975 44.2577C56.0258 44.279 56.0488 44.3066 56.0646 44.3383C56.0804 44.37 56.0886 44.4049 56.0885 44.4403Z" fill="url(#paint37_linear_2156_7725)"/>
<path d="M54.8128 43.9522C54.8638 43.941 54.5652 43.3488 54.3309 43.4171C54.0965 43.4855 52.9503 44.1469 52.8461 44.4192L52.742 44.6917C52.742 44.6917 53.242 44.7306 53.5521 44.6269C53.8621 44.5232 54.3986 44.0441 54.8128 43.9522Z" fill="white"/>
<path d="M52.9668 40.0754L53.551 45.3701C53.571 45.5528 53.3142 45.8248 53.1299 45.8162L44.5639 45.2926C44.4956 45.2893 44.4304 45.263 44.3792 45.2179C44.328 45.1728 44.2937 45.1116 44.2821 45.0444L43.207 39.9308C43.1748 39.7447 43.5109 39.5526 43.7002 39.5572L52.6773 39.8082C52.7498 39.8104 52.8191 39.8387 52.8723 39.8878C52.9255 39.9369 52.9591 40.0036 52.9668 40.0754Z" fill="url(#paint38_linear_2156_7725)"/>
<path d="M52.7711 40.2297L53.355 45.5242C53.3598 45.5672 53.3551 45.6106 53.3414 45.6516C53.3277 45.6927 53.3051 45.7302 53.2754 45.7617C53.2457 45.7932 53.2095 45.8179 53.1692 45.8341C53.129 45.8503 53.0857 45.8577 53.0423 45.8556L44.368 45.4466C44.2997 45.4434 44.2345 45.417 44.1833 45.3719C44.1321 45.3268 44.0979 45.2656 44.0864 45.1985L43.2002 40.0616C43.1926 40.0179 43.1948 39.9732 43.2068 39.9305C43.2187 39.8879 43.24 39.8484 43.2691 39.8149C43.2982 39.7815 43.3344 39.7549 43.3751 39.7371C43.4159 39.7192 43.46 39.7106 43.5045 39.7119L52.4811 39.9633C52.5536 39.9653 52.6229 39.9934 52.6762 40.0424C52.7295 40.0914 52.7632 40.1579 52.7711 40.2297Z" fill="url(#paint39_linear_2156_7725)"/>
<path style="mix-blend-mode:multiply" opacity="0.3" d="M47.6777 44.2063C48.4351 43.8865 48.1678 43.2769 49.0622 42.5172C50.242 41.5151 51.4455 41.9498 51.8648 41.1729C51.9959 40.9312 52.0586 40.5547 51.8302 39.9453L52.4803 39.9636C52.5528 39.9656 52.6221 39.9937 52.6754 40.0426C52.7287 40.0916 52.7624 40.1581 52.7703 40.2299L53.3542 45.5244C53.3589 45.5674 53.3543 45.6109 53.3405 45.6519C53.3268 45.6929 53.3043 45.7304 53.2746 45.7619C53.2448 45.7934 53.2086 45.8182 53.1684 45.8344C53.1281 45.8506 53.0848 45.8579 53.0415 45.8558L44.3671 45.4468C44.2988 45.4436 44.2337 45.4172 44.1825 45.3721C44.1313 45.327 44.0971 45.2658 44.0855 45.1987L43.9631 44.49C44.2584 44.3245 44.5777 44.2056 44.9096 44.1375C46.1813 43.8804 46.8056 44.5744 47.6777 44.2063Z" fill="url(#paint40_linear_2156_7725)"/>
<path d="M43.8216 44.7061C43.8185 44.6962 43.8177 44.6859 43.8192 44.6757C43.8208 44.6655 43.8246 44.6558 43.8305 44.6473C43.8364 44.6388 43.8441 44.6318 43.8531 44.6267C43.8621 44.6217 43.8722 44.6188 43.8825 44.6182C44.0659 44.6089 44.4909 44.6052 44.7257 44.7483C45.0307 44.9342 45.425 45.2737 45.0929 45.4449L44.784 45.6049C44.77 45.6123 44.7539 45.6145 44.7385 45.6111C44.6282 45.5871 44.1648 45.4845 44.114 45.4592C44.0668 45.4348 43.89 44.9124 43.8216 44.7061Z" fill="white"/>
<path d="M54.3398 33.7532C54.3349 34.1835 54.3735 34.6133 54.455 35.0359C54.5212 35.3777 54.5696 35.466 54.6316 35.5376C54.7238 35.6453 54.8637 35.7354 55.654 35.931C56.0838 36.0372 56.1395 36.0343 56.1487 36.0767C56.1951 36.284 55.0233 36.9905 53.8113 36.8202C53.0699 36.716 52.3955 36.2949 52.4367 36.073C52.478 35.851 53.219 35.9699 53.4397 35.5675C53.5942 35.2873 53.4212 34.8898 53.2177 34.5604C53.4141 34.1929 54.1428 34.1208 54.3398 33.7532Z" fill="white"/>
<path d="M52.9642 33.9702C52.7892 33.7388 52.7784 33.3347 52.9801 33.0793C53.1535 32.8596 53.4265 32.8281 53.59 32.8092C54.0636 32.7549 54.6612 32.9519 54.87 33.3859C54.9931 33.643 54.7267 34.177 54.685 34.2737C54.6376 34.3823 54.5526 34.4196 54.4727 34.5018C54.3624 34.6157 54.1912 34.797 53.9105 35.0998C53.884 34.9902 53.8479 34.8832 53.8028 34.7798C53.7442 34.6455 53.6686 34.5191 53.5779 34.4038C53.3301 34.1041 53.1299 34.1896 52.9642 33.9702Z" fill="url(#paint41_linear_2156_7725)"/>
<path d="M54.3103 34.845C54.3103 34.845 53.9989 35.3538 53.3791 35.3136C52.8241 35.2775 52.7426 34.0389 53.0973 33.7752C53.2155 33.6873 53.4523 33.6511 53.645 33.7047C53.7586 33.7365 53.7972 33.7836 53.9842 33.8319C54.1565 33.8759 54.2048 33.8574 54.2571 33.9009C54.3233 33.9554 54.3699 34.0893 54.2613 34.4517C54.3673 34.3448 54.4944 34.3038 54.5844 34.3462C54.6152 34.3628 54.6408 34.3876 54.6583 34.4178C54.7351 34.5593 54.6054 34.74 54.3103 34.845Z" fill="white"/>
<path d="M54.2816 33.8267C54.2549 33.8465 54.3368 33.946 54.3427 34.0867C54.3546 34.3598 54.0779 34.6879 53.7937 34.7156C53.6262 34.7321 53.5801 34.6317 53.3034 34.6024C53.1683 34.5886 53.0319 34.5965 52.8993 34.6257C52.8123 34.9253 52.8942 35.2241 53.0953 35.3628C53.312 35.512 53.5885 35.4215 53.7041 35.3835C53.7816 35.3582 54.0294 35.2775 54.1589 35.0512C54.294 34.8154 54.1613 34.673 54.3163 34.5134C54.3944 34.433 54.497 34.3983 54.597 34.2425C54.6184 34.2089 54.6372 34.1738 54.6532 34.1374C54.51 33.9862 54.3204 33.7979 54.2816 33.8267Z" fill="url(#paint42_linear_2156_7725)"/>
<path d="M53.1008 34.7368C53.1008 34.7368 53.2206 34.7992 53.4278 34.7875C53.438 34.7875 53.4499 34.79 53.4499 34.7952C53.4548 34.8148 53.3217 34.9025 53.1992 34.8682C53.1125 34.8438 53.0447 34.7618 53.0564 34.741C53.0617 34.7317 53.0816 34.7335 53.1008 34.7368Z" fill="white"/>
<path d="M9.76157 36.913C9.61438 36.9683 7.36966 37.8579 6.90823 40.1905C6.87093 40.3788 6.51101 42.3835 7.87545 43.7994C9.40606 45.3874 12.3534 45.3481 13.5234 44.0205C13.7962 43.7111 13.9401 43.3678 14.0208 43.0797L13.7119 42.2642C13.3367 41.8119 12.8237 41.7047 12.55 41.6376C11.8759 41.4721 11.3668 41.7712 10.9806 41.4473C10.767 41.2682 10.7246 41.0104 10.6866 40.7801C10.5573 39.9956 11.002 39.5127 11.0344 39.0288C11.0587 38.6671 11.1858 37.8746 10.7118 37.3586C10.4123 37.0308 9.99637 36.9415 9.76157 36.913Z" fill="url(#paint43_linear_2156_7725)"/>
<path d="M8.88678 62.9144C8.86074 62.7707 8.39489 62.6408 8.16429 62.8331C8.04976 62.9287 7.97097 63.1223 8.03718 63.2098C8.06123 63.2417 7.96259 63.2977 8.05704 63.2977C8.37084 63.3023 8.91282 63.0571 8.88678 62.9144Z" fill="url(#paint44_linear_2156_7725)"/>
<path d="M8.39866 62.9671L7.91957 62.8997C8.14157 62.6335 8.10053 61.7861 8.10053 61.7861L8.60985 61.8995C8.60985 61.8995 8.55181 62.132 8.45317 62.4751C8.4194 62.5927 8.40418 62.7764 8.39866 62.9671Z" fill="url(#paint45_linear_2156_7725)"/>
<path d="M8.44127 62.9082C8.44127 62.9082 7.86442 62.7763 7.80131 62.8899C7.7382 63.0035 7.69097 63.3088 8.05619 63.2989C8.42141 63.289 8.47371 63.0048 8.44127 62.9082Z" fill="url(#paint46_linear_2156_7725)"/>
<path d="M15.4596 63.4546C15.4135 63.3159 14.934 63.2522 14.7327 63.4748C14.6327 63.5847 14.5818 63.788 14.6597 63.8653C14.6881 63.8935 14.5981 63.9627 14.6919 63.9506C15.003 63.9093 15.5053 63.5911 15.4596 63.4546Z" fill="url(#paint47_linear_2156_7725)"/>
<path d="M14.9834 63.5732H14.5003C14.6826 63.2788 14.5224 62.4454 14.5224 62.4454L15.0428 62.4865C15.0428 62.4865 15.018 62.725 14.9684 63.0786C14.9512 63.1994 14.9622 63.3836 14.9834 63.5732Z" fill="url(#paint48_linear_2156_7725)"/>
<path d="M16.2373 45.3545C16.577 46.4728 16.8279 47.616 16.9876 48.7734C17.5753 53.0302 16.3256 53.1658 16.5595 57.883C16.6341 59.3885 15.2496 62.8606 15.1278 62.9375C15.0641 62.944 15.0002 62.9465 14.9362 62.945C14.7709 62.9391 14.607 62.9119 14.4487 62.8641C14.2294 62.8263 13.4387 60.6937 13.6221 59.4259C13.7516 58.5284 13.7141 57.5654 13.6389 55.6392C13.6267 55.3271 12.8248 49.5669 12.8248 49.5669C12.5821 51.6986 12.3005 53.5106 12.0573 54.9151C11.2756 59.4274 8.73523 62.158 8.60282 62.2019C8.57656 62.2125 8.33801 62.2986 8.14337 62.1707C8.0931 62.139 8.05281 62.0938 8.02708 62.0404C7.95911 61.9872 8.04716 57.5353 8.82151 54.1844C9.94696 49.3208 9.45662 48.1829 9.81279 46.0103C10.1215 44.1314 16.2373 45.3545 16.2373 45.3545Z" fill="url(#paint49_linear_2156_7725)"/>
<path d="M16.5385 46.0891C15.863 46.4343 14.1237 47.0527 12.0504 46.7455C11.2861 46.6313 10.5461 46.3915 9.86066 46.0359L9.81277 46.0117C10.3514 44.3899 9.92951 43.522 9.73024 42.7221C9.44601 41.5817 9.44204 41.6672 9.2079 40.7616C8.82238 39.2672 8.75926 37.7388 9.02408 37.4267C9.7384 36.5839 11.026 36.5534 11.6943 36.5331C12.441 36.5112 14.1579 36.2492 15.1028 37.0962C15.1191 37.1107 14.9263 37.2137 15.0212 37.3252C15.2731 37.6216 15.4964 37.941 15.6883 38.2792C15.8869 38.6332 16.0683 39.0461 16.2497 39.6606C16.4801 40.4469 16.6284 41.2549 16.6923 42.0716C16.7021 42.2048 16.711 42.3335 16.719 42.4579C16.8446 44.4567 16.6851 45.4212 16.5385 46.0891Z" fill="url(#paint50_linear_2156_7725)"/>
<path d="M15.0172 63.509C15.0172 63.509 14.4278 63.4584 14.3819 63.5799C14.336 63.7015 14.3311 64.01 14.6908 63.9494C15.0505 63.8887 15.0631 63.6002 15.0172 63.509Z" fill="url(#paint51_linear_2156_7725)"/>
<path d="M13.8434 35.5828C14.0468 35.1782 13.9129 34.7415 13.8829 34.6473C13.7578 34.2517 13.7174 34.1941 13.6364 34.1143L13.523 34.0104L13.5086 34.0016C13.4316 33.9563 13.1511 33.8937 13.0915 33.8948C12.9013 33.8985 12.5635 34.602 12.4158 35.6599C12.4004 35.6984 12.3854 35.7373 12.3704 35.7764C12.2775 36.0205 12.2 36.2599 12.1351 36.4922C10.8625 36.6899 10.6952 36.851 10.6957 36.9378C10.6957 37.1205 11.4407 37.28 11.9948 37.3218C13.2036 37.413 14.4116 37.0141 14.3902 36.7912C14.3812 36.6946 14.1345 36.5851 13.1103 36.5236C13.1225 36.3547 13.1345 36.1858 13.1463 36.017C13.2279 35.9931 13.6933 35.8808 13.8434 35.5828Z" fill="url(#paint52_linear_2156_7725)"/>
<path d="M13.959 33.7866C13.895 34.1109 13.6744 34.4278 13.5852 34.4678C13.5322 34.4952 13.484 34.5309 13.4424 34.5735C13.4323 34.5839 13.4235 34.5956 13.4164 34.6083C13.3061 34.799 13.5852 35.1025 13.5047 35.1818C13.4462 35.2396 13.2414 35.108 13.2039 35.1599C13.1664 35.2117 13.3312 35.3563 13.2906 35.4154C13.2597 35.4594 13.1549 35.3935 13.0699 35.4548C13.0271 35.4851 13.0318 35.5167 12.972 35.6233C12.9409 35.6797 12.9047 35.7331 12.8638 35.7829C12.7142 35.9519 12.3819 35.96 12.3353 35.8721C12.3223 35.8475 12.3404 35.8325 12.3369 35.7578C12.3324 35.7052 12.3207 35.6535 12.3022 35.604C12.2581 35.4822 12.1131 35.3735 11.9749 35.2273C11.7187 34.9568 11.6731 34.7592 11.6607 34.6931C11.6563 34.6696 11.6541 34.652 11.6525 34.6395C11.6216 34.3854 11.6894 34.034 11.8392 33.8386C12.0901 33.5116 12.4648 33.762 12.8685 33.4675C13.3339 33.1279 13.214 32.5183 13.4352 32.4961C13.6777 32.4711 14.0773 33.1862 13.959 33.7866Z" fill="#26264F"/>
<path d="M13.402 35.0831C13.3433 34.9584 13.1831 35.034 13.1549 35.1754C13.1266 35.3167 13.2359 35.4901 13.3756 35.4876C13.5152 35.4852 13.481 35.2505 13.402 35.0831Z" fill="url(#paint53_linear_2156_7725)"/>
<path d="M10.0511 45.0068H10.0464C10.0351 45.0054 10.0247 44.9996 10.0175 44.9907C10.0104 44.9818 10.007 44.9705 10.008 44.9591C10.0963 44.1722 9.9319 43.5997 9.78736 43.0947C9.75183 42.971 9.7174 42.851 9.68805 42.7325C9.52718 42.0866 9.45679 41.837 9.3822 41.5726C9.33299 41.3992 9.28311 41.221 9.20566 40.9226C9.20295 40.9115 9.20468 40.8998 9.21049 40.8899C9.2163 40.8801 9.22572 40.8729 9.23677 40.8698C9.24229 40.8683 9.24806 40.8679 9.25374 40.8687C9.25942 40.8694 9.26489 40.8713 9.26983 40.8742C9.27477 40.8771 9.27908 40.8809 9.28249 40.8855C9.28591 40.8901 9.28837 40.8953 9.28973 40.9008C9.36763 41.1988 9.41773 41.3762 9.46627 41.5491C9.54108 41.8141 9.6117 42.0644 9.77257 42.7116C9.80192 42.8292 9.83613 42.9483 9.87121 43.071C10.018 43.5837 10.1844 44.1647 10.0948 44.9686C10.0934 44.9792 10.0882 44.9889 10.0801 44.9959C10.0721 45.0029 10.0618 45.0068 10.0511 45.0068Z" fill="url(#paint54_linear_2156_7725)"/>
<path style="mix-blend-mode:multiply" opacity="0.3" d="M16.5385 46.0892C15.863 46.4344 14.1237 47.0529 12.0504 46.7456C11.2861 46.6314 10.5461 46.3916 9.86064 46.036C10.1012 45.8497 10.3975 45.5376 10.8874 45.0069C11.4811 44.3649 12.1766 44.6045 12.5867 44.8464C12.7314 44.9315 12.896 44.9775 13.0641 44.9799C13.2322 44.9822 13.398 44.9408 13.5451 44.8597C13.6922 44.7787 13.8155 44.6608 13.9029 44.5178C13.9902 44.3747 14.0386 44.2115 14.0431 44.0441C14.047 43.865 14.0396 43.6858 14.021 43.5077C13.8809 42.0471 15.9127 41.923 15.9127 41.923C16.1996 41.7746 16.4714 42.0142 16.7193 42.4585C16.8446 44.4568 16.685 45.4213 16.5385 46.0892Z" fill="url(#paint55_linear_2156_7725)"/>
<path d="M23.6415 39.5827C23.5598 39.5904 23.4607 39.6728 23.3912 39.7121C23.2923 39.768 23.1926 39.822 23.0922 39.8752C22.8976 39.9761 22.6914 40.051 22.469 40.0468C22.4758 40.0148 22.4858 39.9835 22.4988 39.9534C22.5363 39.8655 22.5871 39.7897 22.5564 39.7633C22.514 39.7251 22.3271 39.804 22.1548 39.9686C22.0804 40.0386 22.0162 40.1187 21.9641 40.2064C21.8758 40.3558 21.8908 40.4374 21.8173 40.5512C21.707 40.649 21.6258 40.6703 21.6258 40.6703V40.7015L21.6382 40.7397C21.5486 40.8044 21.449 40.8541 21.3433 40.8868C21.4956 40.9274 21.6443 40.969 21.7959 41.0105L21.9012 41.1863C21.9012 41.1863 22.475 41.0665 22.8216 40.8567C22.9836 40.7584 23.0395 40.6369 23.0531 40.5365C23.0603 40.4826 23.0572 40.4279 23.0441 40.3752C23.0368 40.3488 23.0304 40.3327 23.0304 40.3327C23.0304 40.3327 23.5033 40.1372 23.6902 39.7141C23.7185 39.6499 23.7211 39.575 23.6415 39.5827Z" fill="url(#paint56_linear_2156_7725)"/>
<path d="M21.6379 40.495C21.908 40.6831 22.0528 40.9387 22.1278 41.1017C21.9292 41.5659 21.479 42.4276 20.5471 43.0624C19.0189 44.1037 16.7784 44.1393 15.2176 42.9526C13.3531 41.5338 13.0415 38.8136 13.8247 37.6486C13.9149 37.5143 14.2113 37.0735 14.6714 37.0229C14.962 36.9909 15.3575 37.1109 15.9824 37.8389C17.2844 39.357 16.8245 40.3051 17.5934 40.7492C18.7475 41.4142 20.4617 39.6764 21.6379 40.495Z" fill="url(#paint57_linear_2156_7725)"/>
<path d="M41.0088 11.3619C40.5304 11.2228 39.8907 12.0981 39.3589 12.8255C38.5644 13.914 37.6338 15.1857 37.8841 16.7129C38.1306 18.2154 39.424 19.3856 39.7925 19.2181C40.1078 19.0751 39.5016 18.0644 39.9662 16.7129C40.3413 15.6224 40.9616 15.622 41.3785 14.5528C41.8946 13.2259 41.5978 11.5333 41.0088 11.3619Z" fill="url(#paint58_linear_2156_7725)"/>
<path d="M40.772 18.2827C38.3069 18.8787 36.6831 19.8356 35.7349 20.5122C35.2209 20.879 34.9846 21.1078 34.8553 21.4411C34.1251 23.3414 37.8768 26.2144 38.2758 26.5152C38.4505 26.1098 38.6252 25.7043 38.7996 25.2986C38.4119 23.1797 37.7667 22.5149 37.2264 22.3171C37.0755 22.2617 36.8217 22.2024 36.8268 22.1314C36.8383 21.9628 38.2634 22.2028 39.6252 21.7066C40.9832 21.2119 42.3475 19.9599 42.1038 19.1321C42.0604 18.9809 41.8739 18.5442 40.772 18.2827Z" fill="url(#paint59_linear_2156_7725)"/>
<path d="M38.3817 32.1713C38.3817 32.1713 38.6112 32.2528 38.612 32.4335C38.6129 32.6141 38.3797 33.4103 38.1266 33.6931C37.8734 33.976 37.8505 33.554 37.8662 33.2822C37.8818 33.0103 37.9483 32.4018 38.0109 32.284C38.0736 32.1662 38.3817 32.1713 38.3817 32.1713Z" fill="url(#paint60_linear_2156_7725)"/>
<path style="mix-blend-mode:multiply" opacity="0.3" d="M37.6449 21.0606C37.1972 21.0518 36.1476 20.9687 35.8682 21.4854C35.635 21.9163 36.0435 22.5697 36.2946 22.9716C36.9774 24.0643 37.6407 24.1759 38.107 24.8473C38.2877 25.107 38.4513 25.4701 38.5042 25.9885L38.8013 25.2984C38.4135 23.1795 37.7683 22.5147 37.2281 22.3169C37.0771 22.2615 36.8233 22.2022 36.8284 22.1312C36.8399 21.9627 38.265 22.2027 39.6268 21.7064C40.8646 21.2555 42.1037 20.176 42.1293 19.3616C40.1686 20.7617 38.6931 21.081 37.6449 21.0606Z" fill="url(#paint61_linear_2156_7725)"/>
<path d="M38.5143 31.4034C38.5009 31.6819 38.477 31.9148 38.4556 32.0876C38.4084 32.4702 38.3647 32.6216 38.3051 32.7594C38.253 32.8796 38.1231 33.1418 38.0611 33.1235C37.999 33.1053 38.0628 32.8159 38.112 32.0071C38.1191 31.89 38.1407 31.5168 38.1407 31.5168L38.5143 31.4034Z" fill="url(#paint62_linear_2156_7725)"/>
<path d="M42.1936 18.442C41.0979 19.0963 40.1241 19.9343 39.3151 20.9191C38.6822 21.6923 37.7197 22.868 37.3712 24.6212C37.1854 25.5557 37.2768 26.3941 37.4672 28.0324C37.6175 29.3297 37.842 30.6174 38.1396 31.8892L38.4671 32.0211C38.7597 31.4859 39.1424 30.6385 39.2796 29.5549C39.504 27.7823 38.8383 27.2188 39.1578 25.9618C39.4345 24.8727 40.2369 24.2037 41.8414 22.8693C43.1598 21.772 44.3755 21.1209 44.8268 19.7522C44.9033 19.5199 44.9684 19.2347 44.8435 18.9736C44.5743 18.4101 43.5444 18.2139 42.1936 18.442Z" fill="url(#paint63_linear_2156_7725)"/>
<path d="M43.3275 11.4637C42.9587 11.3848 42.3523 11.4004 41.7743 10.947C41.6005 10.8106 40.9839 10.3273 41.0587 9.63549C41.1249 9.02653 41.7042 8.69931 41.7752 8.66041C42.1857 8.43559 42.5946 8.4846 43.0483 8.54723C43.6364 8.62744 43.8317 8.78743 44.24 8.89709C45.2511 9.1685 45.5929 8.60195 46.6111 8.64986C47.9131 8.71095 48.0248 9.6678 49.1195 9.69175C50.3487 9.71856 50.5842 8.52064 51.7977 8.3178C53.4819 8.03606 56.0302 9.84163 55.979 11.9232C55.9493 13.1255 55.0504 14.5032 53.9023 14.917C53.2329 15.1588 52.5107 15.0814 52.3046 15.515C52.1578 15.8227 52.4877 16.0609 52.4566 16.5984C52.4164 17.2913 51.8166 17.7774 51.7207 17.8559C50.8227 18.5849 48.8097 18.2165 47.4351 17.1854C44.9567 15.3267 45.3319 11.8931 43.3275 11.4637Z" fill="url(#paint64_linear_2156_7725)"/>
<path d="M46.1749 11.2172C45.2229 11.1004 44.2652 11.0353 43.3061 11.0223C41.0449 10.9917 40.7211 11.2774 40.6381 11.4888C40.4837 11.8829 40.7485 12.0802 40.5982 12.7674C40.5084 13.1781 40.5931 13.3654 40.4197 13.8069C40.2504 14.237 40.383 14.4681 40.5327 15.4771C40.724 16.7671 40.8123 17.4226 40.4499 17.9426C40.1981 18.3039 39.9163 18.3344 39.9424 18.5061C39.9995 18.8715 41.2688 18.67 42.8762 19.3719C43.3414 19.575 43.7698 19.8255 44.1288 20.0354C44.9698 20.5272 45.1254 20.7151 45.5146 20.9379C46.7462 21.6412 48.5962 21.7102 49.5658 20.8582C49.9273 20.5406 50.1908 20.0736 50.0723 19.9026C49.9107 19.6701 49.1896 20.1987 48.5264 19.8763C48.0875 19.6627 48.1709 19.317 47.6636 18.9093C47.053 18.4195 46.6284 18.6761 46.2129 18.3573C45.5645 17.86 45.8598 16.6691 46.0414 14.6725C46.1459 13.5238 46.1904 12.3705 46.1749 11.2172Z" fill="url(#paint65_linear_2156_7725)"/>
<path d="M43.7275 10.7525C44.0365 10.9431 44.5346 11.1921 44.5895 11.2597C44.6445 11.3274 43.0792 11.594 42.1051 11.1046C42.1051 11.1046 41.9542 11.0211 42.5414 10.9042C42.6665 10.8791 42.642 10.6369 42.6253 10.3862L42.7427 10.1691C42.7427 10.1691 43.4193 10.5618 43.7275 10.7525Z" fill="url(#paint66_linear_2156_7725)"/>
<path d="M42.9497 10.0217C42.9497 10.0217 43.0706 10.5327 42.6187 10.7854C42.214 11.0115 41.5292 10.0844 41.657 9.73977C41.6998 9.62484 41.8521 9.47606 42.0114 9.42727C42.1235 9.39233 42.5474 9.40529 42.7288 9.76131C42.7765 9.65736 42.8612 9.60286 42.9188 9.62C42.9914 9.64198 43.002 9.77383 43.0044 9.80306C43.0095 9.87985 42.9904 9.95631 42.9497 10.0217Z" fill="url(#paint67_linear_2156_7725)"/>
<path style="mix-blend-mode:multiply" opacity="0.3" d="M42.2488 18.2149C42.7145 18.4072 42.7785 18.8225 43.4213 19.0581C44.0354 19.2829 44.2416 19.0012 44.8541 19.188C45.7741 19.4682 46.1261 20.3527 46.2665 20.269C46.394 20.1925 46.2715 19.346 45.6801 18.7988C45.0011 18.1694 44.2694 18.4575 43.8348 17.8041C43.6658 17.5499 43.5354 17.1448 43.6828 16.8312C43.8827 16.4075 44.4048 16.5546 44.6816 16.2043C45.1785 15.5749 44.0154 14.4396 44.3342 13.4792C44.4613 13.0964 44.8665 12.6162 46.1731 12.2949C46.1553 13.2568 46.0996 14.0607 46.044 14.6712C45.862 16.6677 45.5672 17.8578 46.2155 18.356C46.631 18.6748 47.0556 18.4181 47.6662 18.908C48.1738 19.3152 48.0901 19.6609 48.5291 19.8749C49.1911 20.1973 49.9134 19.6688 50.0749 19.9013C50.1934 20.0723 49.9299 20.5386 49.5685 20.8568C48.5988 21.7089 46.7489 21.641 45.5173 20.9366C45.128 20.7138 44.9724 20.5259 44.1314 20.0341C43.7724 19.8242 43.3441 19.5726 42.8789 19.3706C41.7508 18.8779 40.79 18.8302 40.297 18.7194C41.2746 18.0696 41.8708 18.0588 42.2488 18.2149Z" fill="url(#paint68_linear_2156_7725)"/>
<path d="M37.7543 18.8677L43.662 19.1534C43.7021 19.1553 43.7411 19.1669 43.7757 19.1872C43.8103 19.2074 43.8394 19.2357 43.8606 19.2696L44.024 19.5309C44.0424 19.5604 44.0524 19.5942 44.0529 19.6289C44.0535 19.6636 44.0445 19.6978 44.027 19.7278C44.0096 19.7578 43.9842 19.7825 43.9537 19.7992C43.9231 19.816 43.8886 19.8241 43.8538 19.8228L37.5961 19.5854L37.7543 18.8677Z" fill="url(#paint69_linear_2156_7725)"/>
<path d="M32.331 15.6171L38.4342 15.7349C38.523 15.7366 38.6098 15.7612 38.6861 15.8064C38.7624 15.8516 38.8256 15.9158 38.8694 15.9927L40.983 19.6957L34.5378 19.4401C34.4507 19.4366 34.3658 19.4116 34.2909 19.3673C34.2159 19.323 34.1533 19.2608 34.1085 19.1862L32.1503 15.9285C32.1313 15.897 32.1212 15.8611 32.1209 15.8244C32.1206 15.7877 32.1302 15.7516 32.1486 15.7198C32.167 15.6881 32.1937 15.6618 32.2257 15.6437C32.2578 15.6257 32.2942 15.6165 32.331 15.6171Z" fill="url(#paint70_linear_2156_7725)"/>
<path style="mix-blend-mode:multiply" opacity="0.3" d="M38.8696 15.9925C38.8257 15.9156 38.7625 15.8514 38.6862 15.8062C38.6098 15.761 38.523 15.7364 38.4342 15.7347L38.3005 15.7321C38.2806 15.9283 38.2202 16.1076 38.0997 16.2527C37.7232 16.7049 37.098 16.4261 36.632 16.9047C36.12 17.4306 36.5929 18.0567 36.1352 18.5461C35.6535 19.0612 34.8745 18.6419 33.9788 18.9716L34.1079 19.1861C34.1526 19.2606 34.2153 19.3228 34.2902 19.3671C34.3651 19.4114 34.45 19.4364 34.5371 19.4399L40.983 19.6955L38.8696 15.9925Z" fill="url(#paint71_linear_2156_7725)"/>
<path d="M42.6944 18.8704L42.4944 18.3452C43.2304 18.1443 44.2479 17.8474 45.2915 17.476C45.5495 17.3844 45.6446 17.2657 45.7128 17.1745C46.2479 16.4677 44.8861 15.221 44.9106 13.6032C44.9274 12.4824 45.6102 11.199 46.2126 11.1845C47.4354 11.1548 50.1316 16.3218 47.8608 18.5271C46.733 19.6218 44.6273 19.7488 42.6944 18.8704Z" fill="url(#paint72_linear_2156_7725)"/>
<path d="M42.4944 18.3455C42.0326 18.1011 41.4793 18.3517 41.444 18.3675C41.2952 18.4379 41.1603 18.5343 41.0457 18.6521C41.0287 18.674 40.8283 18.9514 40.9014 19.04C40.9598 19.1109 41.1865 19.0523 41.4588 18.8835C41.6203 18.8607 41.784 18.8568 41.9465 18.8716C42.3203 18.9059 42.4916 19.0235 42.6273 18.9219C42.7266 18.8477 42.7597 18.6905 42.7248 18.5738C42.6864 18.4492 42.5728 18.3868 42.4944 18.3455Z" fill="url(#paint73_linear_2156_7725)"/>
<path d="M23.5823 62.5247C23.2204 60.7446 23.3762 59.3124 23.5406 58.4481C23.7392 57.3994 24.1455 55.2679 25.8471 54.0797C25.981 53.9861 27.3122 53.0743 27.91 53.5272C28.2189 53.7608 28.2889 54.3247 28.154 54.77C27.8058 55.9193 26.2366 55.7916 25.7151 57.0994C25.5415 57.535 25.5092 58.0664 25.6304 58.1167C25.7793 58.1783 26.2041 57.5284 26.2452 57.4664C26.6243 56.8869 26.6278 56.5588 26.9167 56.4698C27.0933 56.4153 27.3283 56.4665 27.4329 56.6061C27.6712 56.9241 27.2005 57.6482 27.0688 57.8508C26.7247 58.3804 26.4372 58.5006 26.3672 58.9516C26.3372 59.1456 26.3425 59.4327 26.4581 59.4775C26.6146 59.5379 26.9132 59.1325 27.1047 58.872C27.6196 58.1725 27.6743 57.7658 27.9303 57.7365C28.169 57.7095 28.4378 58.0273 28.5073 58.22C28.696 58.7501 27.9378 59.8753 23.5823 62.5247Z" fill="url(#paint74_linear_2156_7725)"/>
<g style="mix-blend-mode:soft-light" opacity="0.28">
<path d="M23.6364 62.2188C23.5823 60.5638 23.8513 59.252 24.0949 58.3908C24.4081 57.2843 24.9973 55.2027 26.6501 54.3019C26.7675 54.2379 27.6317 53.767 27.8731 54.0193C28.0342 54.1874 27.8914 54.6489 27.6549 54.9544C27.2508 55.4759 26.7856 55.2691 26.126 55.7809C25.5342 56.2402 25.3263 56.8588 25.2742 57.0206C25.0813 57.6212 25.1815 58.1359 25.208 58.3255C25.3135 59.0461 25.101 60.2262 23.6364 62.2188Z" fill="white"/>
</g>
<g style="mix-blend-mode:soft-light" opacity="0.28">
<path d="M24.2265 61.8062C25.1533 60.9797 25.3676 60.3024 25.3839 59.8271C25.3967 59.4568 25.2956 59.0175 25.5805 58.6091C25.7624 58.3481 25.8994 58.3894 26.2139 58.109C26.8706 57.5215 26.952 56.73 27.0875 56.7605C27.1628 56.7774 27.2018 57.0372 27.1537 57.2824C27.0529 57.7879 26.6554 57.8417 26.2584 58.4568C25.9872 58.8773 25.893 59.2858 25.8433 59.5009C25.7224 60.0255 25.8047 60.2097 25.7343 60.5013C25.6421 60.8788 25.312 61.3667 24.2265 61.8062Z" fill="white"/>
</g>
<path d="M24.139 62.8119C25.7458 62.9035 26.2233 62.9996 26.9805 62.7427C27.6919 62.5009 28.4217 62.0256 28.3577 61.8074C28.3116 61.6509 27.8649 61.6535 27.5981 61.6535C26.8823 61.6568 26.292 61.8753 25.8769 62.0862C26.2344 61.8449 26.5917 61.6032 26.9489 61.361C27.3464 61.2217 27.7049 60.9899 27.9945 60.685C28.2286 60.4354 28.7668 59.7596 28.5643 59.435C28.3531 59.0959 27.3505 59.1643 26.7713 59.6453C26.4937 59.8761 26.4932 60.0528 26.1214 60.4558C25.8503 60.7481 25.5359 60.9974 25.189 61.1949C25.5148 60.7904 25.7793 60.3406 25.9742 59.8598C26.3434 58.9447 26.6221 57.4972 26.1525 57.2341C25.8411 57.0596 25.2237 57.4192 24.9147 57.8455C24.6643 58.1912 24.6888 58.481 24.5175 59.5915C24.4427 60.075 24.3692 60.4631 24.3215 60.7042C23.8438 59.6605 23.705 58.7823 23.6772 58.1369C23.6412 57.3075 23.7789 56.6577 23.4605 56.4847C23.1765 56.3309 22.6696 56.6313 22.4125 56.9135C21.3718 58.0551 22.7448 60.7343 22.89 61.0107C22.3586 60.611 21.8819 60.1438 21.4722 59.621C20.9271 58.9245 20.6969 58.4061 20.42 58.4525C20.143 58.4988 19.9628 59.083 19.9833 59.535C20.0411 60.7956 21.6942 61.536 21.8705 61.6122C21.6541 61.6476 21.4333 61.6451 21.2177 61.605C20.6014 61.4878 20.4092 61.1158 19.7833 60.9896C19.5444 60.9415 19.0551 60.8914 18.9951 61.0389C18.8867 61.3026 20.1219 62.2977 21.6211 62.6765C22.17 62.8169 22.0384 62.6921 24.139 62.8119Z" fill="url(#paint75_linear_2156_7725)"/>
<g style="mix-blend-mode:soft-light" opacity="0.28">
<path d="M25.1996 61.9002C25.931 61.5763 25.8316 61.1359 26.6318 60.5906C27.1442 60.2414 27.2634 60.3687 27.8124 60.0349C28.0876 59.8672 28.3398 59.6647 28.5627 59.4325C28.5639 59.4338 28.5649 59.4352 28.5658 59.4367C28.768 59.7613 28.2302 60.437 27.996 60.6867C27.7064 60.9916 27.348 61.2233 26.9505 61.3627C26.5931 61.6041 26.2358 61.8458 25.8784 62.0879C26.2929 61.8769 26.8832 61.6585 27.5997 61.6552C27.8323 61.6541 28.2015 61.6523 28.3229 61.7558C28.1495 61.865 27.9578 61.9424 27.757 61.9844C27.3982 62.0573 27.1729 61.9756 26.8624 62.1622C26.6135 62.3116 26.6342 62.4386 26.4149 62.5195C26.2086 62.5957 26.1031 62.5153 25.5938 62.4316C25.0983 62.3507 24.8466 62.3127 24.6464 62.438C24.495 62.5327 24.4147 62.6887 24.3703 62.8261L24.2128 62.8166C24.2566 62.6327 24.3429 62.4616 24.465 62.3169C24.6844 62.0604 24.9258 62.0213 25.1996 61.9002Z" fill="white"/>
</g>
<g style="mix-blend-mode:soft-light" opacity="0.28">
<path d="M23.1151 62.4598C22.9995 62.4321 22.9443 62.5145 22.7841 62.5351C22.486 62.5738 22.3741 62.3288 22.0234 62.2123C21.6086 62.0743 21.5033 62.3308 21.09 62.2033C20.7627 62.1022 20.8049 61.9343 20.3774 61.6891C19.9224 61.428 19.7297 61.5352 19.3954 61.3196C19.26 61.2312 19.1424 61.1184 19.0487 60.9869C19.1957 60.9076 19.5803 60.9498 19.7838 60.9909C20.4092 61.1172 20.6003 61.4893 21.2182 61.6062C21.4337 61.6464 21.6546 61.6488 21.8709 61.6135C21.6944 61.5372 20.0415 60.7968 19.9837 59.5363C19.9647 59.117 20.1197 58.5843 20.3622 58.4724C20.3378 58.7169 20.3283 58.9626 20.3337 59.2082C20.3441 59.6637 20.3523 59.8954 20.4968 60.0852C20.7479 60.4149 21.0538 60.2433 21.4711 60.5859C21.8509 60.8977 21.7187 61.1399 22.1148 61.4522C22.4568 61.7218 22.6594 61.6236 22.9812 61.8422C23.1831 61.9794 23.4283 62.2391 23.5754 62.7826C23.5084 62.7795 23.4442 62.7768 23.383 62.7745C23.3241 62.6204 23.2391 62.4894 23.1151 62.4598Z" fill="white"/>
</g>
<g style="mix-blend-mode:soft-light" opacity="0.28">
<path d="M23.4759 60.7422C23.2758 60.1992 22.9282 60.255 22.7832 59.7768C22.6383 59.2986 22.9545 59.1536 22.8742 58.4653C22.8139 57.9495 22.6184 57.8737 22.6054 57.5203C22.5957 57.2603 22.6877 56.9063 23.1129 56.4674C23.2418 56.4336 23.3636 56.4336 23.4598 56.4857C23.7783 56.6586 23.6406 57.3085 23.6765 58.1378C23.7043 58.7833 23.8431 59.6615 24.3209 60.7051C24.3686 60.4634 24.4421 60.0753 24.5169 59.5925C24.6892 58.482 24.6647 58.1921 24.9141 57.8464C25.223 57.4201 25.8409 57.0606 26.1519 57.2351C26.1697 57.2451 26.1865 57.2568 26.202 57.2702C26.0412 57.3782 25.8996 57.5118 25.7827 57.6658C25.3718 58.211 25.6061 58.6015 25.2332 59.6766C24.875 60.7108 24.5116 60.7754 24.2234 61.6681C24.1056 62.0365 24.0394 62.4194 24.0267 62.8058C23.9215 62.8001 23.8224 62.7948 23.7286 62.7902C23.6347 62.4863 23.5742 62.1731 23.5481 61.8562C23.502 61.2681 23.6112 61.109 23.4759 60.7422Z" fill="white"/>
</g>
<path d="M27.4885 2.66255C29.8056 2.73332 31.751 4.14199 32.1304 5.92514L32.1317 5.93217C32.1522 6.02975 32.1681 6.12864 32.1789 6.22819C32.1789 6.23478 32.1805 6.24138 32.1811 6.24797C32.186 6.29456 32.1897 6.34137 32.1924 6.3884L32.1937 6.41389C32.1959 6.46202 32.1975 6.51015 32.1975 6.55849C32.1975 8.63063 30.0737 10.201 27.4885 10.0679C27.4199 10.0641 27.3516 10.0592 27.2834 10.0534L27.2634 10.0518C27.1992 10.046 27.1353 10.0391 27.0716 10.0312L27.0418 10.0277C26.9803 10.0197 26.9192 10.0109 26.8584 10.0011L26.824 9.99557C26.7652 9.98575 26.7059 9.97499 26.6461 9.96326L26.6104 9.95601C26.5515 9.94385 26.4934 9.93103 26.4358 9.91755L26.4025 9.90942C26.3451 9.89536 26.2882 9.88085 26.2317 9.86547L26.2015 9.85668C26.1505 9.8424 26.1002 9.82745 26.0501 9.81163L26.0119 9.79998C25.9612 9.78357 25.9108 9.7665 25.861 9.74878L25.8283 9.73779C24.1099 9.12048 22.9017 7.73114 22.9017 6.17765C22.9021 4.15847 24.9408 2.58476 27.4885 2.66255Z" fill="url(#paint76_linear_2156_7725)"/>
<path d="M22.4116 6.17677C22.4116 8.19528 24.4502 9.93645 26.9981 10.0679C29.5834 10.201 31.7069 8.63063 31.7069 6.55849C31.7069 4.48636 29.5834 2.74167 26.9981 2.66255C24.4502 2.58476 22.4116 4.15847 22.4116 6.17677Z" fill="#00296B"/>
<g style="mix-blend-mode:multiply" opacity="0.3">
<path d="M25.8734 9.06953C26.4312 8.005 25.8674 6.95981 26.6221 6.2869C27.3921 5.5997 28.3977 6.30888 29.4865 5.76453C29.9093 5.55312 30.3805 5.13469 30.7315 4.24817C31.3428 4.9002 31.7069 5.70233 31.7069 6.55831C31.7069 8.63044 29.5834 10.2009 26.9981 10.0677C26.4315 10.0395 25.872 9.92843 25.3378 9.73804C25.5572 9.55102 25.739 9.32416 25.8734 9.06953Z" fill="url(#paint77_linear_2156_7725)"/>
</g>
<path d="M24.6667 5.36126C24.4679 5.36126 24.3142 5.43788 24.2055 5.59113C24.0968 5.74437 24.0425 5.95872 24.0428 6.23415C24.0428 6.80714 24.2508 7.09701 24.6667 7.10375C24.8422 7.10668 25.0555 7.06463 25.3067 6.9776V7.4391C25.0876 7.52591 24.8529 7.56655 24.6173 7.55844C24.2554 7.55126 23.9795 7.43266 23.7897 7.20264C23.5999 6.97262 23.5052 6.64694 23.5055 6.22558C23.5055 5.95967 23.552 5.72687 23.645 5.52718C23.7292 5.33645 23.8695 5.17558 24.0473 5.06568C24.2228 4.95872 24.4292 4.90518 24.6667 4.90503C24.9096 4.90503 25.1545 4.96598 25.4015 5.08787L25.229 5.53421C25.1368 5.48856 25.0422 5.44799 24.9456 5.41268C24.8563 5.37956 24.762 5.36216 24.6667 5.36126Z" fill="white"/>
<path d="M27.5436 6.84801C27.5436 7.08623 27.4592 7.27222 27.2903 7.40598C27.1214 7.53975 26.8879 7.60355 26.5899 7.5974C26.3165 7.59197 26.0754 7.53491 25.8665 7.4262V6.91328C26.0072 6.98227 26.1533 7.04003 26.3032 7.08601C26.4101 7.11809 26.5207 7.13612 26.6322 7.13963C26.7518 7.14154 26.8437 7.11956 26.9079 7.0737C26.972 7.02785 27.0041 6.95891 27.0041 6.86691C27.0047 6.81763 26.9899 6.76939 26.9617 6.7289C26.9275 6.68277 26.8854 6.64303 26.8372 6.61154C26.7299 6.5446 26.6186 6.48406 26.504 6.43024C26.3473 6.35332 26.2296 6.28007 26.1509 6.21048C26.0741 6.14229 26.0108 6.06028 25.9645 5.96874C25.9163 5.86857 25.8924 5.7585 25.895 5.64745C25.895 5.41714 25.9713 5.23613 26.124 5.10442C26.2767 4.97271 26.4892 4.90678 26.7613 4.90663C26.891 4.90605 27.0201 4.92231 27.1455 4.95498C27.277 4.99076 27.4056 5.03668 27.5299 5.09233L27.3532 5.52504C27.2419 5.47647 27.1273 5.43579 27.0102 5.40329C26.9238 5.38075 26.8348 5.36894 26.7454 5.36813C26.6425 5.36813 26.5634 5.39238 26.5082 5.44087C26.4657 5.48111 26.4378 5.53429 26.4288 5.59204C26.4199 5.6498 26.4305 5.70887 26.459 5.75997C26.4869 5.80214 26.523 5.83832 26.5651 5.86633C26.6137 5.90062 26.729 5.96273 26.9112 6.05269C27.1529 6.17224 27.3188 6.29164 27.409 6.4109C27.4992 6.53016 27.5441 6.67586 27.5436 6.84801Z" fill="white"/>
<path d="M29.7711 6.88015C29.7711 7.12189 29.6839 7.31088 29.5094 7.44713C29.3349 7.58338 29.0939 7.64807 28.7862 7.64118C28.5038 7.63576 28.2548 7.57774 28.0393 7.46713V6.94586C28.1847 7.01619 28.3356 7.07497 28.4903 7.12167C28.6007 7.1543 28.7149 7.17269 28.8299 7.17639C28.9535 7.17844 29.0484 7.15646 29.1146 7.11046C29.1808 7.06445 29.2139 6.99442 29.2139 6.90036C29.2145 6.85016 29.199 6.80107 29.1698 6.76016C29.1343 6.71314 29.0907 6.67275 29.0411 6.64083C28.9849 6.60259 28.8699 6.54105 28.6971 6.45645C28.5353 6.37836 28.4142 6.30386 28.3339 6.23295C28.2546 6.16368 28.1892 6.08009 28.1412 5.98659C28.0914 5.88501 28.0668 5.77304 28.0693 5.66003C28.0693 5.42562 28.1481 5.24175 28.3058 5.10843C28.4635 4.9751 28.6829 4.908 28.9639 4.90712C29.0979 4.90645 29.2314 4.923 29.3611 4.95635C29.4969 4.9927 29.6297 5.03935 29.7583 5.0959L29.5745 5.53652C29.4599 5.48707 29.3419 5.44573 29.2214 5.4128C29.1319 5.38977 29.0398 5.37774 28.9473 5.37698C28.8405 5.37698 28.7588 5.40159 28.7022 5.45081C28.6581 5.49121 28.6291 5.54527 28.6199 5.60418C28.6107 5.66308 28.6218 5.72336 28.6514 5.77518C28.6805 5.81822 28.718 5.85492 28.7618 5.88309C28.8118 5.91796 28.9309 5.98117 29.119 6.07274C29.3691 6.1942 29.5405 6.3155 29.6332 6.43667C29.7259 6.55783 29.7719 6.70566 29.7711 6.88015Z" fill="white"/>
<path d="M17.351 8.64006C19.929 8.71873 22.094 10.2861 22.5149 12.2703C22.5149 12.2727 22.5149 12.2754 22.5164 12.278C22.5391 12.3866 22.5566 12.4964 22.5689 12.6076C22.5689 12.6149 22.5707 12.6221 22.5714 12.6296C22.5767 12.6815 22.5808 12.7336 22.5839 12.7859L22.5853 12.8142C22.5877 12.8676 22.5895 12.9212 22.5895 12.9751C22.5895 15.2808 20.2265 17.0281 17.3499 16.8798C17.2734 16.8759 17.1975 16.8704 17.1218 16.8638L17.0997 16.862C17.0282 16.8556 16.9569 16.8477 16.8863 16.84L16.8532 16.8361C16.7846 16.8273 16.7166 16.8174 16.6489 16.8066L16.6107 16.8003C16.5445 16.7893 16.4783 16.7783 16.4121 16.7644L16.3723 16.7563C16.3061 16.7429 16.2424 16.7288 16.1782 16.7123L16.1409 16.7033C16.0771 16.6877 16.0135 16.6715 15.9509 16.6541L15.9171 16.6447C15.8606 16.6286 15.8043 16.6119 15.7487 16.5943L15.7063 16.5814C15.6496 16.5631 15.5938 16.544 15.5382 16.5245C15.5263 16.5203 15.5139 16.5165 15.502 16.5121C13.5898 15.8254 12.2455 14.2794 12.2455 12.5507C12.2477 10.3045 14.516 8.55325 17.351 8.64006Z" fill="url(#paint78_linear_2156_7725)"/>
<path d="M11.702 12.5503C11.702 14.796 13.9703 16.7334 16.8053 16.8796C19.6818 17.0279 22.0448 15.2806 22.0448 12.9749C22.0448 10.6691 19.6818 8.72796 16.8053 8.64006C13.9707 8.55325 11.702 10.3045 11.702 12.5503Z" fill="#00296B"/>
<g style="mix-blend-mode:multiply" opacity="0.3">
<path d="M15.5539 15.7691C16.1746 14.5846 15.547 13.4223 16.3869 12.6729C17.2438 11.9082 18.3626 12.6973 19.5741 12.0917C20.0444 11.8565 20.5687 11.3908 20.9593 10.4045C21.6397 11.1298 22.0448 12.0224 22.0448 12.9758C22.0448 15.2815 19.6818 17.0288 16.8053 16.8805C16.1748 16.8489 15.5524 16.7251 14.958 16.513C15.2022 16.3049 15.4044 16.0525 15.5539 15.7691Z" fill="url(#paint79_linear_2156_7725)"/>
</g>
<path d="M15.092 13.9351L13.0271 12.9347V12.6253L15.092 11.5594V12.0889L13.6618 12.7668L15.0927 13.4079L15.092 13.9351Z" fill="white"/>
<path d="M17.3116 11.1576L16.1219 14.4125L15.5261 14.3949L16.7027 11.1576H17.3116Z" fill="white"/>
<path d="M17.7556 13.462L19.2977 12.8502L17.7556 12.111V11.5684L20.0085 12.7199V13.0496L17.7556 14.0018V13.462Z" fill="white"/>
<path d="M26.6309 16.4869C28.948 16.5577 30.8935 17.9663 31.2726 19.7495C31.2726 19.7519 31.2726 19.7541 31.2741 19.7565C31.2947 19.8541 31.3105 19.9528 31.3214 20.0525C31.3214 20.0591 31.3229 20.0657 31.3236 20.0723C31.3284 20.1189 31.3322 20.1656 31.3348 20.2125C31.3348 20.2211 31.3348 20.2297 31.3359 20.2382C31.3384 20.2862 31.3399 20.3343 31.3399 20.3828C31.3399 22.455 29.2161 24.0254 26.6309 23.892C26.5622 23.8885 26.4939 23.8837 26.4259 23.8777L26.4058 23.876C26.3416 23.8703 26.2776 23.8632 26.214 23.8555L26.1843 23.8518C26.1227 23.8441 26.0616 23.8351 26.0007 23.8254L25.9664 23.8199C25.9066 23.8098 25.8475 23.7979 25.7886 23.7874L25.7528 23.7801C25.694 23.7683 25.6358 23.7555 25.5783 23.7419L25.545 23.7336C25.4876 23.7197 25.4304 23.705 25.3739 23.6896L25.3437 23.681C25.2929 23.6668 25.2424 23.6516 25.1925 23.636C25.1797 23.632 25.1669 23.6283 25.1544 23.6241C25.1036 23.6079 25.0533 23.5907 25.0032 23.5731L24.9708 23.5621C23.2521 22.9448 22.0439 21.5555 22.0439 20.002C22.0444 17.9828 24.083 16.4089 26.6309 16.4869Z" fill="url(#paint80_linear_2156_7725)"/>
<path d="M21.5538 20.0012C21.5538 22.0195 23.5927 23.7609 26.1404 23.891C28.7256 24.0243 30.8494 22.4539 30.8494 20.3818C30.8494 18.3097 28.7256 16.5648 26.1404 16.4859C23.5922 16.4089 21.5538 17.9829 21.5538 20.0012Z" fill="#002368"/>
<g style="mix-blend-mode:multiply" opacity="0.3">
<path d="M25.0158 22.8936C25.5737 21.8291 25.0096 20.7839 25.7643 20.111C26.5345 19.4236 27.5401 20.1329 28.6289 19.5884C29.0515 19.3772 29.5229 18.9588 29.8738 18.072C30.4853 18.7238 30.8494 19.5262 30.8494 20.3822C30.8494 22.4543 28.7256 24.0247 26.1404 23.8913C25.5738 23.863 25.0144 23.7519 24.4802 23.5617C24.6996 23.3747 24.8813 23.148 25.0158 22.8936Z" fill="url(#paint81_linear_2156_7725)"/>
</g>
<path d="M23.9259 19.3186C23.744 19.3201 23.6043 19.3999 23.5066 19.5568C23.4088 19.7137 23.3605 19.9304 23.3605 20.2077C23.3605 20.7864 23.547 21.0837 23.9263 21.1C24.0881 21.1068 24.286 21.0685 24.5221 20.9839V21.4615C24.3195 21.5438 24.1005 21.5786 23.8822 21.563C23.5527 21.5443 23.3049 21.4162 23.1354 21.1797C22.9659 20.9433 22.8845 20.6185 22.8845 20.1961C22.8845 19.93 22.9254 19.6968 23.0072 19.4964C23.089 19.2959 23.2084 19.1398 23.3653 19.028C23.5233 18.9164 23.7107 18.8578 23.9274 18.8522C24.1516 18.8472 24.3798 18.9048 24.6115 19.0265L24.4491 19.4909C24.3633 19.4449 24.2749 19.404 24.1843 19.3682C24.1021 19.3353 24.0144 19.3184 23.9259 19.3186Z" fill="white"/>
<path d="M25.7028 20.4665L25.0438 20.4513V20.0432L25.7028 20.0509V19.3108L26.0865 19.3073V20.0544L26.7852 20.0626V20.4913L26.0865 20.4751V21.2135L25.7028 21.197V20.4665Z" fill="white"/>
<path d="M28.051 20.5204L27.3044 20.503V20.069L28.051 20.0778V19.2893L28.4866 19.2855V20.0828L29.281 20.092V20.5489L28.4866 20.5305V21.3174L28.051 21.2985V20.5204Z" fill="white"/>
<path d="M15.7428 32.99C15.2917 32.4274 15.0317 31.7668 15.0317 31.0603C15.0317 29.0055 17.2288 27.3397 19.9387 27.3397C22.6486 27.3397 24.8456 29.0055 24.8456 31.0603C24.8456 33.1151 22.6488 34.7806 19.9387 34.7806C18.9236 34.7806 17.9795 34.5466 17.1966 34.146C16.6791 34.2339 15.8758 34.3816 15.4519 34.4602C15.4235 34.4655 15.3942 34.4631 15.367 34.4533C15.3398 34.4436 15.3157 34.4268 15.2972 34.4048C15.2786 34.3827 15.2663 34.3561 15.2615 34.3278C15.2566 34.2994 15.2595 34.2702 15.2696 34.2433L15.7428 32.99Z" fill="url(#paint82_linear_2156_7725)"/>
<g style="mix-blend-mode:multiply" opacity="0.2">
<path d="M17.2535 31.8477C18.3538 31.3862 19.5638 32.3593 20.3209 31.6811C21.0833 30.9974 20.2596 29.6459 20.99 28.6826C21.3382 28.2233 21.9232 28.006 22.5925 27.9302C23.9484 28.5921 24.8463 29.7467 24.8463 31.0605C24.8463 33.1152 22.6495 34.7808 19.9394 34.7808C18.9242 34.7808 17.9802 34.5468 17.1972 34.1461C16.789 34.2156 16.2029 34.322 15.7655 34.4026C16.0875 32.7366 16.6809 32.0874 17.2535 31.8477Z" fill="url(#paint83_linear_2156_7725)"/>
</g>
<path d="M22.937 29.6814H16.8552C16.7545 29.6814 16.6729 29.7627 16.6729 29.8629V29.8913C16.6729 29.9915 16.7545 30.0728 16.8552 30.0728H22.937C23.0377 30.0728 23.1193 29.9915 23.1193 29.8913V29.8629C23.1193 29.7627 23.0377 29.6814 22.937 29.6814Z" fill="white"/>
<path d="M22.937 30.7775H16.8552C16.7545 30.7775 16.6729 30.8587 16.6729 30.959V30.9873C16.6729 31.0876 16.7545 31.1688 16.8552 31.1688H22.937C23.0377 31.1688 23.1193 31.0876 23.1193 30.9873V30.959C23.1193 30.8587 23.0377 30.7775 22.937 30.7775Z" fill="white"/>
<path d="M19.8659 31.8734H16.8605C16.7569 31.8734 16.6729 31.957 16.6729 32.0602V32.078C16.6729 32.1812 16.7569 32.2648 16.8605 32.2648H19.8659C19.9695 32.2648 20.0534 32.1812 20.0534 32.078V32.0602C20.0534 31.957 19.9695 31.8734 19.8659 31.8734Z" fill="white"/>
<defs>
<linearGradient id="paint0_linear_2156_7725" x1="32.9122" y1="70.8832" x2="33.0611" y2="58.1862" gradientUnits="userSpaceOnUse">
<stop offset="0.49" stop-color="#EBEFF2"/>
<stop offset="1" stop-color="white"/>
</linearGradient>
<linearGradient id="paint1_linear_2156_7725" x1="26.6076" y1="29.9071" x2="51.1442" y2="75.0973" gradientUnits="userSpaceOnUse">
<stop stop-color="#444B8C"/>
<stop offset="1" stop-color="#26264F"/>
</linearGradient>
<linearGradient id="paint2_linear_2156_7725" x1="30.2882" y1="16.6977" x2="34.6852" y2="43.6105" gradientUnits="userSpaceOnUse">
<stop stop-color="#E38DDD"/>
<stop offset="1" stop-color="#9571F6"/>
</linearGradient>
<linearGradient id="paint3_linear_2156_7725" x1="27.9821" y1="24.5387" x2="38.3762" y2="24.5387" gradientUnits="userSpaceOnUse">
<stop stop-color="#FF9085"/>
<stop offset="1" stop-color="#FB6FBB"/>
</linearGradient>
<linearGradient id="paint4_linear_2156_7725" x1="27.9821" y1="25.5576" x2="38.3762" y2="25.5576" gradientUnits="userSpaceOnUse">
<stop stop-color="#FF9085"/>
<stop offset="1" stop-color="#FB6FBB"/>
</linearGradient>
<linearGradient id="paint5_linear_2156_7725" x1="26.1563" y1="28.5704" x2="33.5412" y2="28.5704" gradientUnits="userSpaceOnUse">
<stop stop-color="#FF9085"/>
<stop offset="1" stop-color="#FB6FBB"/>
</linearGradient>
<linearGradient id="paint6_linear_2156_7725" x1="30.3827" y1="16.714" x2="34.4058" y2="41.3388" gradientUnits="userSpaceOnUse">
<stop stop-color="#E38DDD"/>
<stop offset="1" stop-color="#9571F6"/>
</linearGradient>
<linearGradient id="paint7_linear_2156_7725" x1="23.7412" y1="22.3227" x2="31.1215" y2="22.3227" gradientUnits="userSpaceOnUse">
<stop stop-color="#FF9085"/>
<stop offset="1" stop-color="#FB6FBB"/>
</linearGradient>
<linearGradient id="paint8_linear_2156_7725" x1="27.9821" y1="44.9332" x2="38.3762" y2="44.9332" gradientUnits="userSpaceOnUse">
<stop stop-color="#FF9085"/>
<stop offset="1" stop-color="#FB6FBB"/>
</linearGradient>
<linearGradient id="paint9_linear_2156_7725" x1="27.9821" y1="45.9519" x2="38.3762" y2="45.9519" gradientUnits="userSpaceOnUse">
<stop stop-color="#FF9085"/>
<stop offset="1" stop-color="#FB6FBB"/>
</linearGradient>
<linearGradient id="paint10_linear_2156_7725" x1="32.7304" y1="46.7961" x2="42.8552" y2="46.7961" gradientUnits="userSpaceOnUse">
<stop stop-color="#FF9085"/>
<stop offset="1" stop-color="#FB6FBB"/>
</linearGradient>
<linearGradient id="paint11_linear_2156_7725" x1="33.5343" y1="21.9532" x2="36.6768" y2="41.1877" gradientUnits="userSpaceOnUse">
<stop stop-color="#E38DDD"/>
<stop offset="1" stop-color="#9571F6"/>
</linearGradient>
<linearGradient id="paint12_linear_2156_7725" x1="23.7412" y1="43.0448" x2="31.1215" y2="43.0448" gradientUnits="userSpaceOnUse">
<stop stop-color="#FF9085"/>
<stop offset="1" stop-color="#FB6FBB"/>
</linearGradient>
<linearGradient id="paint13_linear_2156_7725" x1="26.1563" y1="32.6878" x2="36.6547" y2="32.6878" gradientUnits="userSpaceOnUse">
<stop stop-color="#FF9085"/>
<stop offset="1" stop-color="#FB6FBB"/>
</linearGradient>
<linearGradient id="paint14_linear_2156_7725" x1="27.9821" y1="34.7409" x2="38.3762" y2="34.7409" gradientUnits="userSpaceOnUse">
<stop stop-color="#FF9085"/>
<stop offset="1" stop-color="#FB6FBB"/>
</linearGradient>
<linearGradient id="paint15_linear_2156_7725" x1="27.9821" y1="35.7605" x2="38.3762" y2="35.7605" gradientUnits="userSpaceOnUse">
<stop stop-color="#FF9085"/>
<stop offset="1" stop-color="#FB6FBB"/>
</linearGradient>
<linearGradient id="paint16_linear_2156_7725" x1="23.7595" y1="36.833" x2="30.4204" y2="36.833" gradientUnits="userSpaceOnUse">
<stop stop-color="#FF9085"/>
<stop offset="1" stop-color="#FB6FBB"/>
</linearGradient>
<linearGradient id="paint17_linear_2156_7725" x1="29.3058" y1="18.3439" x2="32.9581" y2="40.6972" gradientUnits="userSpaceOnUse">
<stop stop-color="#E38DDD"/>
<stop offset="1" stop-color="#9571F6"/>
</linearGradient>
<linearGradient id="paint18_linear_2156_7725" x1="27.9821" y1="39.8455" x2="37.3779" y2="39.8455" gradientUnits="userSpaceOnUse">
<stop stop-color="#FF9085"/>
<stop offset="1" stop-color="#FB6FBB"/>
</linearGradient>
<linearGradient id="paint19_linear_2156_7725" x1="30.178" y1="40.8219" x2="39.4608" y2="40.8219" gradientUnits="userSpaceOnUse">
<stop stop-color="#FF9085"/>
<stop offset="1" stop-color="#FB6FBB"/>
</linearGradient>
<linearGradient id="paint20_linear_2156_7725" x1="30.178" y1="41.8359" x2="39.4608" y2="41.8359" gradientUnits="userSpaceOnUse">
<stop stop-color="#FF9085"/>
<stop offset="1" stop-color="#FB6FBB"/>
</linearGradient>
<linearGradient id="paint21_linear_2156_7725" x1="25.0802" y1="17.3812" x2="29.1277" y2="42.1529" gradientUnits="userSpaceOnUse">
<stop stop-color="#E38DDD"/>
<stop offset="1" stop-color="#9571F6"/>
</linearGradient>
<linearGradient id="paint22_linear_2156_7725" x1="63.2263" y1="7.27162" x2="52.1641" y2="25.8668" gradientUnits="userSpaceOnUse">
<stop stop-color="#AA80F9"/>
<stop offset="1" stop-color="#6165D7"/>
</linearGradient>
<linearGradient id="paint23_linear_2156_7725" x1="52.9575" y1="29.5243" x2="53.9496" y2="20.8545" gradientUnits="userSpaceOnUse">
<stop stop-color="#AA80F9"/>
<stop offset="1" stop-color="#6165D7"/>
</linearGradient>
<linearGradient id="paint24_linear_2156_7725" x1="59.6385" y1="13.693" x2="54.0633" y2="22.9035" gradientUnits="userSpaceOnUse">
<stop stop-color="#AA80F9"/>
<stop offset="1" stop-color="#6165D7"/>
</linearGradient>
<linearGradient id="paint25_linear_2156_7725" x1="61.701" y1="11.4725" x2="48.2767" y2="31.1389" gradientUnits="userSpaceOnUse">
<stop stop-color="#AA80F9"/>
<stop offset="1" stop-color="#6165D7"/>
</linearGradient>
<linearGradient id="paint26_linear_2156_7725" x1="57.9936" y1="32.2491" x2="58.5543" y2="19.4036" gradientUnits="userSpaceOnUse">
<stop stop-color="#FFC444"/>
<stop offset="1" stop-color="#F36F56"/>
</linearGradient>
<linearGradient id="paint27_linear_2156_7725" x1="58.3876" y1="38.1011" x2="59.8679" y2="30.5498" gradientUnits="userSpaceOnUse">
<stop stop-color="#FFC444"/>
<stop offset="1" stop-color="#F36F56"/>
</linearGradient>
<linearGradient id="paint28_linear_2156_7725" x1="49.3168" y1="32.5736" x2="55.4604" y2="62.1517" gradientUnits="userSpaceOnUse">
<stop stop-color="#FF9085"/>
<stop offset="1" stop-color="#FB6FBB"/>
</linearGradient>
<linearGradient id="paint29_linear_2156_7725" x1="52.6057" y1="63.566" x2="54.4603" y2="63.6219" gradientUnits="userSpaceOnUse">
<stop stop-color="#311944"/>
<stop offset="1" stop-color="#893976"/>
</linearGradient>
<linearGradient id="paint30_linear_2156_7725" x1="46.244" y1="62.7375" x2="48.1344" y2="63.2714" gradientUnits="userSpaceOnUse">
<stop stop-color="#311944"/>
<stop offset="1" stop-color="#893976"/>
</linearGradient>
<linearGradient id="paint31_linear_2156_7725" x1="47.3165" y1="59.8404" x2="52.5357" y2="48.0264" gradientUnits="userSpaceOnUse">
<stop stop-color="#311944"/>
<stop offset="1" stop-color="#893976"/>
</linearGradient>
<linearGradient id="paint32_linear_2156_7725" x1="50.2032" y1="60.3358" x2="56.787" y2="49.2601" gradientUnits="userSpaceOnUse">
<stop stop-color="#311944"/>
<stop offset="1" stop-color="#893976"/>
</linearGradient>
<linearGradient id="paint33_linear_2156_7725" x1="51.4609" y1="32.1281" x2="57.6047" y2="61.7061" gradientUnits="userSpaceOnUse">
<stop stop-color="#FF9085"/>
<stop offset="1" stop-color="#FB6FBB"/>
</linearGradient>
<linearGradient id="paint34_linear_2156_7725" x1="56.7867" y1="57.4153" x2="54.4551" y2="46.2939" gradientUnits="userSpaceOnUse">
<stop stop-color="#FF9085"/>
<stop offset="1" stop-color="#FB6FBB"/>
</linearGradient>
<linearGradient id="paint35_linear_2156_7725" x1="55.7032" y1="31.2469" x2="61.847" y2="60.825" gradientUnits="userSpaceOnUse">
<stop stop-color="#FF9085"/>
<stop offset="1" stop-color="#FB6FBB"/>
</linearGradient>
<linearGradient id="paint36_linear_2156_7725" x1="50.4236" y1="47.7545" x2="51.4183" y2="44.9244" gradientUnits="userSpaceOnUse">
<stop stop-color="#E38DDD"/>
<stop offset="1" stop-color="#9571F6"/>
</linearGradient>
<linearGradient id="paint37_linear_2156_7725" x1="54.8013" y1="43.6582" x2="54.4369" y2="46.1868" gradientUnits="userSpaceOnUse">
<stop stop-color="#E38DDD"/>
<stop offset="1" stop-color="#9571F6"/>
</linearGradient>
<linearGradient id="paint38_linear_2156_7725" x1="47.5208" y1="43.8795" x2="49.4638" y2="41.1093" gradientUnits="userSpaceOnUse">
<stop stop-color="#E38DDD"/>
<stop offset="1" stop-color="#9571F6"/>
</linearGradient>
<linearGradient id="paint39_linear_2156_7725" x1="51.2685" y1="48.4516" x2="47.0214" y2="39.7889" gradientUnits="userSpaceOnUse">
<stop stop-color="#E38DDD"/>
<stop offset="1" stop-color="#9571F6"/>
</linearGradient>
<linearGradient id="paint40_linear_2156_7725" x1="53.357" y1="42.9009" x2="43.9642" y2="42.9009" gradientUnits="userSpaceOnUse">
<stop stop-color="#E38DDD"/>
<stop offset="1" stop-color="#9571F6"/>
</linearGradient>
<linearGradient id="paint41_linear_2156_7725" x1="55.0275" y1="36.5445" x2="53.6482" y2="32.9882" gradientUnits="userSpaceOnUse">
<stop stop-color="#311944"/>
<stop offset="1" stop-color="#6B3976"/>
</linearGradient>
<linearGradient id="paint42_linear_2156_7725" x1="54.5985" y1="36.7128" x2="53.2176" y2="33.1527" gradientUnits="userSpaceOnUse">
<stop stop-color="#311944"/>
<stop offset="1" stop-color="#6B3976"/>
</linearGradient>
<linearGradient id="paint43_linear_2156_7725" x1="10.9974" y1="44.6033" x2="9.07293" y2="36.8738" gradientUnits="userSpaceOnUse">
<stop stop-color="#6165D7"/>
<stop offset="1" stop-color="#AA80F9"/>
</linearGradient>
<linearGradient id="paint44_linear_2156_7725" x1="9.15162" y1="62.4856" x2="8.12888" y2="63.1679" gradientUnits="userSpaceOnUse">
<stop stop-color="#444B8C"/>
<stop offset="1" stop-color="#26264F"/>
</linearGradient>
<linearGradient id="paint45_linear_2156_7725" x1="8.15527" y1="63.1708" x2="8.37783" y2="61.5904" gradientUnits="userSpaceOnUse">
<stop stop-color="#FFC444"/>
<stop offset="1" stop-color="#F36F56"/>
</linearGradient>
<linearGradient id="paint46_linear_2156_7725" x1="9.07467" y1="62.3705" x2="8.05193" y2="63.0529" gradientUnits="userSpaceOnUse">
<stop stop-color="#444B8C"/>
<stop offset="1" stop-color="#26264F"/>
</linearGradient>
<linearGradient id="paint47_linear_2156_7725" x1="15.6573" y1="63.0069" x2="14.7407" y2="63.8256" gradientUnits="userSpaceOnUse">
<stop stop-color="#444B8C"/>
<stop offset="1" stop-color="#26264F"/>
</linearGradient>
<linearGradient id="paint48_linear_2156_7725" x1="14.7711" y1="63.8236" x2="14.7711" y2="62.2274" gradientUnits="userSpaceOnUse">
<stop stop-color="#FFC444"/>
<stop offset="1" stop-color="#F36F56"/>
</linearGradient>
<linearGradient id="paint49_linear_2156_7725" x1="14.8468" y1="64.5554" x2="8.89409" y2="40.4219" gradientUnits="userSpaceOnUse">
<stop stop-color="#444B8C"/>
<stop offset="1" stop-color="#26264F"/>
</linearGradient>
<linearGradient id="paint50_linear_2156_7725" x1="19.7163" y1="46.5723" x2="4.58724" y2="36.0068" gradientUnits="userSpaceOnUse">
<stop stop-color="#6165D7"/>
<stop offset="1" stop-color="#AA80F9"/>
</linearGradient>
<linearGradient id="paint51_linear_2156_7725" x1="15.5649" y1="62.9033" x2="14.6481" y2="63.722" gradientUnits="userSpaceOnUse">
<stop stop-color="#444B8C"/>
<stop offset="1" stop-color="#26264F"/>
</linearGradient>
<linearGradient id="paint52_linear_2156_7725" x1="14.6065" y1="33.8828" x2="10.0884" y2="40.49" gradientUnits="userSpaceOnUse">
<stop stop-color="#FFC444"/>
<stop offset="1" stop-color="#F36F56"/>
</linearGradient>
<linearGradient id="paint53_linear_2156_7725" x1="14.3845" y1="33.7311" x2="9.8666" y2="40.3381" gradientUnits="userSpaceOnUse">
<stop stop-color="#FFC444"/>
<stop offset="1" stop-color="#F36F56"/>
</linearGradient>
<linearGradient id="paint54_linear_2156_7725" x1="9.20345" y1="42.9376" x2="10.1195" y2="42.9376" gradientUnits="userSpaceOnUse">
<stop stop-color="#6165D7"/>
<stop offset="1" stop-color="#AA80F9"/>
</linearGradient>
<linearGradient id="paint55_linear_2156_7725" x1="9.86064" y1="44.354" x2="16.7645" y2="44.354" gradientUnits="userSpaceOnUse">
<stop stop-color="#6165D7"/>
<stop offset="1" stop-color="#AA80F9"/>
</linearGradient>
<linearGradient id="paint56_linear_2156_7725" x1="22.0954" y1="39.7115" x2="23.465" y2="41.4417" gradientUnits="userSpaceOnUse">
<stop stop-color="#FFC444"/>
<stop offset="1" stop-color="#F36F56"/>
</linearGradient>
<linearGradient id="paint57_linear_2156_7725" x1="6.88308" y1="47.4085" x2="21.3415" y2="37.3113" gradientUnits="userSpaceOnUse">
<stop stop-color="#6165D7"/>
<stop offset="1" stop-color="#AA80F9"/>
</linearGradient>
<linearGradient id="paint58_linear_2156_7725" x1="37.8426" y1="15.2908" x2="41.6442" y2="15.2908" gradientUnits="userSpaceOnUse">
<stop stop-color="#FFC444"/>
<stop offset="1" stop-color="#F36F56"/>
</linearGradient>
<linearGradient id="paint59_linear_2156_7725" x1="31.296" y1="22.3991" x2="38.6679" y2="22.3991" gradientUnits="userSpaceOnUse">
<stop stop-color="#AA80F9"/>
<stop offset="1" stop-color="#6165D7"/>
</linearGradient>
<linearGradient id="paint60_linear_2156_7725" x1="37.2239" y1="30.3954" x2="38.5707" y2="35.9733" gradientUnits="userSpaceOnUse">
<stop stop-color="#E38DDD"/>
<stop offset="1" stop-color="#9571F6"/>
</linearGradient>
<linearGradient id="paint61_linear_2156_7725" x1="34.7613" y1="22.6749" x2="42.1332" y2="22.6749" gradientUnits="userSpaceOnUse">
<stop stop-color="#AA80F9"/>
<stop offset="1" stop-color="#6165D7"/>
</linearGradient>
<linearGradient id="paint62_linear_2156_7725" x1="38.035" y1="32.2638" x2="38.5143" y2="32.2638" gradientUnits="userSpaceOnUse">
<stop stop-color="#311944"/>
<stop offset="1" stop-color="#A03976"/>
</linearGradient>
<linearGradient id="paint63_linear_2156_7725" x1="35.2324" y1="17.8407" x2="41.8094" y2="25.8655" gradientUnits="userSpaceOnUse">
<stop stop-color="#AA80F9"/>
<stop offset="1" stop-color="#6165D7"/>
</linearGradient>
<linearGradient id="paint64_linear_2156_7725" x1="53.6736" y1="6.83298" x2="45.3481" y2="14.5916" gradientUnits="userSpaceOnUse">
<stop stop-color="#444B8C"/>
<stop offset="1" stop-color="#26264F"/>
</linearGradient>
<linearGradient id="paint65_linear_2156_7725" x1="46.6262" y1="18.078" x2="39.5532" y2="11.6921" gradientUnits="userSpaceOnUse">
<stop stop-color="#FFC444"/>
<stop offset="1" stop-color="#F36F56"/>
</linearGradient>
<linearGradient id="paint66_linear_2156_7725" x1="42.0879" y1="10.7811" x2="44.5908" y2="10.7811" gradientUnits="userSpaceOnUse">
<stop stop-color="#311944"/>
<stop offset="1" stop-color="#A03976"/>
</linearGradient>
<linearGradient id="paint67_linear_2156_7725" x1="42.4049" y1="17.242" x2="42.3512" y2="12.3226" gradientUnits="userSpaceOnUse">
<stop stop-color="#311944"/>
<stop offset="1" stop-color="#A03976"/>
</linearGradient>
<linearGradient id="paint68_linear_2156_7725" x1="46.3929" y1="18.3362" x2="39.3197" y2="11.9504" gradientUnits="userSpaceOnUse">
<stop stop-color="#FFC444"/>
<stop offset="1" stop-color="#F36F56"/>
</linearGradient>
<linearGradient id="paint69_linear_2156_7725" x1="44.0533" y1="19.3454" x2="37.5961" y2="19.3454" gradientUnits="userSpaceOnUse">
<stop stop-color="#E38DDD"/>
<stop offset="1" stop-color="#9571F6"/>
</linearGradient>
<linearGradient id="paint70_linear_2156_7725" x1="40.983" y1="17.6565" x2="32.12" y2="17.6565" gradientUnits="userSpaceOnUse">
<stop stop-color="#E38DDD"/>
<stop offset="1" stop-color="#9571F6"/>
</linearGradient>
<linearGradient id="paint71_linear_2156_7725" x1="34.188" y1="15.3145" x2="38.404" y2="19.5143" gradientUnits="userSpaceOnUse">
<stop stop-color="#E38DDD"/>
<stop offset="1" stop-color="#9571F6"/>
</linearGradient>
<linearGradient id="paint72_linear_2156_7725" x1="43.6843" y1="18.0303" x2="49.0838" y2="12.6951" gradientUnits="userSpaceOnUse">
<stop stop-color="#FFC444"/>
<stop offset="1" stop-color="#F36F56"/>
</linearGradient>
<linearGradient id="paint73_linear_2156_7725" x1="40.8855" y1="18.6547" x2="42.7387" y2="18.6547" gradientUnits="userSpaceOnUse">
<stop stop-color="#311944"/>
<stop offset="1" stop-color="#A03976"/>
</linearGradient>
<linearGradient id="paint74_linear_2156_7725" x1="23.1206" y1="54.906" x2="29.0974" y2="62.0426" gradientUnits="userSpaceOnUse">
<stop stop-color="#E38DDD"/>
<stop offset="1" stop-color="#9571F6"/>
</linearGradient>
<linearGradient id="paint75_linear_2156_7725" x1="23.4457" y1="63.1835" x2="23.7029" y2="58.8533" gradientUnits="userSpaceOnUse">
<stop stop-color="#AA80F9"/>
<stop offset="1" stop-color="#6165D7"/>
</linearGradient>
<linearGradient id="paint76_linear_2156_7725" x1="22.8284" y1="5.25684" x2="29.8601" y2="6.92471" gradientUnits="userSpaceOnUse">
<stop stop-color="#311944"/>
<stop offset="1" stop-color="#893976"/>
</linearGradient>
<linearGradient id="paint77_linear_2156_7725" x1="30.4595" y1="4.0906" x2="24.5885" y2="15.9209" gradientUnits="userSpaceOnUse">
<stop stop-color="#E38DDD"/>
<stop offset="1" stop-color="#9571F6"/>
</linearGradient>
<linearGradient id="paint78_linear_2156_7725" x1="27.5734" y1="6.71736" x2="15.5775" y2="13.92" gradientUnits="userSpaceOnUse">
<stop stop-color="#311944"/>
<stop offset="1" stop-color="#893976"/>
</linearGradient>
<linearGradient id="paint79_linear_2156_7725" x1="20.6566" y1="10.229" x2="14.1243" y2="23.3926" gradientUnits="userSpaceOnUse">
<stop stop-color="#FF9085"/>
<stop offset="1" stop-color="#FB6FBB"/>
</linearGradient>
<linearGradient id="paint80_linear_2156_7725" x1="21.9709" y1="19.0812" x2="29.0025" y2="20.7491" gradientUnits="userSpaceOnUse">
<stop stop-color="#FFC444"/>
<stop offset="1" stop-color="#F36F56"/>
</linearGradient>
<linearGradient id="paint81_linear_2156_7725" x1="29.6017" y1="17.9145" x2="23.731" y2="29.7448" gradientUnits="userSpaceOnUse">
<stop stop-color="#FFC444"/>
<stop offset="1" stop-color="#F36F56"/>
</linearGradient>
<linearGradient id="paint82_linear_2156_7725" x1="19.8723" y1="29.1288" x2="20.5148" y2="47.9602" gradientUnits="userSpaceOnUse">
<stop stop-color="#E38DDD"/>
<stop offset="1" stop-color="#9571F6"/>
</linearGradient>
<linearGradient id="paint83_linear_2156_7725" x1="23.5503" y1="28.4895" x2="15.0787" y2="39.6927" gradientUnits="userSpaceOnUse">
<stop stop-color="#E38DDD"/>
<stop offset="1" stop-color="#9571F6"/>
</linearGradient>
</defs>
</svg>
