<svg width="70" height="70" viewBox="0 0 70 70" fill="none" xmlns="http://www.w3.org/2000/svg">
<g id="material-symbols:upload-rounded">
<path id="Vector" d="M17.5013 58.3334C15.8971 58.3334 14.5244 57.7627 13.383 56.6213C12.2416 55.4799 11.6699 54.1062 11.668 52.5V46.6667C11.668 45.8403 11.948 45.1481 12.508 44.59C13.068 44.032 13.7602 43.752 14.5846 43.75C15.4091 43.7481 16.1023 44.0281 16.6642 44.59C17.2262 45.152 17.5052 45.8442 17.5013 46.6667V52.5H52.5013V46.6667C52.5013 45.8403 52.7813 45.1481 53.3413 44.59C53.9013 44.032 54.5935 43.752 55.418 43.75C56.2424 43.7481 56.9356 44.0281 57.4976 44.59C58.0595 45.152 58.3385 45.8442 58.3346 46.6667V52.5C58.3346 54.1042 57.7639 55.478 56.6226 56.6213C55.4812 57.7646 54.1074 58.3353 52.5013 58.3334H17.5013ZM32.0846 22.8959L26.6159 28.3646C26.0326 28.948 25.3403 29.228 24.5392 29.2046C23.7381 29.1813 23.0449 28.877 22.4596 28.2917C21.9249 27.7084 21.6449 27.0278 21.6196 26.25C21.5944 25.4723 21.8744 24.7917 22.4596 24.2084L32.9596 13.7084C33.2513 13.4167 33.5673 13.2106 33.9076 13.09C34.2478 12.9695 34.6124 12.9082 35.0013 12.9063C35.3902 12.9044 35.7548 12.9656 36.0951 13.09C36.4353 13.2145 36.7513 13.4206 37.043 13.7084L47.543 24.2084C48.1263 24.7917 48.4063 25.4723 48.383 26.25C48.3596 27.0278 48.0796 27.7084 47.543 28.2917C46.9596 28.875 46.2674 29.1793 45.4663 29.2046C44.6652 29.2299 43.972 28.9499 43.3867 28.3646L37.918 22.8959V43.75C37.918 44.5764 37.638 45.2696 37.078 45.8296C36.518 46.3896 35.8257 46.6687 35.0013 46.6667C34.1769 46.6648 33.4846 46.3848 32.9246 45.8267C32.3646 45.2687 32.0846 44.5764 32.0846 43.75V22.8959Z" fill="#111933"/>
</g>
</svg>
