<svg width="28" height="33" viewBox="0 0 28 33" fill="none" xmlns="http://www.w3.org/2000/svg">
<g clip-path="url(#clip0_3317_5448)">
<path d="M0.301812 5.40047L0.273438 21.008C0.273438 21.008 0.503697 22.2606 1.6921 22.2554H26.4925C26.4925 22.2554 27.7278 21.9046 27.7278 20.5853V5.40047C27.7278 5.40047 27.7835 3.64067 26.0374 3.65006H1.88962C1.88962 3.65006 0.371654 3.80767 0.301812 5.40047Z" stroke="#FFCC00" stroke-width="2" stroke-miterlimit="10"/>
<path d="M5.73903 0.257798L22.2173 0.20874C22.2173 0.20874 22.9976 0.355912 22.9976 1.0615L22.9605 22.2032H4.91293C4.91293 22.2032 4.91293 1.26817 4.91293 1.27026C4.91293 1.27235 4.81799 0.260929 5.73903 0.257798Z" fill="#FFCC00"/>
<path d="M20.6324 5H11.4423C11.0012 5 10.9726 5.38889 11.0134 5.58333C11.0134 5.91667 11.2993 6 11.4423 6H20.6324C20.9265 6 21 5.72222 21 5.58333C21 5.11667 20.7549 5 20.6324 5Z" fill="white"/>
<path d="M15.8162 7H11.2212C11.0006 7 10.9863 7.38889 11.0067 7.58333C11.0067 7.91667 11.1497 8 11.2212 8H15.8162C15.9632 8 16 7.72222 16 7.58333C16 7.11667 15.8775 7 15.8162 7Z" fill="white"/>
<path d="M20.6324 10H11.4423C11.0012 10 10.9726 10.3889 11.0134 10.5833C11.0134 10.9167 11.2993 11 11.4423 11H20.6324C20.9265 11 21 10.7222 21 10.5833C21 10.1167 20.7549 10 20.6324 10Z" fill="white"/>
<path d="M15.8162 12H11.2212C11.0006 12 10.9863 12.3889 11.0067 12.5833C11.0067 12.9167 11.1497 13 11.2212 13H15.8162C15.9632 13 16 12.7222 16 12.5833C16 12.1167 15.8775 12 15.8162 12Z" fill="white"/>
<path d="M20.6324 15H11.4423C11.0012 15 10.9726 15.3889 11.0134 15.5833C11.0134 15.9167 11.2993 16 11.4423 16H20.6324C20.9265 16 21 15.7222 21 15.5833C21 15.1167 20.7549 15 20.6324 15Z" fill="white"/>
<path d="M15.8162 17H11.2212C11.0006 17 10.9863 17.3889 11.0067 17.5833C11.0067 17.9167 11.1497 18 11.2212 18H15.8162C15.9632 18 16 17.7222 16 17.5833C16 17.1167 15.8775 17 15.8162 17Z" fill="white"/>
<path d="M7.89844 22.2554V24.5078C7.89844 24.5078 7.91481 25.3846 8.80638 25.3919H19.4332C19.4332 25.3919 20.1317 25.2249 20.1186 24.5193V22.2554H7.89844Z" fill="#FFCC00"/>
<path d="M5.00949 32.4844V30.424C5.00949 30.424 5.11862 29.5796 5.89342 29.5358L22.1185 29.5713C22.1185 29.5713 22.9545 29.6756 22.9545 30.353V32.4844H26.512V33.0001H1.47266V32.4844H5.00949Z" fill="#FFCC00"/>
<path d="M9.54299 25.392L7.89844 29.5358L8.48336 29.541L10.2109 25.392H9.54299Z" fill="#FFCC00"/>
<path d="M17.8164 25.392L19.4686 29.565L20.1168 29.5671L18.4286 25.392H17.8164Z" fill="#FFCC00"/>
<path d="M9.54153 5.15494C9.50305 5.13445 9.46074 5.12142 9.41701 5.11661C9.37328 5.11179 9.32898 5.11527 9.28666 5.12685C9.24433 5.13844 9.2048 5.1579 9.17033 5.18413C9.13585 5.21036 9.10711 5.24283 9.08573 5.27971L8.46354 6.35264L8.10745 6.01142C8.07654 5.98075 8.03956 5.95629 7.99867 5.93946C7.95778 5.92263 7.9138 5.91377 7.8693 5.9134C7.8248 5.91303 7.78067 5.92115 7.73948 5.9373C7.6983 5.95345 7.66088 5.97729 7.62941 6.00744C7.59794 6.0376 7.57306 6.07345 7.55621 6.11292C7.53936 6.15239 7.53088 6.19467 7.53126 6.23732C7.53165 6.27996 7.54089 6.3221 7.55846 6.36128C7.57602 6.40046 7.60156 6.43589 7.63356 6.46552L8.30385 7.1078C8.36719 7.16865 8.45265 7.20205 8.54079 7.20205L8.58721 7.19884C8.63858 7.19196 8.68758 7.17374 8.73035 7.14562C8.77313 7.11751 8.80851 7.08027 8.83371 7.03683L9.67156 5.59169C9.69295 5.55484 9.70656 5.5143 9.7116 5.4724C9.71664 5.43051 9.71302 5.38807 9.70095 5.34751C9.68887 5.30696 9.66858 5.26907 9.64122 5.23603C9.61387 5.20299 9.57999 5.17544 9.54153 5.15494Z" fill="white"/>
<path d="M9.54153 15.1752C9.50305 15.1547 9.46074 15.1417 9.41701 15.1369C9.37328 15.132 9.32898 15.1355 9.28666 15.1471C9.24433 15.1587 9.2048 15.1782 9.17033 15.2044C9.13585 15.2306 9.10711 15.2631 9.08573 15.3L8.46354 16.3729L8.10745 16.0317C8.07654 16.001 8.03956 15.9766 7.99867 15.9597C7.95778 15.9429 7.9138 15.934 7.8693 15.9337C7.8248 15.9333 7.78067 15.9414 7.73948 15.9576C7.6983 15.9737 7.66088 15.9976 7.62941 16.0277C7.59794 16.0579 7.57306 16.0937 7.55621 16.1332C7.53936 16.1727 7.53088 16.2149 7.53126 16.2576C7.53165 16.3002 7.54089 16.3424 7.55846 16.3815C7.57602 16.4207 7.60156 16.4562 7.63356 16.4858L8.30385 17.1281C8.36719 17.1889 8.45265 17.2223 8.54079 17.2223L8.58721 17.2191C8.63858 17.2122 8.68758 17.194 8.73035 17.1659C8.77313 17.1378 8.80851 17.1005 8.83371 17.0571L9.67156 15.612C9.69295 15.5751 9.70656 15.5346 9.7116 15.4927C9.71664 15.4508 9.71302 15.4083 9.70095 15.3678C9.68887 15.3272 9.66858 15.2893 9.64122 15.2563C9.61387 15.2233 9.57999 15.1957 9.54153 15.1752Z" fill="white"/>
<path d="M7.85667 10.1759L8.62253 10.9084L9.38442 10.1797C9.40124 10.1625 9.42152 10.1488 9.44402 10.1394C9.46652 10.1299 9.49079 10.1249 9.51536 10.1246C9.56799 10.1246 9.61845 10.1446 9.65566 10.1802C9.69287 10.2158 9.71377 10.2641 9.71377 10.3144C9.71424 10.3377 9.70972 10.3608 9.70051 10.3823C9.6913 10.4038 9.67758 10.4234 9.6602 10.4396L8.88839 11.1683L9.6602 11.9065C9.6929 11.9371 9.71208 11.9785 9.71377 12.0223C9.71377 12.0726 9.69287 12.1209 9.65566 12.1565C9.61845 12.192 9.56799 12.212 9.51536 12.212C9.49008 12.213 9.46485 12.209 9.44128 12.2002C9.41771 12.1914 9.39632 12.1779 9.37846 12.1608L8.62253 11.4283L7.85866 12.1589C7.84189 12.1755 7.82186 12.1887 7.79973 12.1978C7.77759 12.2069 7.75379 12.2118 7.72969 12.212C7.67707 12.212 7.6266 12.192 7.58939 12.1565C7.55219 12.1209 7.53128 12.0726 7.53128 12.0223C7.53082 11.999 7.53533 11.9759 7.54454 11.9544C7.55376 11.9328 7.56747 11.9133 7.58485 11.897L8.35666 11.1683L7.58485 10.4302C7.55215 10.3996 7.53298 10.3581 7.53128 10.3144C7.53128 10.2641 7.55219 10.2158 7.58939 10.1802C7.6266 10.1446 7.67707 10.1246 7.72969 10.1246C7.77731 10.1252 7.82294 10.1436 7.85667 10.1759Z" fill="white"/>
</g>
<defs>
<clipPath id="clip0_3317_5448">
<rect width="28" height="33" fill="white"/>
</clipPath>
</defs>
</svg>
