<svg width="33" height="26" viewBox="0 0 33 26" fill="none" xmlns="http://www.w3.org/2000/svg">
<path d="M19.5888 0C25.7446 0 28.8233 -1.77061e-07 30.7348 1.84919C32.6464 3.69838 32.648 6.67343 32.648 12.625C32.648 18.5766 32.648 21.5516 30.7348 23.4008C28.8217 25.25 25.7446 25.25 19.5888 25.25H13.0592C6.90342 25.25 3.82471 25.25 1.91317 23.4008C0.00163228 21.5516 0 18.5766 0 12.625C0 6.67343 -1.94597e-07 3.69838 1.91317 1.84919C3.82635 -1.77061e-07 6.90342 0 13.0592 0H19.5888Z" fill="#FFCC00"/>
<path d="M4.89844 17.8236C7.52497 14.6495 13.6383 14.4757 16.3252 17.8236H4.89844ZM13.4669 10.0258C13.4669 10.7151 13.1659 11.3763 12.6302 11.8637C12.0945 12.3512 11.3678 12.625 10.6102 12.625C9.85256 12.625 9.12595 12.3512 8.59021 11.8637C8.05448 11.3763 7.7535 10.7151 7.7535 10.0258C7.7535 9.33641 8.05448 8.67528 8.59021 8.18782C9.12595 7.70036 9.85256 7.42651 10.6102 7.42651C11.3678 7.42651 12.0945 7.70036 12.6302 8.18782C13.1659 8.67528 13.4669 9.33641 13.4669 10.0258ZM21.2224 8.91181H27.752H21.2224ZM21.2224 14.853H24.4872H21.2224Z" fill="#FFCC00"/>
<path d="M4.89844 17.8236C7.52497 14.6495 13.6383 14.4757 16.3252 17.8236M21.2224 8.91181H27.752M21.2224 14.853H24.4872M13.4669 10.0258C13.4669 10.7151 13.1659 11.3763 12.6302 11.8637C12.0945 12.3512 11.3678 12.625 10.6102 12.625C9.85256 12.625 9.12595 12.3512 8.59021 11.8637C8.05448 11.3763 7.75351 10.7151 7.75351 10.0258C7.75351 9.33641 8.05448 8.67528 8.59021 8.18782C9.12595 7.70036 9.85256 7.42651 10.6102 7.42651C11.3678 7.42651 12.0945 7.70036 12.6302 8.18782C13.1659 8.67528 13.4669 9.33641 13.4669 10.0258Z" stroke="white" stroke-width="1.5" stroke-linecap="round" stroke-linejoin="round"/>
</svg>
