<svg width="35" height="34" viewBox="0 0 35 34" fill="none" xmlns="http://www.w3.org/2000/svg">
<path fill-rule="evenodd" clip-rule="evenodd" d="M7.92307 4.25C6.35832 4.25 5.08984 5.5185 5.08984 7.08323V26.9158C5.08984 28.4805 6.35832 29.749 7.92307 29.749H27.7556C29.3204 29.749 30.5889 28.4805 30.5889 26.9158V7.08323C30.5889 5.5185 29.3204 4.25 27.7556 4.25H7.92307ZM12.1729 18.4161C12.1729 17.6337 11.5387 16.9995 10.7563 16.9995C9.97392 16.9995 9.33968 17.6337 9.33968 18.4161V24.0826C9.33968 24.865 9.97392 25.4992 10.7563 25.4992C11.5387 25.4992 12.1729 24.865 12.1729 24.0826V18.4161ZM17.8394 12.7497C18.6217 12.7497 19.256 13.3839 19.256 14.1663V24.0826C19.256 24.865 18.6217 25.4992 17.8394 25.4992C17.057 25.4992 16.4227 24.865 16.4227 24.0826V14.1663C16.4227 13.3839 17.057 12.7497 17.8394 12.7497ZM26.339 9.91645C26.339 9.13405 25.7048 8.49984 24.9224 8.49984C24.14 8.49984 23.5058 9.13405 23.5058 9.91645V24.0826C23.5058 24.865 24.14 25.4992 24.9224 25.4992C25.7048 25.4992 26.339 24.865 26.339 24.0826V9.91645Z" fill="#FFCC00"/>
<path d="M16.4258 24.083V14.1667C16.4258 13.0334 17.3701 12.7501 17.8422 12.7501C18.9754 12.7501 19.2587 13.6945 19.2587 14.1667V24.083C19.2587 25.2163 18.3144 25.4996 17.8422 25.4996C16.7091 25.4996 16.4258 24.5552 16.4258 24.083Z" fill="white"/>
<path d="M23.5078 24.0826V9.91649C23.5078 8.7832 24.4521 8.49988 24.9243 8.49988C26.0574 8.49988 26.3407 9.44429 26.3407 9.91649V24.0826C26.3407 25.2159 25.3964 25.4992 24.9243 25.4992C23.7911 25.4992 23.5078 24.5548 23.5078 24.0826Z" fill="white"/>
</svg>
