<svg width="34" height="25" viewBox="0 0 34 25" fill="none" xmlns="http://www.w3.org/2000/svg">
<path d="M33.9941 5.52672H0.0554554H0V21.8943C0.83183 25.136 3.38278 24.9234 3.54914 24.9765C3.68224 25.019 21.4982 24.9942 30.3895 24.9765C32.7852 24.9765 33.7908 22.7092 33.9941 21.5755V5.52672Z" fill="#FFCC00"/>
<path d="M33.9941 4.57017H0.0554554C-0.299459 1.1266 2.2367 0.0885692 3.54914 0H30.5004C33.4729 0.510159 34.0681 3.25935 33.9941 4.57017Z" fill="#FFCC00"/>
<ellipse cx="4.54814" cy="2.60381" rx="1.22002" ry="1.16911" fill="white"/>
<ellipse cx="8.09892" cy="2.60381" rx="1.22002" ry="1.16911" fill="white"/>
<ellipse cx="11.6458" cy="2.60381" rx="1.22002" ry="1.16911" fill="white"/>
<rect x="16.5273" y="1.54089" width="13.9747" height="2.01938" rx="1.00969" fill="white"/>
<path d="M28.0807 9.20102C27.8325 9.0894 27.5596 9.01843 27.2775 8.99217C26.9954 8.96592 26.7097 8.98489 26.4367 9.048C26.1637 9.11112 25.9087 9.21714 25.6863 9.36002C25.4639 9.50289 25.2785 9.67982 25.1406 9.88069L21.1271 15.7257L18.8301 13.8669C18.6307 13.6998 18.3922 13.5665 18.1284 13.4748C17.8647 13.3831 17.581 13.3348 17.2939 13.3328C17.0069 13.3308 16.7222 13.3751 16.4565 13.463C16.1908 13.551 15.9495 13.6809 15.7465 13.8452C15.5435 14.0094 15.383 14.2048 15.2743 14.4198C15.1656 14.6348 15.1109 14.8651 15.1134 15.0974C15.1159 15.3297 15.1755 15.5593 15.2888 15.7727C15.4021 15.9862 15.5668 16.1792 15.7733 16.3406L20.097 19.8395C20.5056 20.1711 21.0569 20.353 21.6254 20.353L21.9248 20.3355C22.2562 20.298 22.5723 20.1988 22.8482 20.0456C23.1241 19.8924 23.3523 19.6896 23.5149 19.4529L28.9195 11.5803C29.0575 11.3795 29.1453 11.1587 29.1778 10.9304C29.2103 10.7022 29.187 10.471 29.1091 10.2501C29.0312 10.0291 28.9003 9.82278 28.7238 9.64278C28.5474 9.46278 28.3289 9.31267 28.0807 9.20102Z" fill="white"/>
</svg>
