<svg width="269" height="195" viewBox="0 0 269 195" fill="none" xmlns="http://www.w3.org/2000/svg">
<path d="M31.5273 94.4444C38.8464 90.9808 52.8414 79.4063 57.537 70.058C62.2325 60.7098 88.7741 84.4576 97.4177 80.3672C106.061 76.2768 112.334 73.3086 120.211 69.5805C128.089 65.8525 142.48 49.271 152.152 44.6939C161.824 40.1168 172.673 36.9005 181.937 32.5163C191.202 28.1321 194.768 6.84112 203.435 2.73953" stroke="#FFCC00" stroke-width="0.961153" stroke-linecap="round"/>
<path fill-rule="evenodd" clip-rule="evenodd" d="M30.8064 95.1796C38.587 92.1477 53.2118 78.194 58.2017 70.0083C63.1916 61.8226 87.2625 83.7845 96.451 80.204C105.639 76.6236 112.433 72.414 121.566 70.0177C124.42 67.0211 138.688 55.0349 147.82 47.2439C156.382 41.8505 175.909 37.4354 184.351 31.0652C192.794 24.695 195.111 6.48593 204.325 2.89572C205.534 5.13819 204.904 40.6589 204.904 40.6589L204.915 91.0097L203.784 140.761L30.8154 135.94C30.8154 135.94 32.2216 97.7418 30.8064 95.1796Z" fill="url(#paint0_linear_3317_5433)"/>
<ellipse cx="1.98795" cy="1.99084" rx="1.98795" ry="1.99084" transform="matrix(0.903896 -0.427753 0.426019 0.904714 200.945 2.2124)" fill="#FFCC00"/>
<ellipse cx="1.98795" cy="1.99084" rx="1.98795" ry="1.99084" transform="matrix(0.903896 -0.427753 0.426019 0.904714 183.098 27.8265)" fill="#FFCC00"/>
<ellipse cx="1.98795" cy="1.99084" rx="1.98795" ry="1.99084" transform="matrix(0.903896 -0.427753 0.426019 0.904714 145.336 45.6958)" fill="#FFCC00"/>
<ellipse cx="1.98795" cy="1.99084" rx="1.98795" ry="1.99084" transform="matrix(0.903896 -0.427753 0.426019 0.904714 118.402 67.9326)" fill="#FFCC00"/>
<ellipse cx="1.98795" cy="1.99084" rx="1.98795" ry="1.99084" transform="matrix(0.903896 -0.427753 0.426019 0.904714 93.5586 79.6946)" fill="#FFCC00"/>
<ellipse cx="1.98795" cy="1.99084" rx="1.98795" ry="1.99084" transform="matrix(0.903896 -0.427753 0.426019 0.904714 57.0742 66.7645)" fill="#FFCC00"/>
<ellipse cx="1.98795" cy="1.99084" rx="1.98795" ry="1.99084" transform="matrix(0.903896 -0.427753 0.426019 0.904714 29.3633 93.5969)" fill="#FFCC00"/>
<defs>
<linearGradient id="paint0_linear_3317_5433" x1="209.541" y1="11.4822" x2="208.287" y2="109.089" gradientUnits="userSpaceOnUse">
<stop stop-color="#FFCC00" stop-opacity="0.3"/>
<stop offset="1" stop-color="#FFCC00" stop-opacity="0"/>
</linearGradient>
</defs>
</svg>
