<svg width="17" height="19" viewBox="0 0 17 19" fill="none" xmlns="http://www.w3.org/2000/svg">
<path d="M17 10.0306C17 6.26199 14.5267 3.07629 11.1109 1.97784V4.00144C13.4551 5.01103 15.0973 7.32263 15.1023 10.0294C15.1001 11.7732 14.4039 13.4449 13.1662 14.678C11.9286 15.911 10.2506 16.6047 8.50032 16.6069C6.74991 16.6049 5.07177 15.9112 3.83399 14.6782C2.5962 13.4451 1.89985 11.7733 1.89767 10.0294C1.9021 7.32326 3.54549 5.0104 5.88912 4.00081V1.97847C2.47457 3.07692 0 6.26262 0 10.0313C0 14.7074 3.80484 18.4994 8.49968 18.5C13.1952 18.4987 16.9987 14.7061 17 10.03V10.0306ZM5.89038 7.41527L8.50032 11.9213L11.1128 7.41527H9.65916V0.5H7.344V7.41653H5.89038V7.41527Z" fill="white"/>
</svg>
