<svg width="570" height="355" viewBox="0 0 570 355" fill="none" xmlns="http://www.w3.org/2000/svg">
<path d="M307.287 165.012C307.162 165.012 307.04 164.974 306.938 164.903C306.836 164.832 306.758 164.732 306.714 164.615C306.671 164.499 306.664 164.371 306.695 164.251C306.726 164.13 306.793 164.022 306.888 163.941L406.152 78.1167C406.213 78.0643 406.283 78.0244 406.359 77.9992C406.435 77.974 406.516 77.964 406.595 77.9699C406.675 77.9757 406.753 77.9972 406.825 78.0332C406.897 78.0692 406.96 78.1189 407.013 78.1795C407.065 78.2401 407.105 78.3105 407.13 78.3866C407.155 78.4626 407.165 78.5429 407.16 78.6228C407.154 78.7027 407.132 78.7807 407.096 78.8523C407.06 78.9238 407.011 78.9876 406.95 79.04L307.685 164.864C307.574 164.96 307.433 165.012 307.287 165.012Z" fill="#FFBB00"/>
<path d="M49.6427 266.858C49.4948 266.859 49.3515 266.806 49.2395 266.71C49.1276 266.613 49.0545 266.479 49.0341 266.333C49.0137 266.186 49.0473 266.037 49.1286 265.914C49.2099 265.79 49.3334 265.701 49.476 265.661L221.673 217.56C221.75 217.538 221.831 217.531 221.91 217.54C221.99 217.549 222.067 217.574 222.137 217.613C222.207 217.652 222.268 217.705 222.318 217.768C222.367 217.831 222.403 217.904 222.424 217.981C222.468 218.137 222.449 218.303 222.37 218.445C222.291 218.586 222.159 218.69 222.004 218.735L49.8121 266.828C49.7571 266.845 49.7002 266.855 49.6427 266.858Z" fill="#FFCC00"/>
<path d="M224.157 167.326C224.019 167.326 223.884 167.279 223.777 167.192L107.859 75.1308C107.732 75.0301 107.65 74.8832 107.632 74.7223C107.613 74.5614 107.66 74.3998 107.76 74.273C107.861 74.1462 108.008 74.0647 108.169 74.0462C108.33 74.0278 108.492 74.074 108.618 74.1747L224.534 166.236C224.634 166.314 224.707 166.422 224.743 166.544C224.778 166.666 224.775 166.796 224.734 166.916C224.692 167.036 224.615 167.14 224.511 167.214C224.408 167.288 224.284 167.328 224.157 167.328V167.326Z" fill="#FFCC00"/>
<path d="M216.46 336.242C216.377 336.243 216.295 336.226 216.22 336.193C216.146 336.161 216.08 336.116 216.024 336.058C215.968 336.001 215.924 335.933 215.894 335.859C215.864 335.785 215.85 335.705 215.851 335.625C215.852 335.545 215.868 335.466 215.9 335.393L218.19 330.068C218.26 329.93 218.38 329.823 218.527 329.769C218.673 329.716 218.834 329.721 218.977 329.782C219.12 329.843 219.234 329.957 219.297 330.099C219.359 330.242 219.365 330.403 219.313 330.549L217.023 335.873C216.975 335.983 216.897 336.076 216.797 336.142C216.697 336.207 216.58 336.242 216.46 336.242ZM228.403 308.498C228.32 308.499 228.237 308.483 228.16 308.449C228.012 308.385 227.895 308.265 227.836 308.115C227.776 307.965 227.777 307.797 227.841 307.649L247.142 262.807C247.206 262.658 247.326 262.541 247.476 262.481C247.626 262.421 247.794 262.423 247.943 262.487C248.091 262.551 248.208 262.671 248.268 262.821C248.328 262.971 248.326 263.139 248.262 263.287L228.964 308.129C228.917 308.239 228.838 308.332 228.739 308.398C228.639 308.463 228.523 308.498 228.403 308.498Z" fill="#FFBB00"/>
<path d="M192.142 199.394C192.101 199.398 192.06 199.398 192.019 199.394L144.203 189.499C144.045 189.465 143.907 189.371 143.819 189.236C143.73 189.101 143.698 188.936 143.73 188.778C143.745 188.699 143.776 188.624 143.821 188.557C143.866 188.49 143.923 188.433 143.99 188.389C144.058 188.344 144.133 188.314 144.212 188.299C144.291 188.285 144.373 188.286 144.451 188.303L192.268 198.197C192.415 198.229 192.546 198.314 192.634 198.436C192.723 198.557 192.763 198.708 192.748 198.858C192.733 199.007 192.663 199.146 192.552 199.248C192.44 199.349 192.295 199.406 192.145 199.408L192.142 199.394ZM120.412 184.549C120.371 184.553 120.33 184.553 120.289 184.549L114.313 183.315C114.23 183.303 114.151 183.274 114.08 183.231C114.008 183.187 113.947 183.129 113.899 183.061C113.851 182.993 113.817 182.915 113.8 182.834C113.783 182.752 113.783 182.667 113.8 182.586C113.816 182.504 113.85 182.426 113.898 182.358C113.946 182.289 114.007 182.232 114.078 182.188C114.149 182.144 114.229 182.115 114.311 182.103C114.394 182.091 114.478 182.096 114.559 182.118L120.535 183.356C120.684 183.384 120.818 183.468 120.909 183.59C121 183.712 121.042 183.864 121.026 184.016C121.011 184.167 120.939 184.307 120.826 184.409C120.712 184.51 120.564 184.565 120.412 184.563V184.549Z" fill="#FFCC00"/>
<path d="M247.404 135.252C247.267 135.251 247.134 135.205 247.027 135.12C246.919 135.036 246.843 134.918 246.811 134.785L235.319 87.3391C235.3 87.2613 235.297 87.1805 235.309 87.1014C235.322 87.0223 235.35 86.9465 235.392 86.8782C235.434 86.81 235.488 86.7507 235.553 86.7037C235.618 86.6566 235.692 86.6229 235.769 86.6043C235.926 86.5686 236.091 86.5955 236.228 86.6791C236.365 86.7628 236.464 86.8966 236.504 87.0523L247.997 134.498C248.035 134.655 248.009 134.821 247.925 134.959C247.841 135.097 247.706 135.197 247.549 135.235C247.501 135.246 247.453 135.252 247.404 135.252Z" fill="#FFCC00"/>
<path d="M325.842 199.394C325.692 199.397 325.546 199.343 325.433 199.245C325.319 199.147 325.246 199.01 325.227 198.86C325.209 198.711 325.246 198.561 325.332 198.437C325.417 198.314 325.546 198.227 325.692 198.192L439.632 169.47C439.787 169.437 439.949 169.465 440.084 169.548C440.219 169.632 440.316 169.764 440.355 169.918C440.394 170.072 440.371 170.234 440.293 170.372C440.214 170.51 440.085 170.611 439.933 170.656L325.993 199.375C325.943 199.388 325.893 199.394 325.842 199.394Z" fill="#FFCC00"/>
<path d="M427.648 331.303C427.522 331.303 427.399 331.263 427.296 331.189L299.538 240.319C299.473 240.272 299.417 240.214 299.375 240.146C299.332 240.078 299.303 240.003 299.29 239.924C299.276 239.845 299.279 239.764 299.296 239.686C299.314 239.608 299.347 239.534 299.393 239.469C299.44 239.404 299.498 239.348 299.566 239.306C299.634 239.263 299.709 239.234 299.788 239.221C299.867 239.207 299.948 239.21 300.026 239.227C300.104 239.245 300.178 239.278 300.243 239.324L428.001 330.194C428.106 330.27 428.184 330.376 428.225 330.499C428.266 330.621 428.267 330.754 428.227 330.877C428.188 331 428.111 331.107 428.007 331.184C427.903 331.261 427.778 331.302 427.648 331.303Z" fill="#FFBB00"/>
<path d="M525.757 288.877C519.658 288.903 513.619 287.676 508.013 285.272C502.408 282.869 497.356 279.34 493.171 274.904C493.058 274.785 492.994 274.627 492.994 274.463C492.994 274.299 493.058 274.141 493.171 274.022C493.224 273.965 493.288 273.92 493.359 273.889C493.43 273.857 493.507 273.84 493.584 273.839C493.662 273.837 493.739 273.851 493.811 273.88C493.883 273.908 493.949 273.951 494.004 274.005C494.021 274.005 494.078 274.082 494.092 274.095C500.788 281.118 509.63 285.716 519.226 287.165C528.822 288.615 538.627 286.834 547.1 282.102C547.24 282.034 547.402 282.021 547.551 282.068C547.7 282.114 547.826 282.216 547.903 282.352C547.979 282.489 548.001 282.649 547.963 282.801C547.925 282.952 547.83 283.084 547.698 283.168C540.992 286.912 533.439 288.878 525.757 288.877ZM566.604 261.805C566.503 261.805 566.404 261.78 566.316 261.732C566.227 261.684 566.152 261.616 566.096 261.532C566.04 261.448 566.006 261.352 565.997 261.252C565.987 261.152 566.002 261.051 566.041 260.958C566.975 258.737 567.726 256.443 568.287 254.099C568.301 254.017 568.332 253.94 568.377 253.87C568.422 253.801 568.481 253.742 568.55 253.696C568.619 253.651 568.697 253.619 568.778 253.605C568.86 253.59 568.943 253.592 569.024 253.61C569.104 253.629 569.18 253.664 569.247 253.713C569.314 253.761 569.37 253.823 569.412 253.895C569.454 253.966 569.481 254.045 569.491 254.127C569.502 254.209 569.495 254.293 569.473 254.372C568.898 256.781 568.126 259.139 567.166 261.423C567.121 261.535 567.043 261.631 566.943 261.699C566.843 261.767 566.725 261.804 566.604 261.805ZM482.61 234.315C482.563 234.315 482.515 234.31 482.468 234.299C482.39 234.281 482.317 234.247 482.252 234.2C482.187 234.153 482.131 234.094 482.09 234.026C482.048 233.957 482.02 233.881 482.007 233.802C481.995 233.723 481.998 233.642 482.018 233.564C482.587 231.154 483.355 228.795 484.313 226.511C484.376 226.362 484.496 226.243 484.646 226.182C484.795 226.121 484.963 226.121 485.113 226.183C485.262 226.246 485.38 226.365 485.441 226.514C485.502 226.664 485.501 226.832 485.438 226.98C484.507 229.204 483.76 231.5 483.203 233.845C483.172 233.979 483.096 234.098 482.989 234.184C482.881 234.269 482.748 234.315 482.61 234.315ZM557.972 213.494L557.442 213.819C550.74 206.774 541.882 202.163 532.266 200.712C522.651 199.262 512.826 201.055 504.344 205.809C504.203 205.878 504.042 205.89 503.893 205.844C503.743 205.797 503.618 205.695 503.541 205.559C503.465 205.423 503.443 205.262 503.481 205.111C503.519 204.959 503.614 204.828 503.745 204.744C512.465 199.857 522.564 198.014 532.448 199.505C542.332 200.996 551.438 205.736 558.327 212.977L557.972 213.494Z" fill="#FFCC00"/>
<path d="M525.752 210.598C516.959 210.678 508.553 214.226 502.364 220.47C496.175 226.714 492.702 235.15 492.702 243.941C492.702 252.732 496.175 261.167 502.364 267.412C508.553 273.656 516.959 277.204 525.752 277.283C530.157 277.323 534.526 276.49 538.607 274.833C542.688 273.175 546.401 270.725 549.53 267.625C552.659 264.525 555.142 260.836 556.837 256.771C558.532 252.706 559.405 248.345 559.405 243.941C559.405 239.537 558.532 235.176 556.837 231.111C555.142 227.046 552.659 223.357 549.53 220.256C546.401 217.156 542.688 214.707 538.607 213.049C534.526 211.391 530.157 210.558 525.752 210.598Z" fill="#FFCC00"/>
<path d="M525.752 277.893C519.034 277.893 512.468 275.901 506.883 272.17C501.298 268.438 496.945 263.135 494.375 256.93C491.805 250.725 491.133 243.897 492.445 237.31C493.756 230.724 496.992 224.674 501.743 219.926C506.494 215.178 512.546 211.945 519.135 210.637C525.723 209.328 532.552 210.003 538.757 212.575C544.963 215.146 550.266 219.5 553.996 225.086C557.726 230.671 559.715 237.237 559.712 243.953C559.699 252.953 556.117 261.58 549.75 267.942C543.384 274.305 534.753 277.883 525.752 277.893ZM525.752 211.207C519.277 211.207 512.948 213.127 507.564 216.723C502.181 220.319 497.984 225.43 495.506 231.41C493.027 237.39 492.378 243.971 493.641 250.32C494.903 256.669 498.019 262.501 502.597 267.08C507.174 271.658 513.006 274.776 519.356 276.041C525.706 277.305 532.289 276.659 538.271 274.184C544.254 271.709 549.368 267.515 552.967 262.134C556.566 256.753 558.488 250.426 558.491 243.953C558.482 235.274 555.03 226.952 548.892 220.813C542.755 214.675 534.433 211.22 525.752 211.207Z" fill="#FFCC00"/>
<path d="M529.294 242.268C530.881 241.468 532.151 240.158 532.901 238.547C533.651 236.936 533.835 235.12 533.424 233.392C533.013 231.663 532.031 230.124 530.637 229.022C529.243 227.921 527.518 227.322 525.741 227.322C523.965 227.322 522.24 227.921 520.845 229.022C519.451 230.124 518.47 231.663 518.059 233.392C517.648 235.12 517.832 236.936 518.582 238.547C519.331 240.158 520.602 241.468 522.189 242.268C519.248 243.049 516.647 244.782 514.793 247.195C512.939 249.608 511.935 252.567 511.938 255.61C511.938 259.929 539.551 259.929 539.551 255.61C539.551 252.566 538.546 249.608 536.691 247.195C534.836 244.782 532.235 243.05 529.294 242.268Z" fill="white"/>
<path d="M41.3084 313.716C32.5201 313.721 23.924 311.144 16.5886 306.305C9.25316 301.466 3.50185 294.579 0.0495313 286.499C-0.0131999 286.349 -0.0164535 286.181 0.0403922 286.029C0.097238 285.876 0.209948 285.752 0.355589 285.679C0.425989 285.645 0.502629 285.625 0.580997 285.62C0.659365 285.616 0.73784 285.628 0.811608 285.655C0.885375 285.681 0.952929 285.723 1.01027 285.776C1.0676 285.83 1.11351 285.895 1.14522 285.966L0.582331 286.207L1.16436 286.015C4.97548 294.931 11.6478 302.324 20.1282 307.027C28.6086 311.731 38.4142 313.476 47.9972 311.989C48.157 311.964 48.3202 312.004 48.4509 312.099C48.5815 312.194 48.669 312.338 48.694 312.497C48.719 312.657 48.6795 312.82 48.5842 312.951C48.4889 313.082 48.3455 313.169 48.1858 313.194C45.9102 313.545 43.6109 313.72 41.3084 313.716ZM73.504 299.808C73.3487 299.807 73.1995 299.748 73.0859 299.642C73.0274 299.587 72.9804 299.521 72.9475 299.447C72.9146 299.374 72.8965 299.295 72.8942 299.215C72.8919 299.135 72.9055 299.055 72.9342 298.98C72.9628 298.905 73.0061 298.837 73.0613 298.778C74.7087 297.026 76.2093 295.141 77.5478 293.143C77.5923 293.076 77.6496 293.019 77.7161 292.975C77.7827 292.93 77.8574 292.899 77.9359 292.884C78.0144 292.868 78.0952 292.868 78.1738 292.884C78.2523 292.899 78.327 292.93 78.3936 292.975C78.4601 293.019 78.5173 293.076 78.5617 293.143C78.6062 293.209 78.6371 293.284 78.6527 293.363C78.6683 293.441 78.6683 293.522 78.6527 293.6C78.637 293.679 78.6061 293.754 78.5616 293.82C77.1881 295.876 75.6453 297.815 73.9493 299.614C73.8937 299.674 73.8266 299.722 73.7519 299.756C73.6773 299.789 73.5967 299.807 73.5149 299.808H73.504ZM81.4743 251.8L82.0399 251.568L81.4333 251.702C77.6175 242.777 70.934 235.379 62.4404 230.679C53.9468 225.979 44.128 224.244 34.5376 225.75C34.4584 225.762 34.3776 225.759 34.2997 225.74C34.2218 225.722 34.1484 225.688 34.0835 225.641C34.0187 225.594 33.9638 225.534 33.9219 225.466C33.88 225.398 33.852 225.322 33.8395 225.243C33.8269 225.164 33.8301 225.083 33.8487 225.005C33.8674 224.927 33.9012 224.854 33.9483 224.789C33.9953 224.724 34.0547 224.669 34.123 224.627C34.1913 224.586 34.2672 224.558 34.3463 224.545C44.2037 222.996 54.2962 224.779 63.0265 229.61C71.7568 234.441 78.6264 242.045 82.5481 251.218L82.0399 251.581L81.4743 251.8ZM4.49785 244.889C4.37699 244.889 4.25882 244.853 4.15903 244.785C4.09207 244.74 4.03455 244.683 3.98986 244.617C3.94517 244.55 3.91418 244.475 3.89867 244.396C3.88317 244.317 3.88346 244.236 3.89954 244.158C3.91562 244.079 3.94715 244.004 3.99233 243.938C5.36369 241.881 6.90272 239.942 8.59367 238.138C8.64695 238.074 8.7129 238.021 8.78739 237.983C8.86189 237.945 8.94336 237.923 9.02681 237.918C9.11026 237.912 9.19389 237.924 9.27256 237.953C9.35124 237.981 9.42326 238.025 9.48423 238.082C9.54519 238.139 9.59383 238.208 9.62705 238.285C9.66027 238.362 9.6774 238.445 9.67742 238.528C9.67743 238.612 9.66031 238.694 9.62712 238.771C9.59393 238.848 9.54537 238.917 9.48443 238.974C7.83761 240.728 6.33962 242.616 5.00603 244.618C4.94949 244.702 4.87301 244.771 4.78336 244.818C4.6937 244.865 4.5937 244.89 4.49238 244.889H4.49785Z" fill="#FFBB00"/>
<path d="M41.3083 235.51C32.5156 235.59 24.1101 239.138 17.9207 245.382C11.7313 251.627 8.25879 260.062 8.25879 268.853C8.25879 277.644 11.7313 286.08 17.9207 292.324C24.1101 298.568 32.5156 302.116 41.3083 302.196C50.101 302.116 58.5065 298.568 64.6959 292.324C70.8854 286.08 74.3578 277.644 74.3578 268.853C74.3578 260.062 70.8854 251.627 64.6959 245.382C58.5065 239.138 50.101 235.59 41.3083 235.51Z" fill="#FFCC00"/>
<path d="M41.3084 302.805C34.5916 302.805 28.0257 300.814 22.4409 297.083C16.856 293.352 12.5032 288.049 9.93276 281.845C7.36236 275.641 6.68984 268.814 8.00022 262.228C9.3106 255.641 12.5451 249.592 17.2946 244.843C22.0441 240.095 28.0952 236.861 34.683 235.551C41.2707 234.241 48.0991 234.913 54.3046 237.483C60.5101 240.053 65.814 244.405 69.5456 249.988C73.2773 255.572 75.2691 262.136 75.2691 268.852C75.259 277.854 71.6777 286.484 65.3111 292.849C58.9444 299.214 50.3122 302.795 41.3084 302.805ZM41.3084 236.12C34.8332 236.12 28.5034 238.039 23.1194 241.636C17.7355 245.233 13.5392 250.345 11.0612 256.326C8.58324 262.307 7.93492 268.888 9.19817 275.237C10.4614 281.587 13.5795 287.419 18.1582 291.997C22.7368 296.575 28.5704 299.692 34.9213 300.955C41.2721 302.218 47.8548 301.57 53.8372 299.092C59.8195 296.615 64.9327 292.42 68.5301 287.037C72.1276 281.654 74.0477 275.326 74.0477 268.852C74.0347 260.175 70.5812 251.857 64.4442 245.721C58.3072 239.585 49.9874 236.133 41.3084 236.12Z" fill="#FFCC00"/>
<path d="M44.8385 267.177C46.4262 266.378 47.698 265.067 48.4481 263.456C49.1981 261.844 49.3827 260.027 48.9719 258.298C48.5611 256.569 47.579 255.029 46.1843 253.927C44.7897 252.825 43.064 252.226 41.2864 252.226C39.5088 252.226 37.7832 252.825 36.3885 253.927C34.9939 255.029 34.0117 256.569 33.6009 258.298C33.1901 260.027 33.3747 261.844 34.1248 263.456C34.8749 265.067 36.1466 266.378 37.7343 267.177C34.7925 267.959 32.192 269.692 30.3377 272.106C28.4835 274.52 27.4796 277.479 27.4824 280.522C27.4824 284.838 55.0958 284.838 55.0958 280.522C55.0955 277.479 54.0898 274.52 52.235 272.107C50.3801 269.694 47.7799 267.961 44.8385 267.177Z" fill="white"/>
<path d="M82.407 98.1816C74.835 98.1834 67.387 96.2591 60.7639 92.5897C60.6939 92.5508 60.6323 92.4984 60.5825 92.4357C60.5328 92.373 60.4959 92.3011 60.4739 92.2241C60.452 92.1471 60.4454 92.0665 60.4546 91.987C60.4638 91.9075 60.4886 91.8305 60.5275 91.7606C60.5664 91.6906 60.6188 91.629 60.6815 91.5793C60.7443 91.5296 60.8162 91.4927 60.8932 91.4707C60.9702 91.4488 61.0508 91.4422 61.1304 91.4514C61.2099 91.4606 61.2869 91.4854 61.3568 91.5243C68.4195 95.4334 76.4318 97.2978 84.4951 96.9084C92.5584 96.519 100.354 93.8912 107.007 89.3197C107.073 89.2744 107.147 89.2424 107.225 89.2258C107.304 89.2091 107.385 89.208 107.463 89.2226C107.542 89.2372 107.617 89.2672 107.684 89.3108C107.752 89.3544 107.81 89.4108 107.855 89.4768C107.9 89.5428 107.932 89.6171 107.949 89.6955C107.966 89.7738 107.967 89.8547 107.952 89.9334C107.938 90.0122 107.908 90.0873 107.864 90.1545C107.82 90.2217 107.764 90.2796 107.698 90.325C100.264 95.4576 91.4408 98.1987 82.407 98.1816ZM122.707 71.8473C122.622 71.8474 122.538 71.8297 122.461 71.7954C122.387 71.7633 122.321 71.7171 122.266 71.6594C122.21 71.6017 122.166 71.5336 122.137 71.459C122.108 71.3844 122.094 71.3047 122.095 71.2247C122.097 71.1446 122.115 71.0656 122.147 70.9922C122.953 69.1559 123.629 67.2655 124.171 65.3347C124.193 65.2576 124.23 65.1855 124.279 65.1225C124.329 65.0596 124.39 65.007 124.46 64.9678C124.53 64.9286 124.607 64.9036 124.687 64.8941C124.766 64.8847 124.847 64.891 124.924 64.9127C125.001 64.9344 125.073 64.9711 125.136 65.0206C125.199 65.0702 125.252 65.1317 125.291 65.2016C125.33 65.2714 125.355 65.3484 125.365 65.4279C125.374 65.5075 125.368 65.5881 125.346 65.6653C124.79 67.6515 124.095 69.5959 123.264 71.484C123.217 71.592 123.138 71.6839 123.04 71.7484C122.941 71.8129 122.825 71.8473 122.707 71.8473ZM39.588 64.3076C39.45 64.307 39.3164 64.2601 39.2083 64.1744C39.1003 64.0887 39.0242 63.9691 38.9923 63.835C38.5191 61.8273 38.1867 59.7889 37.9977 57.7349C37.9828 57.5737 38.0327 57.4132 38.1362 57.2887C38.2397 57.1642 38.3884 57.086 38.5496 57.0711C38.7109 57.0563 38.8715 57.106 38.996 57.2095C39.1205 57.313 39.1988 57.4617 39.2137 57.6229C39.3965 59.621 39.7197 61.6037 40.1809 63.5563C40.2003 63.6457 40.1996 63.7383 40.179 63.8274C40.1584 63.9165 40.1183 63.9999 40.0616 64.0717C40.0049 64.1435 39.9331 64.2019 39.8512 64.2427C39.7693 64.2835 39.6794 64.3056 39.588 64.3076ZM43.0062 34.6077C42.9023 34.6073 42.8004 34.5804 42.7098 34.5297C42.6192 34.4791 42.543 34.4062 42.4884 34.3179C42.4337 34.2297 42.4024 34.129 42.3974 34.0253C42.3924 33.9217 42.4138 33.8184 42.4597 33.7253C45.9945 26.6218 51.3604 20.5894 58.0041 16.2501C64.6478 11.9108 72.3288 9.42162 80.2554 9.03917C88.1819 8.65672 96.0671 10.3949 103.098 14.0744C110.129 17.7539 116.051 23.2417 120.253 29.9719C120.302 30.0398 120.337 30.1171 120.355 30.1989C120.373 30.2808 120.374 30.3654 120.358 30.4477C120.342 30.5299 120.309 30.608 120.261 30.677C120.214 30.7461 120.153 30.8046 120.082 30.849C120.01 30.8935 119.931 30.9228 119.848 30.9353C119.765 30.9478 119.681 30.9431 119.6 30.9216C119.519 30.9 119.443 30.8621 119.377 30.8101C119.312 30.7581 119.257 30.6932 119.218 30.6193C115.13 24.073 109.37 18.7352 102.532 15.1561C95.6937 11.5771 88.0242 9.88632 80.3145 10.2582C72.6047 10.6301 65.1337 13.0511 58.6718 17.2717C52.2098 21.4923 46.9907 27.3597 43.5526 34.269C43.5023 34.3711 43.4246 34.4571 43.328 34.5174C43.2315 34.5777 43.12 34.61 43.0062 34.6104V34.6077Z" fill="#FFCC00"/>
<path d="M82.4071 20.2357C78.0022 20.1959 73.633 21.0289 69.5518 22.6866C65.4706 24.3444 61.7583 26.794 58.6293 29.8942C55.5003 32.9943 53.0166 36.6834 51.3216 40.7486C49.6266 44.8137 48.7539 49.1743 48.7539 53.5785C48.7539 57.9827 49.6266 62.3432 51.3216 66.4084C53.0166 70.4735 55.5003 74.1626 58.6293 77.2627C61.7583 80.3629 65.4706 82.8125 69.5518 84.4703C73.633 86.128 78.0022 86.961 82.4071 86.9212C91.1998 86.8416 99.6054 83.2937 105.795 77.0493C111.984 70.805 115.457 62.3696 115.457 53.5785C115.457 44.7873 111.984 36.3519 105.795 30.1076C99.6054 23.8632 91.1998 20.3153 82.4071 20.2357Z" fill="#FFCC00"/>
<path d="M85.9449 51.9053C87.5319 51.1062 88.8028 49.7953 89.5524 48.1846C90.3019 46.5739 90.4862 44.7576 90.0754 43.0292C89.6647 41.3008 88.6829 39.7615 87.2888 38.6601C85.8946 37.5586 84.1697 36.9595 82.3928 36.9595C80.616 36.9595 78.891 37.5586 77.4968 38.6601C76.1027 39.7615 75.1209 41.3008 74.7102 43.0292C74.2994 44.7576 74.4837 46.5739 75.2332 48.1846C75.9828 49.7953 77.2538 51.1062 78.8407 51.9053C75.8992 52.687 73.2987 54.4194 71.4445 56.8326C69.5902 59.2457 68.5862 62.2043 68.5889 65.2473C68.5889 69.5663 96.2049 69.5663 96.2049 65.2473C96.2053 62.2036 95.1995 59.2452 93.3439 56.8323C91.4883 54.4193 88.8871 52.6872 85.9449 51.9053Z" fill="white"/>
<path d="M431.916 92.33C431.883 92.334 431.849 92.334 431.815 92.33C425.049 91.201 418.618 88.5838 412.986 84.6674C407.354 80.751 402.663 75.6332 399.251 69.6835C399.169 69.543 399.148 69.376 399.19 69.2192C399.232 69.0624 399.334 68.9288 399.475 68.8476C399.615 68.7665 399.782 68.7445 399.939 68.7865C400.096 68.8285 400.23 68.9311 400.311 69.0716C403.631 74.8645 408.197 79.848 413.678 83.6623C419.16 87.4766 425.42 90.0265 432.006 91.128C432.155 91.1562 432.288 91.2382 432.379 91.3583C432.471 91.4784 432.515 91.6281 432.502 91.7787C432.49 91.9292 432.423 92.0699 432.313 92.1737C432.203 92.2775 432.059 92.337 431.908 92.3409L431.916 92.33ZM451.942 91.2701C451.795 91.2682 451.654 91.2138 451.544 91.1167C451.434 91.0196 451.363 90.8863 451.343 90.7411C451.323 90.5958 451.356 90.4482 451.436 90.3252C451.516 90.2022 451.637 90.1119 451.778 90.0708C453.379 89.6224 454.954 89.0862 456.497 88.4645C456.571 88.4346 456.65 88.4195 456.73 88.4203C456.811 88.421 456.89 88.4375 456.963 88.4689C457.037 88.5002 457.104 88.5457 457.16 88.6029C457.216 88.66 457.26 88.7276 457.29 88.8019C457.32 88.8762 457.335 88.9556 457.335 89.0357C457.334 89.1157 457.317 89.1949 457.286 89.2686C457.255 89.3423 457.209 89.409 457.152 89.4651C457.095 89.5212 457.027 89.5655 456.953 89.5955C455.37 90.2312 453.752 90.7784 452.108 91.2346C452.055 91.2542 451.999 91.2662 451.942 91.2701ZM479.23 70.1343C479.122 70.1343 479.016 70.105 478.924 70.0496C478.788 69.9686 478.688 69.8377 478.647 69.6847C478.606 69.5317 478.626 69.3686 478.703 69.2301C482.05 63.4549 484.082 57.0125 484.654 50.3621C485.225 43.7117 484.322 37.0171 482.009 30.7557C481.964 30.6068 481.977 30.4463 482.047 30.3069C482.116 30.1676 482.235 30.0598 482.381 30.0055C482.527 29.9513 482.688 29.9545 482.832 30.0147C482.975 30.0749 483.09 30.1875 483.154 30.3296C485.53 36.7603 486.458 43.6361 485.871 50.4664C485.283 57.2968 483.196 63.9136 479.757 69.8447C479.702 69.9345 479.624 70.0084 479.532 70.0591C479.439 70.1099 479.335 70.1358 479.23 70.1343ZM394.106 40.7486C394.077 40.7512 394.049 40.7512 394.021 40.7486C393.861 40.7255 393.717 40.6402 393.619 40.5113C393.522 40.3823 393.48 40.2202 393.502 40.0602C393.738 38.3692 394.066 36.6922 394.483 35.0364C394.526 34.8812 394.627 34.7485 394.765 34.6661C394.904 34.5836 395.069 34.5578 395.226 34.5939C395.382 34.6351 395.516 34.736 395.599 34.875C395.682 35.0139 395.707 35.1798 395.669 35.3369C395.26 36.9489 394.941 38.5823 394.712 40.2295C394.691 40.3745 394.617 40.5069 394.506 40.6022C394.394 40.6976 394.252 40.7495 394.106 40.7486ZM404.15 17.9109C404.034 17.9114 403.92 17.8787 403.822 17.8166C403.724 17.7546 403.645 17.6659 403.596 17.5608C403.547 17.4558 403.528 17.3388 403.543 17.2237C403.558 17.1086 403.605 17.0001 403.68 16.9111C408.037 11.6158 413.514 7.35265 419.717 4.42863C425.92 1.5046 432.695 -0.00745836 439.553 0.00136613H439.734C439.817 -0.0042299 439.901 0.00740505 439.98 0.035555C440.059 0.063705 440.131 0.107769 440.193 0.165012C440.254 0.222255 440.302 0.291457 440.336 0.368332C440.369 0.445207 440.387 0.528118 440.387 0.611919C440.387 0.695719 440.369 0.778626 440.336 0.855501C440.302 0.932376 440.254 1.00158 440.193 1.05882C440.131 1.11606 440.059 1.16013 439.98 1.18828C439.901 1.21643 439.817 1.22807 439.734 1.22247H439.54C432.864 1.21631 426.27 2.68997 420.232 5.53739C414.194 8.38481 408.863 12.5351 404.623 17.6896C404.565 17.7591 404.493 17.8149 404.411 17.8532C404.329 17.8914 404.24 17.9111 404.15 17.9109ZM471.656 14.3159C471.497 14.3161 471.344 14.2543 471.23 14.1438C470.042 12.9832 468.791 11.8888 467.484 10.8656C467.364 10.7632 467.289 10.6188 467.274 10.4624C467.258 10.306 467.303 10.1496 467.4 10.0256C467.496 9.90164 467.637 9.81957 467.792 9.79643C467.948 9.77329 468.106 9.81085 468.235 9.90133C469.578 10.9559 470.862 12.0831 472.082 13.2778C472.169 13.3624 472.229 13.471 472.254 13.5899C472.279 13.7087 472.268 13.8322 472.222 13.9447C472.176 14.0571 472.098 14.1533 471.997 14.2209C471.896 14.2885 471.777 14.3244 471.656 14.3241V14.3159Z" fill="#FFCC00"/>
<path d="M439.553 13.1386C435.148 13.0987 430.779 13.9317 426.697 15.5895C422.616 17.2472 418.904 19.6969 415.775 22.797C412.646 25.8971 410.162 29.5863 408.467 33.6514C406.772 37.7165 405.899 42.0771 405.899 46.4813C405.899 50.8855 406.772 55.2461 408.467 59.3112C410.162 63.3763 412.646 67.0655 415.775 70.1656C418.904 73.2657 422.616 75.7154 426.697 77.3731C430.779 79.0309 435.148 79.8639 439.553 79.824C448.345 79.7444 456.751 76.1965 462.94 69.9522C469.13 63.7078 472.602 55.2724 472.602 46.4813C472.602 37.6902 469.13 29.2547 462.94 23.0104C456.751 16.7661 448.345 13.2181 439.553 13.1386Z" fill="#FFCC00"/>
<path d="M439.553 80.4251C432.836 80.4257 426.27 78.4347 420.685 74.7041C415.099 70.9735 410.746 65.6707 408.175 59.4665C405.605 53.2622 404.932 46.4351 406.242 39.8486C407.553 33.262 410.787 27.2119 415.537 22.4633C420.286 17.7146 426.338 14.4808 432.926 13.1708C439.514 11.8608 446.342 12.5334 452.548 15.1036C458.754 17.6738 464.057 22.0261 467.789 27.6101C471.52 33.1941 473.512 39.759 473.511 46.4746C473.501 55.4757 469.92 64.1053 463.554 70.4701C457.188 76.8348 448.556 80.415 439.553 80.4251ZM439.553 13.7397C433.078 13.7397 426.748 15.6593 421.365 19.2558C415.981 22.8524 411.784 27.9643 409.306 33.9451C406.828 39.926 406.18 46.5072 407.443 52.8566C408.706 59.2059 411.824 65.0382 416.402 69.616C420.98 74.1938 426.814 77.3114 433.164 78.5747C439.515 79.838 446.098 79.1902 452.08 76.7132C458.063 74.2362 463.176 70.0413 466.774 64.6588C470.371 59.2764 472.292 52.9483 472.293 46.4746C472.278 37.7984 468.824 29.4818 462.687 23.3473C456.55 17.2129 448.231 13.7609 439.553 13.7479V13.7397Z" fill="#FFBB00"/>
<path d="M443.105 44.8081C444.692 44.009 445.963 42.6982 446.713 41.0875C447.462 39.4768 447.646 37.6604 447.236 35.9321C446.825 34.2037 445.843 32.6643 444.449 31.5629C443.055 30.4615 441.33 29.8623 439.553 29.8623C437.776 29.8623 436.051 30.4615 434.657 31.5629C433.263 32.6643 432.281 34.2037 431.87 35.9321C431.46 37.6604 431.644 39.4768 432.393 41.0875C433.143 42.6982 434.414 44.009 436.001 44.8081C433.06 45.5903 430.459 47.3227 428.605 49.7358C426.751 52.1489 425.747 55.1072 425.749 58.1502C425.749 62.4691 453.365 62.4691 453.365 58.1502C453.365 55.1066 452.359 52.1484 450.503 49.7355C448.648 47.3227 446.047 45.5904 443.105 44.8081Z" fill="white"/>
<path d="M91.4726 154.874C85.6233 154.939 80.0356 157.308 75.9223 161.466C71.809 165.624 69.502 171.237 69.502 177.085C69.502 182.933 71.809 188.546 75.9223 192.704C80.0356 196.862 85.6233 199.231 91.4726 199.296C97.3218 199.231 102.909 196.862 107.023 192.704C111.136 188.546 113.443 182.933 113.443 177.085C113.443 171.237 111.136 165.624 107.023 161.466C102.909 157.308 97.3218 154.939 91.4726 154.874Z" fill="#FFCC00"/>
<path d="M93.8314 175.969C94.889 175.437 95.7362 174.564 96.236 173.491C96.7358 172.418 96.8589 171.208 96.5856 170.057C96.3122 168.905 95.6583 167.88 94.7296 167.146C93.8009 166.412 92.6517 166.012 91.4679 166.012C90.2841 166.012 89.1349 166.412 88.2062 167.146C87.2775 167.88 86.6236 168.905 86.3503 170.057C86.0769 171.208 86.2001 172.418 86.6999 173.491C87.1997 174.564 88.0468 175.437 89.1044 175.969C87.1447 176.49 85.4123 177.644 84.1768 179.252C82.9414 180.86 82.2722 182.831 82.2734 184.858C82.2734 187.735 100.668 187.735 100.668 184.858C100.667 182.83 99.9968 180.86 98.7605 179.252C97.5243 177.645 95.7914 176.49 93.8314 175.969Z" fill="white"/>
<path d="M218.427 318.117C215.978 318.075 213.545 318.521 211.271 319.428C208.996 320.336 206.925 321.688 205.179 323.404C203.432 325.121 202.045 327.168 201.098 329.426C200.151 331.684 199.663 334.108 199.663 336.556C199.663 339.005 200.151 341.429 201.098 343.687C202.045 345.945 203.432 347.992 205.179 349.709C206.925 351.425 208.996 352.777 211.271 353.685C213.545 354.592 215.978 355.038 218.427 354.996C220.876 355.038 223.308 354.592 225.583 353.685C227.857 352.777 229.928 351.425 231.675 349.709C233.422 347.992 234.809 345.945 235.756 343.687C236.703 341.429 237.191 339.005 237.191 336.556C237.191 334.108 236.703 331.684 235.756 329.426C234.809 327.168 233.422 325.121 231.675 323.404C229.928 321.688 227.857 320.336 225.583 319.428C223.308 318.521 220.876 318.075 218.427 318.117Z" fill="#FFCC00"/>
<path d="M220.386 335.633C221.265 335.191 221.97 334.466 222.386 333.574C222.801 332.682 222.904 331.676 222.677 330.719C222.45 329.762 221.906 328.909 221.134 328.299C220.362 327.689 219.407 327.357 218.423 327.357C217.439 327.357 216.484 327.689 215.712 328.299C214.94 328.909 214.396 329.762 214.169 330.719C213.942 331.676 214.045 332.682 214.46 333.574C214.876 334.466 215.58 335.191 216.46 335.633C214.833 336.065 213.395 337.023 212.37 338.357C211.345 339.691 210.789 341.326 210.79 343.009C210.79 345.397 226.064 345.397 226.064 343.009C226.061 341.326 225.503 339.692 224.476 338.358C223.45 337.025 222.012 336.067 220.386 335.633Z" fill="#FFCC00"/>
<path d="M433.238 312.727C428.402 312.811 423.791 314.79 420.4 318.239C417.01 321.688 415.109 326.331 415.109 331.167C415.109 336.003 417.01 340.646 420.4 344.095C423.791 347.544 428.402 349.523 433.238 349.606C438.075 349.523 442.685 347.544 446.076 344.095C449.467 340.646 451.367 336.003 451.367 331.167C451.367 326.331 449.467 321.688 446.076 318.239C442.685 314.79 438.075 312.811 433.238 312.727Z" fill="#FFCC00"/>
<path d="M435.195 330.243C436.074 329.802 436.779 329.077 437.195 328.185C437.611 327.293 437.714 326.287 437.487 325.33C437.26 324.372 436.717 323.519 435.945 322.909C435.173 322.299 434.217 321.967 433.233 321.967C432.249 321.967 431.294 322.299 430.522 322.909C429.75 323.519 429.206 324.372 428.979 325.33C428.752 326.287 428.855 327.293 429.271 328.185C429.687 329.077 430.392 329.802 431.271 330.243C429.645 330.676 428.208 331.634 427.182 332.968C426.157 334.302 425.601 335.937 425.602 337.619C425.602 340.007 440.876 340.007 440.876 337.619C440.872 335.936 440.314 334.301 439.287 332.968C438.26 331.634 436.821 330.677 435.195 330.243Z" fill="white"/>
<path d="M439.775 135.88C432.006 135.88 424.556 138.965 419.063 144.457C413.569 149.949 410.483 157.398 410.483 165.165C410.483 172.932 413.569 180.38 419.063 185.872C424.556 191.364 432.006 194.449 439.775 194.449C443.621 194.449 447.43 193.692 450.984 192.22C454.537 190.749 457.766 188.591 460.486 185.872C463.206 183.153 465.364 179.925 466.836 176.372C468.308 172.819 469.065 169.011 469.065 165.165C469.065 161.319 468.308 157.511 466.836 153.958C465.364 150.405 463.206 147.177 460.486 144.457C457.766 141.738 454.537 139.581 450.984 138.109C447.43 136.638 443.621 135.88 439.775 135.88Z" fill="#FFCC00"/>
<path d="M442.884 163.69C444.278 162.988 445.395 161.837 446.054 160.423C446.713 159.008 446.876 157.413 446.515 155.895C446.155 154.376 445.293 153.024 444.068 152.057C442.844 151.089 441.329 150.562 439.768 150.562C438.207 150.562 436.692 151.089 435.467 152.057C434.243 153.024 433.381 154.376 433.02 155.895C432.66 157.413 432.822 159.008 433.481 160.423C434.14 161.837 435.257 162.988 436.652 163.69C434.068 164.377 431.784 165.898 430.156 168.018C428.528 170.138 427.646 172.736 427.648 175.409C427.648 179.201 451.904 179.201 451.904 175.409C451.903 172.734 451.019 170.135 449.387 168.016C447.756 165.896 445.47 164.375 442.884 163.69Z" fill="white"/>
<path d="M307.757 76.7698C307.757 77.9855 307.396 79.1738 306.72 80.1846C306.045 81.1954 305.085 81.9832 303.961 82.4484C302.838 82.9136 301.602 83.0354 300.409 82.7982C299.217 82.561 298.121 81.9756 297.262 81.116C296.402 80.2564 295.816 79.1612 295.579 77.9689C295.342 76.7766 295.464 75.5408 295.929 74.4176C296.394 73.2945 297.182 72.3345 298.193 71.6592C299.204 70.9838 300.393 70.6233 301.609 70.6233C303.239 70.6233 304.803 71.2709 305.956 72.4236C307.109 73.5762 307.757 75.1396 307.757 76.7698Z" fill="#FFCC00"/>
<path d="M165.256 278.542C165.256 279.185 165.065 279.814 164.707 280.349C164.35 280.884 163.841 281.301 163.247 281.548C162.652 281.794 161.998 281.858 161.366 281.733C160.735 281.607 160.155 281.297 159.7 280.842C159.245 280.387 158.935 279.807 158.81 279.176C158.684 278.545 158.748 277.891 158.995 277.297C159.241 276.702 159.658 276.194 160.193 275.836C160.729 275.479 161.358 275.288 162.001 275.288C162.864 275.289 163.692 275.632 164.302 276.242C164.912 276.852 165.255 277.679 165.256 278.542Z" fill="#FFCC00"/>
<path d="M135.598 149.088C135.598 149.732 135.408 150.361 135.05 150.896C134.692 151.431 134.184 151.848 133.589 152.094C132.995 152.34 132.341 152.405 131.709 152.279C131.078 152.154 130.498 151.844 130.043 151.389C129.588 150.934 129.278 150.354 129.152 149.723C129.027 149.092 129.091 148.438 129.338 147.843C129.584 147.249 130.001 146.741 130.536 146.383C131.071 146.026 131.7 145.835 132.344 145.835C133.207 145.835 134.034 146.178 134.644 146.788C135.255 147.398 135.598 148.226 135.598 149.088Z" fill="#FFCC00"/>
<path d="M394.561 262.271C394.561 263.13 394.307 263.969 393.83 264.683C393.353 265.397 392.675 265.953 391.881 266.282C391.088 266.61 390.215 266.696 389.373 266.529C388.53 266.361 387.757 265.948 387.15 265.341C386.542 264.734 386.129 263.96 385.961 263.118C385.794 262.276 385.88 261.403 386.208 260.61C386.537 259.817 387.094 259.139 387.808 258.662C388.522 258.185 389.361 257.93 390.22 257.93C390.79 257.93 391.355 258.042 391.882 258.26C392.409 258.478 392.887 258.798 393.291 259.201C393.694 259.604 394.014 260.083 394.232 260.61C394.45 261.136 394.562 261.701 394.561 262.271Z" fill="#FFCC00"/>
<path d="M409.751 202.967C409.751 203.11 409.709 203.251 409.63 203.37C409.551 203.49 409.438 203.583 409.305 203.638C409.173 203.693 409.027 203.708 408.886 203.68C408.746 203.652 408.616 203.583 408.515 203.482C408.413 203.38 408.344 203.251 408.317 203.11C408.289 202.97 408.303 202.824 408.358 202.691C408.413 202.559 408.507 202.446 408.626 202.367C408.746 202.287 408.886 202.245 409.03 202.246C409.221 202.246 409.404 202.322 409.54 202.457C409.675 202.592 409.751 202.776 409.751 202.967Z" fill="#FFCC00"/>
<path d="M354.775 158.491C354.775 159.278 354.542 160.047 354.105 160.701C353.667 161.355 353.046 161.865 352.319 162.166C351.592 162.467 350.792 162.546 350.021 162.392C349.249 162.239 348.54 161.86 347.984 161.304C347.427 160.747 347.048 160.039 346.895 159.267C346.741 158.496 346.82 157.696 347.121 156.969C347.422 156.242 347.932 155.621 348.587 155.184C349.241 154.747 350.01 154.514 350.797 154.514C351.852 154.514 352.864 154.933 353.61 155.679C354.356 156.425 354.775 157.436 354.775 158.491Z" fill="#FFCC00"/>
<path d="M363.456 61.2207C365.054 61.2207 366.35 59.9255 366.35 58.3278C366.35 56.73 365.054 55.4348 363.456 55.4348C361.858 55.4348 360.562 56.73 360.562 58.3278C360.562 59.9255 361.858 61.2207 363.456 61.2207Z" fill="#FFCC00"/>
<path d="M150.066 57.6037C152.862 57.6037 155.129 55.3374 155.129 52.5417C155.129 49.7461 152.862 47.4797 150.066 47.4797C147.27 47.4797 145.003 49.7461 145.003 52.5417C145.003 55.3374 147.27 57.6037 150.066 57.6037Z" fill="#FFCC00"/>
<path d="M84.7872 223.892C84.7877 224.464 84.6184 225.024 84.3008 225.5C83.9832 225.976 83.5315 226.347 83.0028 226.566C82.4741 226.786 81.8922 226.843 81.3308 226.732C80.7693 226.621 80.2535 226.345 79.8485 225.941C79.4436 225.537 79.1677 225.021 79.0558 224.46C78.9439 223.899 79.0011 223.317 79.22 222.788C79.4389 222.259 79.8098 221.807 80.2857 221.489C80.7616 221.171 81.3212 221.001 81.8936 221.001C82.6605 221.001 83.3961 221.306 83.9387 221.848C84.4812 222.39 84.7865 223.125 84.7872 223.892Z" fill="#FFCC00"/>
<path d="M276.654 325.192C276.654 325.764 276.485 326.324 276.167 326.8C275.849 327.275 275.397 327.646 274.868 327.865C274.339 328.084 273.758 328.141 273.196 328.03C272.635 327.918 272.119 327.642 271.715 327.238C271.31 326.833 271.034 326.318 270.923 325.757C270.811 325.195 270.869 324.614 271.088 324.085C271.307 323.557 271.677 323.105 272.153 322.787C272.629 322.469 273.189 322.299 273.761 322.299C274.528 322.299 275.264 322.604 275.807 323.147C276.35 323.689 276.654 324.425 276.654 325.192Z" fill="#FFCC00"/>
<path d="M361.955 344.344C362.34 342.589 361.23 340.854 359.474 340.468C357.719 340.082 355.983 341.193 355.598 342.948C355.212 344.703 356.322 346.438 358.078 346.824C359.833 347.209 361.569 346.099 361.955 344.344Z" fill="#FFCC00"/>
<path d="M320.056 7.7051C321.654 7.7051 322.949 6.40988 322.949 4.81214C322.949 3.21441 321.654 1.91919 320.056 1.91919C318.458 1.91919 317.162 3.21441 317.162 4.81214C317.162 6.40988 318.458 7.7051 320.056 7.7051Z" fill="#FFBB00"/>
<path d="M423.709 113.682C425.922 112.765 426.974 110.227 426.057 108.014C425.14 105.8 422.602 104.749 420.388 105.666C418.174 106.583 417.122 109.12 418.039 111.334C418.956 113.547 421.495 114.598 423.709 113.682Z" fill="#FFCC00"/>
<path d="M422.05 114.624C421.07 114.624 420.113 114.334 419.299 113.79C418.485 113.246 417.85 112.472 417.475 111.568C417.101 110.663 417.003 109.668 417.194 108.707C417.385 107.747 417.857 106.865 418.55 106.173C419.242 105.481 420.125 105.01 421.085 104.819C422.046 104.628 423.042 104.727 423.946 105.102C424.851 105.477 425.624 106.112 426.168 106.926C426.711 107.74 427.001 108.698 427.001 109.677C426.999 110.989 426.476 112.246 425.548 113.174C424.62 114.101 423.362 114.623 422.05 114.624ZM422.05 105.948C421.312 105.948 420.591 106.167 419.978 106.576C419.364 106.986 418.886 107.569 418.604 108.25C418.322 108.931 418.248 109.681 418.392 110.404C418.536 111.128 418.891 111.792 419.412 112.314C419.934 112.835 420.599 113.19 421.322 113.334C422.046 113.478 422.795 113.404 423.477 113.122C424.158 112.84 424.741 112.362 425.151 111.748C425.561 111.135 425.779 110.414 425.779 109.677C425.779 108.688 425.385 107.74 424.686 107.041C423.987 106.342 423.039 105.949 422.05 105.948Z" fill="#FFCC00"/>
<path d="M99.4297 285.412C99.4302 286.128 99.2185 286.827 98.8211 287.423C98.4238 288.018 97.8588 288.482 97.1977 288.756C96.5365 289.03 95.8089 289.102 95.1069 288.962C94.4049 288.823 93.76 288.478 93.2539 287.972C92.7478 287.466 92.4032 286.822 92.2637 286.12C92.1242 285.418 92.1961 284.691 92.4702 284.03C92.7444 283.369 93.2085 282.804 93.8039 282.407C94.3992 282.009 95.099 281.798 95.8147 281.798C96.7735 281.798 97.6929 282.179 98.3709 282.857C99.0488 283.534 99.4297 284.454 99.4297 285.412Z" fill="#FFCC00"/>
<path d="M95.8204 289.641C94.9837 289.641 94.1656 289.394 93.4697 288.93C92.7738 288.465 92.2312 287.805 91.9106 287.032C91.5901 286.26 91.5059 285.409 91.6688 284.589C91.8317 283.768 92.2344 283.015 92.8258 282.423C93.4172 281.831 94.1709 281.428 94.9914 281.265C95.812 281.101 96.6626 281.185 97.4356 281.505C98.2087 281.825 98.8694 282.367 99.3343 283.062C99.7992 283.758 100.047 284.576 100.047 285.412C100.047 286.533 99.6011 287.608 98.8086 288.401C98.0161 289.193 96.9415 289.639 95.8204 289.641ZM95.8204 282.407C95.2259 282.407 94.6448 282.583 94.1505 282.914C93.6562 283.244 93.271 283.713 93.0436 284.262C92.8161 284.811 92.7565 285.415 92.8725 285.998C92.9885 286.581 93.2748 287.117 93.6951 287.537C94.1154 287.957 94.651 288.243 95.234 288.359C95.817 288.475 96.4213 288.416 96.9705 288.188C97.5197 287.961 97.9892 287.576 98.3195 287.082C98.6497 286.587 98.826 286.006 98.826 285.412C98.826 284.615 98.5093 283.851 97.9456 283.287C97.382 282.724 96.6175 282.407 95.8204 282.407Z" fill="#FFBB00"/>
<path d="M186.956 316.871C186.954 318.086 186.592 319.273 185.915 320.282C185.239 321.291 184.279 322.077 183.156 322.541C182.033 323.005 180.797 323.126 179.606 322.888C178.414 322.651 177.32 322.066 176.461 321.207C175.602 320.348 175.016 319.253 174.779 318.062C174.541 316.871 174.662 315.636 175.126 314.513C175.59 313.391 176.376 312.431 177.386 311.754C178.395 311.078 179.582 310.716 180.797 310.714C181.606 310.712 182.408 310.871 183.156 311.18C183.903 311.489 184.583 311.942 185.155 312.514C185.727 313.086 186.181 313.766 186.49 314.513C186.799 315.261 186.957 316.062 186.956 316.871Z" fill="#FFCC00"/>
<path d="M180.797 323.63C179.46 323.63 178.153 323.233 177.041 322.49C175.929 321.748 175.063 320.692 174.551 319.457C174.04 318.222 173.906 316.863 174.167 315.552C174.428 314.241 175.072 313.036 176.018 312.091C176.964 311.146 178.168 310.503 179.48 310.242C180.791 309.982 182.151 310.116 183.386 310.628C184.621 311.14 185.677 312.007 186.419 313.118C187.161 314.23 187.557 315.537 187.557 316.874C187.554 318.665 186.841 320.382 185.574 321.649C184.306 322.915 182.589 323.627 180.797 323.63ZM180.797 311.337C179.702 311.337 178.631 311.661 177.72 312.27C176.809 312.878 176.099 313.743 175.68 314.755C175.261 315.767 175.151 316.88 175.365 317.954C175.579 319.028 176.106 320.015 176.881 320.789C177.655 321.564 178.642 322.091 179.716 322.305C180.791 322.519 181.904 322.409 182.917 321.99C183.929 321.571 184.794 320.861 185.402 319.95C186.011 319.04 186.336 317.969 186.336 316.874C186.334 315.406 185.75 313.998 184.712 312.96C183.673 311.922 182.265 311.338 180.797 311.337Z" fill="#FFCC00"/>
<path d="M97.2599 122.691C101.254 122.691 104.493 119.454 104.493 115.46C104.493 111.466 101.254 108.229 97.2599 108.229C93.2655 108.229 90.0273 111.466 90.0273 115.46C90.0273 119.454 93.2655 122.691 97.2599 122.691Z" fill="#FFCC00"/>
<path d="M97.2601 123.314C95.7093 123.313 94.1935 122.852 92.9045 121.99C91.6154 121.128 90.6107 119.904 90.0175 118.471C89.4243 117.038 89.2691 115.462 89.5715 113.941C89.8739 112.421 90.6204 111.024 91.7166 109.927C92.8129 108.83 94.2096 108.083 95.7305 107.78C97.2513 107.476 98.828 107.63 100.261 108.222C101.695 108.814 102.92 109.818 103.783 111.106C104.646 112.394 105.108 113.909 105.11 115.46C105.111 116.491 104.908 117.512 104.514 118.465C104.119 119.417 103.541 120.283 102.812 121.012C102.083 121.742 101.218 122.32 100.265 122.715C99.3124 123.11 98.2914 123.313 97.2601 123.314ZM97.2601 108.835C95.9501 108.835 94.6696 109.224 93.5804 109.951C92.4912 110.679 91.6423 111.713 91.141 112.923C90.6397 114.133 90.5086 115.465 90.7641 116.749C91.0197 118.034 91.6504 119.213 92.5767 120.14C93.503 121.066 94.6832 121.696 95.968 121.952C97.2528 122.207 98.5844 122.076 99.7947 121.575C101.005 121.074 102.039 120.225 102.767 119.136C103.495 118.047 103.883 116.767 103.883 115.457C103.88 113.702 103.182 112.019 101.94 110.778C100.699 109.537 99.0158 108.838 97.2601 108.835Z" fill="#FFCC00"/>
<path d="M192.022 104.976C192.022 106.764 191.491 108.512 190.498 109.999C189.504 111.486 188.091 112.645 186.439 113.329C184.786 114.014 182.968 114.193 181.213 113.844C179.459 113.495 177.847 112.634 176.583 111.369C175.318 110.105 174.456 108.494 174.107 106.74C173.758 104.986 173.938 103.167 174.622 101.515C175.307 99.863 176.466 98.4508 177.953 97.4572C179.44 96.4637 181.189 95.9333 182.978 95.9333C185.376 95.9333 187.677 96.886 189.373 98.5817C191.069 100.277 192.022 102.577 192.022 104.976Z" fill="#FFCC00"/>
<path d="M182.983 114.624C181.074 114.625 179.207 114.059 177.619 112.999C176.031 111.938 174.794 110.431 174.063 108.667C173.332 106.904 173.14 104.963 173.513 103.09C173.885 101.218 174.804 99.498 176.155 98.1481C177.505 96.7982 179.225 95.8789 181.098 95.5066C182.971 95.1343 184.912 95.3257 186.676 96.0565C188.44 96.7873 189.948 98.0248 191.008 99.6124C192.069 101.2 192.635 103.066 192.634 104.975C192.631 107.533 191.613 109.985 189.803 111.794C187.994 113.603 185.542 114.62 182.983 114.624ZM182.983 96.5451C181.316 96.5446 179.685 97.0386 178.298 97.9646C176.911 98.8906 175.83 100.207 175.191 101.747C174.553 103.288 174.385 104.983 174.71 106.618C175.035 108.254 175.838 109.756 177.017 110.936C178.196 112.115 179.699 112.918 181.335 113.243C182.97 113.569 184.666 113.402 186.207 112.764C187.748 112.126 189.065 111.046 189.991 109.659C190.918 108.273 191.413 106.643 191.413 104.975C191.411 102.74 190.523 100.597 188.943 99.0159C187.362 97.4349 185.219 96.5453 182.983 96.5424V96.5451Z" fill="#FFCC00"/>
<path d="M309.929 122.33C309.93 124.119 309.4 125.867 308.406 127.355C307.413 128.842 306.001 130.002 304.348 130.686C302.695 131.371 300.877 131.551 299.122 131.202C297.368 130.853 295.756 129.992 294.491 128.728C293.226 127.464 292.364 125.852 292.015 124.098C291.666 122.344 291.845 120.526 292.529 118.874C293.213 117.221 294.373 115.809 295.86 114.815C297.347 113.821 299.096 113.291 300.885 113.291C302.073 113.291 303.249 113.524 304.346 113.978C305.443 114.432 306.44 115.098 307.28 115.938C308.12 116.777 308.786 117.774 309.241 118.871C309.695 119.967 309.929 121.143 309.929 122.33Z" fill="#FFCC00"/>
<path d="M300.888 131.982C298.978 131.982 297.112 131.417 295.524 130.357C293.936 129.297 292.698 127.789 291.967 126.026C291.236 124.262 291.044 122.322 291.417 120.449C291.789 118.577 292.708 116.857 294.058 115.507C295.408 114.157 297.128 113.237 299.001 112.865C300.873 112.492 302.814 112.683 304.579 113.414C306.343 114.144 307.85 115.381 308.911 116.968C309.972 118.556 310.538 120.422 310.538 122.331C310.536 124.889 309.518 127.342 307.709 129.151C305.9 130.96 303.446 131.978 300.888 131.982ZM300.888 113.9C299.22 113.9 297.589 114.394 296.202 115.32C294.815 116.246 293.734 117.562 293.096 119.103C292.457 120.643 292.29 122.338 292.615 123.974C292.94 125.609 293.742 127.111 294.922 128.291C296.101 129.47 297.603 130.273 299.239 130.599C300.875 130.924 302.57 130.757 304.111 130.119C305.652 129.481 306.969 128.401 307.896 127.014C308.822 125.628 309.317 123.998 309.317 122.331C309.315 120.096 308.426 117.953 306.846 116.373C305.266 114.792 303.123 113.903 300.888 113.9Z" fill="#FFCC00"/>
<path d="M490.044 208.753C490.044 210.326 489.578 211.864 488.703 213.173C487.829 214.481 486.586 215.5 485.133 216.102C483.679 216.705 482.079 216.862 480.535 216.555C478.992 216.248 477.574 215.491 476.461 214.378C475.349 213.266 474.591 211.848 474.284 210.305C473.977 208.762 474.134 207.162 474.737 205.709C475.339 204.255 476.359 203.013 477.667 202.139C478.976 201.265 480.514 200.798 482.088 200.798C484.198 200.798 486.222 201.636 487.714 203.128C489.206 204.62 490.044 206.643 490.044 208.753Z" fill="#FFCC00"/>
<path d="M482.088 217.32C480.393 217.321 478.735 216.82 477.325 215.88C475.915 214.94 474.815 213.602 474.165 212.037C473.516 210.472 473.345 208.749 473.674 207.087C474.004 205.424 474.82 203.897 476.018 202.698C477.216 201.499 478.742 200.682 480.405 200.351C482.067 200.02 483.79 200.189 485.357 200.837C486.923 201.486 488.262 202.584 489.204 203.993C490.145 205.402 490.648 207.058 490.648 208.753C490.645 211.023 489.743 213.199 488.138 214.804C486.534 216.41 484.358 217.315 482.088 217.32ZM482.088 201.407C480.634 201.407 479.214 201.838 478.006 202.645C476.797 203.452 475.856 204.6 475.3 205.942C474.743 207.284 474.598 208.761 474.882 210.186C475.165 211.611 475.865 212.92 476.892 213.947C477.92 214.974 479.229 215.674 480.654 215.957C482.079 216.241 483.557 216.095 484.899 215.539C486.242 214.984 487.389 214.042 488.197 212.834C489.004 211.626 489.435 210.206 489.435 208.753C489.433 206.805 488.658 204.938 487.281 203.561C485.903 202.184 484.036 201.409 482.088 201.407Z" fill="#FFCC00"/>
<path d="M456.045 283.604C456.045 285.819 455.388 287.984 454.157 289.826C452.926 291.668 451.176 293.104 449.129 293.951C447.082 294.799 444.83 295.021 442.657 294.589C440.484 294.157 438.488 293.09 436.921 291.523C435.354 289.957 434.287 287.961 433.855 285.789C433.423 283.616 433.644 281.364 434.492 279.317C435.34 277.271 436.776 275.522 438.618 274.291C440.461 273.06 442.627 272.403 444.842 272.403C447.813 272.403 450.663 273.583 452.764 275.684C454.865 277.784 456.045 280.633 456.045 283.604Z" fill="#FFCC00"/>
<path d="M444.835 295.416C442.496 295.416 440.21 294.723 438.266 293.424C436.322 292.125 434.806 290.279 433.912 288.119C433.017 285.959 432.783 283.582 433.239 281.29C433.695 278.997 434.821 276.89 436.475 275.237C438.128 273.584 440.235 272.458 442.528 272.002C444.822 271.546 447.199 271.78 449.359 272.675C451.52 273.57 453.366 275.085 454.665 277.028C455.964 278.972 456.658 281.258 456.658 283.596C456.654 286.729 455.407 289.734 453.191 291.95C450.974 294.166 447.969 295.412 444.835 295.416ZM444.835 272.996C442.738 272.996 440.688 273.618 438.945 274.783C437.201 275.947 435.842 277.603 435.04 279.539C434.238 281.476 434.028 283.607 434.437 285.663C434.846 287.719 435.855 289.608 437.338 291.09C438.821 292.573 440.71 293.582 442.766 293.991C444.823 294.4 446.955 294.19 448.892 293.388C450.829 292.586 452.485 291.227 453.65 289.484C454.814 287.741 455.436 285.692 455.436 283.596C455.428 280.789 454.308 278.099 452.321 276.116C450.334 274.133 447.642 273.018 444.835 273.015V272.996Z" fill="#FFCC00"/>
<path d="M327.288 306.024C327.288 307.669 326.801 309.278 325.887 310.646C324.973 312.014 323.673 313.081 322.153 313.711C320.632 314.341 318.959 314.506 317.345 314.185C315.731 313.864 314.248 313.072 313.084 311.908C311.921 310.745 311.128 309.262 310.807 307.648C310.486 306.035 310.651 304.362 311.281 302.842C311.911 301.322 312.978 300.023 314.347 299.109C315.716 298.195 317.325 297.707 318.97 297.708C321.176 297.708 323.292 298.584 324.852 300.144C326.411 301.703 327.288 303.818 327.288 306.024Z" fill="#FFCC00"/>
<path d="M318.97 314.951C317.204 314.951 315.478 314.427 314.01 313.446C312.541 312.465 311.397 311.071 310.721 309.44C310.045 307.808 309.868 306.014 310.213 304.282C310.557 302.55 311.408 300.959 312.656 299.711C313.905 298.462 315.496 297.612 317.228 297.267C318.961 296.923 320.756 297.1 322.388 297.776C324.019 298.451 325.414 299.595 326.395 301.064C327.376 302.532 327.9 304.258 327.9 306.023C327.897 308.39 326.955 310.659 325.281 312.333C323.607 314.006 321.338 314.948 318.97 314.951ZM318.97 298.317C317.445 298.317 315.954 298.768 314.686 299.615C313.417 300.462 312.428 301.666 311.844 303.075C311.26 304.483 311.108 306.034 311.405 307.529C311.702 309.025 312.437 310.399 313.515 311.477C314.594 312.556 315.968 313.29 317.464 313.587C318.96 313.885 320.511 313.732 321.92 313.148C323.329 312.564 324.533 311.576 325.38 310.307C326.227 309.039 326.679 307.548 326.678 306.023C326.676 303.98 325.864 302.021 324.419 300.577C322.973 299.132 321.014 298.319 318.97 298.317Z" fill="#FFCC00"/>
<path d="M186.956 253.953C186.956 254.74 186.722 255.509 186.285 256.163C185.848 256.817 185.227 257.327 184.5 257.628C183.773 257.929 182.973 258.008 182.201 257.854C181.429 257.701 180.721 257.322 180.164 256.766C179.608 256.209 179.229 255.501 179.075 254.729C178.922 253.957 179.001 253.158 179.302 252.431C179.603 251.704 180.113 251.083 180.767 250.646C181.421 250.209 182.191 249.976 182.977 249.976C184.032 249.976 185.044 250.395 185.79 251.141C186.537 251.886 186.956 252.898 186.956 253.953Z" fill="#FFCC00"/>
<path d="M182.983 258.537C182.075 258.537 181.187 258.269 180.432 257.765C179.677 257.261 179.088 256.544 178.74 255.706C178.392 254.867 178.301 253.944 178.478 253.054C178.654 252.163 179.091 251.345 179.733 250.703C180.375 250.061 181.193 249.624 182.084 249.447C182.974 249.269 183.897 249.36 184.736 249.707C185.575 250.055 186.292 250.643 186.797 251.398C187.301 252.152 187.57 253.04 187.57 253.948C187.569 255.164 187.085 256.33 186.225 257.19C185.365 258.05 184.199 258.535 182.983 258.537ZM182.983 250.582C182.316 250.581 181.664 250.779 181.11 251.149C180.556 251.518 180.123 252.044 179.868 252.66C179.613 253.276 179.546 253.953 179.676 254.607C179.806 255.26 180.127 255.861 180.598 256.332C181.069 256.803 181.67 257.124 182.323 257.254C182.977 257.384 183.655 257.317 184.271 257.062C184.886 256.806 185.412 256.374 185.782 255.82C186.152 255.266 186.35 254.614 186.349 253.948C186.346 253.056 185.99 252.203 185.36 251.573C184.729 250.943 183.874 250.589 182.983 250.587V250.582Z" fill="#FFBB00"/>
<path d="M179.723 168.615C179.723 169.402 179.49 170.171 179.053 170.825C178.616 171.479 177.994 171.989 177.267 172.29C176.54 172.591 175.741 172.669 174.969 172.516C174.197 172.362 173.488 171.984 172.932 171.427C172.375 170.871 171.997 170.162 171.843 169.391C171.69 168.619 171.768 167.82 172.069 167.093C172.371 166.366 172.88 165.745 173.535 165.308C174.189 164.871 174.958 164.637 175.745 164.637C176.8 164.637 177.812 165.057 178.558 165.802C179.304 166.548 179.723 167.56 179.723 168.615Z" fill="#FFCC00"/>
<path d="M175.745 173.204C174.836 173.205 173.948 172.936 173.193 172.432C172.438 171.928 171.849 171.211 171.501 170.373C171.154 169.534 171.062 168.611 171.239 167.72C171.416 166.83 171.854 166.012 172.496 165.37C173.138 164.728 173.956 164.291 174.847 164.114C175.738 163.937 176.661 164.028 177.5 164.376C178.339 164.723 179.056 165.312 179.56 166.067C180.064 166.822 180.333 167.71 180.332 168.618C180.331 169.834 179.847 171 178.987 171.859C178.127 172.719 176.961 173.203 175.745 173.204ZM175.745 165.249C175.078 165.249 174.426 165.446 173.872 165.816C173.318 166.186 172.885 166.711 172.63 167.327C172.375 167.942 172.307 168.62 172.437 169.273C172.567 169.927 172.888 170.527 173.359 170.999C173.83 171.47 174.43 171.791 175.084 171.921C175.737 172.051 176.415 171.985 177.03 171.73C177.646 171.475 178.172 171.043 178.543 170.489C178.913 169.935 179.111 169.284 179.111 168.618C179.11 167.725 178.755 166.869 178.124 166.238C177.493 165.606 176.637 165.251 175.745 165.249Z" fill="#FFCC00"/>
<path d="M376.476 165.001C376.476 165.644 376.284 166.273 375.927 166.808C375.569 167.342 375.06 167.759 374.466 168.005C373.871 168.251 373.217 168.315 372.585 168.189C371.954 168.063 371.375 167.753 370.92 167.298C370.465 166.843 370.155 166.263 370.03 165.632C369.905 165.001 369.969 164.347 370.216 163.752C370.462 163.158 370.879 162.65 371.414 162.293C371.949 161.935 372.579 161.745 373.222 161.745C373.65 161.745 374.073 161.829 374.468 161.993C374.863 162.156 375.222 162.396 375.524 162.699C375.826 163.001 376.066 163.36 376.229 163.755C376.393 164.15 376.477 164.573 376.476 165.001Z" fill="#FFCC00"/>
<path d="M373.222 168.863C372.457 168.863 371.709 168.637 371.073 168.212C370.438 167.787 369.942 167.183 369.649 166.477C369.357 165.77 369.281 164.993 369.43 164.243C369.579 163.493 369.948 162.804 370.489 162.264C371.03 161.723 371.719 161.355 372.469 161.207C373.219 161.058 373.997 161.135 374.703 161.428C375.41 161.721 376.013 162.216 376.438 162.852C376.862 163.489 377.089 164.236 377.088 165.001C377.087 166.025 376.679 167.007 375.954 167.732C375.229 168.456 374.247 168.863 373.222 168.863ZM373.222 162.356C372.699 162.356 372.187 162.511 371.752 162.802C371.317 163.093 370.978 163.506 370.778 163.989C370.578 164.472 370.526 165.004 370.628 165.517C370.73 166.03 370.982 166.501 371.351 166.871C371.721 167.24 372.193 167.492 372.706 167.594C373.219 167.696 373.751 167.644 374.234 167.444C374.717 167.244 375.13 166.905 375.421 166.47C375.712 166.035 375.867 165.524 375.867 165.001C375.866 164.3 375.587 163.627 375.091 163.132C374.595 162.636 373.923 162.357 373.222 162.356Z" fill="#FFBB00"/>
<path d="M257.074 266.046H256.976C248.307 264.6 240.067 261.246 232.852 256.227C225.636 251.209 219.626 244.651 215.255 237.027C215.215 236.957 215.188 236.88 215.178 236.8C215.167 236.72 215.172 236.639 215.193 236.561C215.213 236.483 215.249 236.41 215.298 236.345C215.347 236.281 215.408 236.227 215.478 236.187C215.548 236.146 215.625 236.12 215.705 236.109C215.785 236.098 215.866 236.103 215.944 236.124C216.022 236.145 216.096 236.181 216.16 236.23C216.224 236.279 216.278 236.34 216.318 236.409C220.6 243.876 226.487 250.3 233.553 255.216C240.62 260.132 248.69 263.418 257.181 264.836C257.332 264.861 257.468 264.942 257.562 265.063C257.656 265.184 257.701 265.335 257.689 265.488C257.676 265.64 257.606 265.783 257.493 265.886C257.381 265.99 257.233 266.047 257.08 266.046H257.074ZM282.808 264.681C282.661 264.679 282.52 264.624 282.41 264.527C282.3 264.43 282.229 264.297 282.209 264.152C282.189 264.006 282.222 263.859 282.302 263.736C282.382 263.613 282.503 263.522 282.644 263.481C284.709 262.904 286.74 262.212 288.729 261.411C288.879 261.35 289.047 261.352 289.196 261.415C289.345 261.478 289.462 261.598 289.523 261.748C289.583 261.898 289.582 262.066 289.518 262.215C289.455 262.364 289.335 262.481 289.185 262.542C287.156 263.361 285.082 264.067 282.975 264.656C282.921 264.674 282.865 264.684 282.808 264.686V264.681ZM317.875 237.521C317.768 237.522 317.662 237.494 317.569 237.439C317.433 237.358 317.334 237.227 317.292 237.074C317.251 236.921 317.271 236.758 317.348 236.62C321.662 229.176 324.28 220.872 325.016 212.3C325.752 203.729 324.589 195.1 321.608 187.03C321.58 186.955 321.567 186.875 321.57 186.795C321.572 186.715 321.591 186.636 321.624 186.564C321.657 186.491 321.705 186.425 321.763 186.371C321.822 186.316 321.891 186.274 321.966 186.246C322.041 186.218 322.12 186.205 322.2 186.208C322.28 186.211 322.359 186.229 322.432 186.262C322.505 186.296 322.57 186.343 322.625 186.401C322.679 186.46 322.722 186.529 322.75 186.604C325.795 194.842 326.984 203.651 326.233 212.402C325.481 221.153 322.808 229.63 318.403 237.229C318.348 237.32 318.271 237.396 318.179 237.448C318.086 237.5 317.982 237.527 317.875 237.527V237.521ZM208.496 199.765C208.468 199.768 208.441 199.768 208.414 199.765C208.334 199.755 208.257 199.728 208.188 199.688C208.119 199.647 208.058 199.594 208.009 199.53C207.961 199.466 207.926 199.393 207.905 199.315C207.885 199.237 207.88 199.156 207.892 199.077C208.193 196.91 208.611 194.762 209.146 192.641C209.163 192.561 209.197 192.485 209.244 192.417C209.291 192.35 209.352 192.293 209.422 192.25C209.492 192.207 209.569 192.178 209.651 192.166C209.732 192.153 209.815 192.157 209.894 192.177C209.974 192.197 210.049 192.233 210.114 192.283C210.18 192.333 210.235 192.395 210.275 192.466C210.316 192.538 210.342 192.617 210.352 192.698C210.362 192.78 210.355 192.862 210.332 192.941C209.806 195.018 209.394 197.122 209.099 199.244C209.078 199.389 209.006 199.521 208.895 199.617C208.784 199.713 208.642 199.766 208.496 199.765ZM221.401 170.421C221.285 170.421 221.172 170.388 221.074 170.326C220.976 170.264 220.898 170.176 220.849 170.071C220.8 169.967 220.781 169.85 220.796 169.735C220.81 169.621 220.857 169.513 220.931 169.423C226.511 162.638 233.528 157.175 241.476 153.429C249.423 149.682 258.103 147.744 266.889 147.755H267.119C267.202 147.749 267.286 147.761 267.365 147.789C267.444 147.817 267.516 147.861 267.578 147.919C267.639 147.976 267.688 148.045 267.721 148.122C267.754 148.199 267.772 148.282 267.772 148.366C267.772 148.449 267.754 148.532 267.721 148.609C267.688 148.686 267.639 148.755 267.578 148.812C267.516 148.87 267.444 148.914 267.365 148.942C267.286 148.97 267.202 148.982 267.119 148.976H266.889C258.283 148.966 249.781 150.864 241.996 154.534C234.212 158.204 227.338 163.554 221.871 170.199C221.814 170.269 221.742 170.325 221.661 170.363C221.579 170.401 221.49 170.421 221.401 170.421ZM308.14 165.812C307.98 165.811 307.828 165.748 307.714 165.637C306.182 164.137 304.569 162.722 302.883 161.398C302.767 161.294 302.695 161.149 302.681 160.994C302.668 160.839 302.714 160.685 302.811 160.563C302.907 160.44 303.046 160.359 303.201 160.336C303.355 160.313 303.512 160.35 303.64 160.439C305.355 161.791 306.997 163.235 308.558 164.763C308.645 164.848 308.704 164.957 308.729 165.076C308.754 165.195 308.742 165.319 308.696 165.432C308.65 165.544 308.572 165.641 308.47 165.708C308.369 165.776 308.25 165.812 308.129 165.812H308.14Z" fill="#FFCC00"/>
<path d="M266.888 283.123C266.718 283.125 266.553 283.064 266.425 282.95C266.298 282.837 266.218 282.68 266.2 282.511C266.191 282.435 266.198 282.358 266.22 282.285C266.242 282.212 266.28 282.144 266.33 282.087C266.38 282.029 266.442 281.982 266.511 281.95C266.581 281.918 266.656 281.9 266.733 281.899H266.905C279.666 281.9 292.215 278.63 303.352 272.401C303.422 272.361 303.499 272.336 303.578 272.327C303.658 272.317 303.738 272.323 303.815 272.345C303.892 272.366 303.965 272.403 304.028 272.452C304.091 272.502 304.143 272.563 304.182 272.633C304.222 272.703 304.247 272.779 304.257 272.859C304.266 272.938 304.26 273.019 304.238 273.096C304.217 273.173 304.18 273.245 304.131 273.308C304.081 273.371 304.02 273.424 303.95 273.463C292.626 279.799 279.865 283.125 266.888 283.123ZM341.127 220.134H341.029C340.869 220.107 340.726 220.018 340.631 219.886C340.537 219.755 340.498 219.591 340.523 219.431C340.78 217.874 340.988 216.282 341.143 214.692C341.167 214.534 341.249 214.39 341.372 214.289C341.496 214.188 341.653 214.137 341.813 214.146C341.892 214.153 341.97 214.177 342.04 214.215C342.111 214.252 342.173 214.304 342.224 214.366C342.275 214.427 342.313 214.499 342.336 214.575C342.359 214.652 342.367 214.732 342.359 214.812C342.201 216.427 341.988 218.046 341.731 219.628C341.708 219.772 341.635 219.902 341.524 219.997C341.413 220.091 341.272 220.142 341.127 220.142V220.134ZM191.999 200.623H191.942C191.862 200.615 191.785 200.592 191.714 200.554C191.644 200.516 191.581 200.465 191.531 200.403C191.48 200.341 191.442 200.27 191.419 200.193C191.395 200.117 191.388 200.036 191.396 199.957C191.551 198.342 191.762 196.719 192.016 195.141C192.029 195.061 192.057 194.986 192.099 194.917C192.141 194.849 192.196 194.79 192.261 194.743C192.326 194.696 192.399 194.662 192.477 194.644C192.555 194.625 192.636 194.622 192.715 194.635C192.794 194.648 192.87 194.676 192.938 194.718C193.007 194.76 193.066 194.815 193.113 194.88C193.16 194.945 193.194 195.019 193.212 195.097C193.231 195.175 193.234 195.255 193.221 195.334C192.969 196.889 192.764 198.484 192.611 200.074C192.596 200.225 192.525 200.365 192.411 200.467C192.298 200.568 192.151 200.624 191.999 200.623ZM229.979 142.357C229.844 142.358 229.713 142.313 229.606 142.231C229.498 142.148 229.422 142.032 229.388 141.902C229.353 141.771 229.364 141.632 229.417 141.508C229.47 141.384 229.563 141.281 229.682 141.215C241.04 134.832 253.851 131.481 266.88 131.485H267.189C267.344 131.495 267.489 131.564 267.595 131.677C267.701 131.791 267.76 131.94 267.76 132.095C267.76 132.25 267.701 132.4 267.595 132.513C267.489 132.627 267.344 132.695 267.189 132.706H266.88C254.061 132.699 241.457 135.992 230.28 142.267C230.19 142.323 230.086 142.354 229.979 142.357Z" fill="#FFCC00"/>
<path d="M266.888 160.977C260.773 160.93 254.709 162.094 249.045 164.401C243.382 166.708 238.231 170.113 233.89 174.42C229.55 178.727 226.104 183.85 223.753 189.494C221.402 195.139 220.191 201.192 220.191 207.307C220.191 213.421 221.402 219.474 223.753 225.119C226.104 230.763 229.55 235.886 233.89 240.193C238.231 244.5 243.382 247.905 249.045 250.212C254.709 252.519 260.773 253.683 266.888 253.636C279.117 253.542 290.812 248.62 299.426 239.941C308.04 231.263 312.874 219.533 312.874 207.307C312.874 195.08 308.04 183.35 299.426 174.672C290.812 165.993 279.117 161.071 266.888 160.977Z" fill="#FFCC00"/>
<path d="M266.889 254.248C241 254.248 219.938 233.189 219.938 207.308C219.938 181.427 241 160.368 266.889 160.368C292.778 160.368 313.839 181.424 313.839 207.308C313.839 233.191 292.778 254.248 266.889 254.248ZM266.889 161.586C241.672 161.586 221.16 182.096 221.16 207.308C221.16 232.519 241.672 253.027 266.889 253.027C292.106 253.027 312.618 232.517 312.618 207.308C312.618 182.099 292.103 161.586 266.889 161.586Z" fill="#FFCC00"/>
<path d="M271.807 204.994C274.014 203.885 275.782 202.064 276.825 199.826C277.868 197.587 278.125 195.063 277.555 192.66C276.985 190.257 275.621 188.117 273.683 186.586C271.745 185.055 269.348 184.222 266.878 184.222C264.408 184.222 262.011 185.055 260.073 186.586C258.135 188.117 256.771 190.257 256.201 192.66C255.631 195.063 255.888 197.587 256.931 199.826C257.974 202.064 259.742 203.885 261.949 204.994C257.861 206.081 254.248 208.488 251.671 211.842C249.094 215.195 247.699 219.306 247.702 223.535C247.702 229.545 286.073 229.545 286.073 223.535C286.072 219.304 284.673 215.193 282.093 211.84C279.513 208.487 275.897 206.08 271.807 204.994Z" fill="white"/>
<circle cx="280.5" cy="199.501" r="144.5" fill="#FFCC00"/>
</svg>
