<svg width="65" height="65" viewBox="0 0 65 65" fill="none" xmlns="http://www.w3.org/2000/svg">
<g id="heroicons:building-library-16-solid">
<path id="Vector" fill-rule="evenodd" clip-rule="evenodd" d="M30.8966 8.5801C31.3786 8.28149 31.9343 8.12329 32.5013 8.12329C33.0683 8.12329 33.624 8.28149 34.106 8.5801L55.4341 21.7832C56.0746 22.1783 56.5463 22.7964 56.7582 23.5184C56.9702 24.2405 56.9074 25.0155 56.582 25.694C56.2566 26.3725 55.6916 26.9067 54.9959 27.1935C54.3001 27.4802 53.5229 27.4994 52.8138 27.2473V50.7814H53.8295C54.6375 50.7814 55.4125 51.1024 55.9839 51.6738C56.5553 52.2452 56.8763 53.0201 56.8763 53.8282C56.8763 54.6363 56.5553 55.4113 55.9839 55.9827C55.4125 56.5541 54.6375 56.8751 53.8295 56.8751H11.1732C10.3651 56.8751 9.59013 56.5541 9.01873 55.9827C8.44733 55.4113 8.12633 54.6363 8.12633 53.8282C8.12633 53.0201 8.44733 52.2452 9.01873 51.6738C9.59013 51.1024 10.3651 50.7814 11.1732 50.7814H12.1888V27.2473C11.4798 27.4994 10.7025 27.4802 10.0068 27.1935C9.31106 26.9067 8.74606 26.3725 8.42067 25.694C8.09527 25.0155 8.03249 24.2405 8.24442 23.5184C8.45636 22.7964 8.92801 22.1783 9.56851 21.7832L30.8966 8.5801ZM18.2826 35.547C18.2826 34.7389 18.6036 33.9639 19.175 33.3925C19.7464 32.8211 20.5214 32.5001 21.3295 32.5001C22.1375 32.5001 22.9125 32.8211 23.4839 33.3925C24.0553 33.9639 24.3763 34.7389 24.3763 35.547V47.7345C24.3763 48.5426 24.0553 49.3175 23.4839 49.8889C22.9125 50.4603 22.1375 50.7814 21.3295 50.7814C20.5214 50.7814 19.7464 50.4603 19.175 49.8889C18.6036 49.3175 18.2826 48.5426 18.2826 47.7345V35.547ZM32.5013 32.5001C31.6932 32.5001 30.9183 32.8211 30.3469 33.3925C29.7755 33.9639 29.4545 34.7389 29.4545 35.547V47.7345C29.4545 48.5426 29.7755 49.3175 30.3469 49.8889C30.9183 50.4603 31.6932 50.7814 32.5013 50.7814C33.3094 50.7814 34.0844 50.4603 34.6558 49.8889C35.2272 49.3175 35.5482 48.5426 35.5482 47.7345V35.547C35.5482 34.7389 35.2272 33.9639 34.6558 33.3925C34.0844 32.8211 33.3094 32.5001 32.5013 32.5001ZM40.6263 35.547C40.6263 34.7389 40.9473 33.9639 41.5187 33.3925C42.0901 32.8211 42.8651 32.5001 43.6732 32.5001C44.4813 32.5001 45.2563 32.8211 45.8277 33.3925C46.3991 33.9639 46.7201 34.7389 46.7201 35.547V47.7345C46.7201 48.5426 46.3991 49.3175 45.8277 49.8889C45.2563 50.4603 44.4813 50.7814 43.6732 50.7814C42.8651 50.7814 42.0901 50.4603 41.5187 49.8889C40.9473 49.3175 40.6263 48.5426 40.6263 47.7345V35.547ZM32.5013 24.3751C33.5788 24.3751 34.6121 23.9471 35.3739 23.1852C36.1358 22.4234 36.5638 21.39 36.5638 20.3126C36.5638 19.2352 36.1358 18.2018 35.3739 17.44C34.6121 16.6781 33.5788 16.2501 32.5013 16.2501C31.4239 16.2501 30.3906 16.6781 29.6287 17.44C28.8668 18.2018 28.4388 19.2352 28.4388 20.3126C28.4388 21.39 28.8668 22.4234 29.6287 23.1852C30.3906 23.9471 31.4239 24.3751 32.5013 24.3751Z" fill="#111933"/>
</g>
</svg>
