<svg width="60" height="60" viewBox="0 0 60 60" fill="none" xmlns="http://www.w3.org/2000/svg">
<circle cx="30" cy="30" r="30" fill="#111933"/>
<path fill-rule="evenodd" clip-rule="evenodd" d="M25.3964 15H34.6051C34.912 15 35.1478 15 35.3529 15.0223C36.2633 15.1198 37.1087 15.5397 37.7366 16.206C38.3645 16.8723 38.7335 17.7412 38.7769 18.6558C39.5954 18.9031 40.3141 19.4041 40.8292 20.0866C41.3444 20.769 41.6293 21.5976 41.6427 22.4526C42.4813 22.7037 43.2054 23.1014 43.797 23.7405C44.7067 24.7242 44.9886 25.934 44.9997 27.3488C45.0095 28.7093 44.7681 30.4284 44.4667 32.5619L43.8528 36.907C43.6184 38.5758 43.4273 39.9321 43.1301 40.994C42.8189 42.106 42.3599 43.02 41.5116 43.7233C40.6688 44.4209 39.6698 44.7209 38.4895 44.8633C37.3468 45 35.9096 45 34.1223 45H25.8792C24.0904 45 22.6533 45 21.512 44.8633C20.3302 44.7209 19.3312 44.4209 18.4885 43.7233C17.6402 43.02 17.1811 42.1047 16.87 40.994C16.5728 39.9321 16.3817 38.5758 16.1459 36.9056L15.5334 32.5619C15.2334 30.427 14.9892 28.7093 15.0004 27.3488C15.0115 25.934 15.2934 24.7242 16.2031 23.7405C16.7947 23.1014 17.5174 22.7051 18.356 22.4526C18.3698 21.5976 18.655 20.7693 19.1704 20.0871C19.6858 19.4049 20.4047 18.9041 21.2232 18.6572C21.2663 17.7424 21.6351 16.8732 22.263 16.2065C22.891 15.5399 23.7366 15.1199 24.6472 15.0223C24.8523 15 25.0881 15 25.3936 15M20.4963 22.0856C21.7883 21.9767 23.3705 21.9767 25.2778 21.9767H34.7209C36.6268 21.9767 38.209 21.9767 39.5024 22.0856C39.4065 21.6579 39.1676 21.2758 38.8251 21.0023C38.4826 20.7288 38.0571 20.5803 37.6188 20.5814H22.3813C21.4478 20.5814 20.6902 21.2372 20.4991 22.0856M35.1311 17.1042C35.8985 17.1851 36.5054 17.7572 36.6547 18.4884H23.3482C23.4222 18.1256 23.6097 17.7958 23.8837 17.5467C24.1576 17.2976 24.5036 17.1421 24.8718 17.1028C24.9499 17.0944 25.0615 17.093 25.4536 17.093H34.5479C34.9385 17.093 35.0502 17.0944 35.1297 17.1028M17.7406 25.1609C18.1634 24.7046 18.7982 24.4019 20.033 24.2372C21.2902 24.0698 22.9742 24.0684 25.3573 24.0684H34.6441C37.0272 24.0684 38.7113 24.0712 39.9684 24.2372C41.2032 24.4019 41.8381 24.7046 42.2608 25.1609C42.6738 25.6074 42.8985 26.2144 42.9068 27.3642C42.9152 28.5502 42.6975 30.113 42.3822 32.354L41.792 36.54C41.5437 38.2995 41.3707 39.5163 41.1153 40.4288C40.8684 41.3079 40.5796 41.7753 40.1763 42.1088C39.7675 42.4493 39.2178 42.667 38.2397 42.7842C37.2365 42.9042 35.9264 42.9056 34.0539 42.9056H25.9475C24.0751 42.9056 22.765 42.9042 21.7618 42.7842C20.7851 42.6656 20.234 42.4493 19.8252 42.1102C19.4219 41.7753 19.1331 41.3065 18.8861 40.4288C18.6308 39.5163 18.4578 38.2995 18.2095 36.54L17.6193 32.354C17.3039 30.1144 17.0863 28.5502 17.0946 27.3642C17.103 26.2144 17.3277 25.606 17.7406 25.1609Z" fill="white"/>
<path fill-rule="evenodd" clip-rule="evenodd" d="M24 38C24 37.7348 24.1264 37.4804 24.3515 37.2929C24.5765 37.1054 24.8817 37 25.2 37H34.8C35.1183 37 35.4235 37.1054 35.6485 37.2929C35.8736 37.4804 36 37.7348 36 38C36 38.2652 35.8736 38.5196 35.6485 38.7071C35.4235 38.8946 35.1183 39 34.8 39H25.2C24.8817 39 24.5765 38.8946 24.3515 38.7071C24.1264 38.5196 24 38.2652 24 38Z" fill="white"/>
</svg>
