<svg width="60" height="60" viewBox="0 0 60 60" fill="none" xmlns="http://www.w3.org/2000/svg">
<circle cx="30" cy="30" r="30" fill="#FFCC00"/>
<path fill-rule="evenodd" clip-rule="evenodd" d="M29.465 14.2741C29.7553 14.0949 30.0899 14 30.4313 14C30.7728 14 31.1074 14.0949 31.3976 14.2741L44.2411 22.196C44.6268 22.433 44.9108 22.8038 45.0384 23.2371C45.166 23.6703 45.1282 24.1353 44.9323 24.5424C44.7363 24.9496 44.3961 25.27 43.9771 25.4421C43.5582 25.6142 43.0901 25.6257 42.6632 25.4744V39.5948H43.2747C43.7614 39.5948 44.228 39.7874 44.5721 40.1303C44.9162 40.4731 45.1095 40.9381 45.1095 41.423C45.1095 41.9078 44.9162 42.3728 44.5721 42.7156C44.228 43.0585 43.7614 43.2511 43.2747 43.2511H17.5879C17.1013 43.2511 16.6346 43.0585 16.2905 42.7156C15.9465 42.3728 15.7532 41.9078 15.7532 41.423C15.7532 40.9381 15.9465 40.4731 16.2905 40.1303C16.6346 39.7874 17.1013 39.5948 17.5879 39.5948H18.1995V25.4744C17.7725 25.6257 17.3045 25.6142 16.8855 25.4421C16.4666 25.27 16.1263 24.9496 15.9304 24.5424C15.7344 24.1353 15.6966 23.6703 15.8243 23.2371C15.9519 22.8038 16.2359 22.433 16.6216 22.196L29.465 14.2741ZM21.8691 30.4542C21.8691 29.9694 22.0624 29.5044 22.4065 29.1615C22.7505 28.8187 23.2172 28.6261 23.7038 28.6261C24.1904 28.6261 24.6571 28.8187 25.0012 29.1615C25.3453 29.5044 25.5386 29.9694 25.5386 30.4542V37.7667C25.5386 38.2516 25.3453 38.7165 25.0012 39.0594C24.6571 39.4022 24.1904 39.5948 23.7038 39.5948C23.2172 39.5948 22.7505 39.4022 22.4065 39.0594C22.0624 38.7165 21.8691 38.2516 21.8691 37.7667V30.4542ZM30.4313 28.6261C29.9447 28.6261 29.478 28.8187 29.134 29.1615C28.7899 29.5044 28.5966 29.9694 28.5966 30.4542V37.7667C28.5966 38.2516 28.7899 38.7165 29.134 39.0594C29.478 39.4022 29.9447 39.5948 30.4313 39.5948C30.9179 39.5948 31.3846 39.4022 31.7287 39.0594C32.0728 38.7165 32.2661 38.2516 32.2661 37.7667V30.4542C32.2661 29.9694 32.0728 29.5044 31.7287 29.1615C31.3846 28.8187 30.9179 28.6261 30.4313 28.6261ZM35.3241 30.4542C35.3241 29.9694 35.5174 29.5044 35.8615 29.1615C36.2055 28.8187 36.6722 28.6261 37.1588 28.6261C37.6454 28.6261 38.1121 28.8187 38.4562 29.1615C38.8003 29.5044 38.9936 29.9694 38.9936 30.4542V37.7667C38.9936 38.2516 38.8003 38.7165 38.4562 39.0594C38.1121 39.4022 37.6454 39.5948 37.1588 39.5948C36.6722 39.5948 36.2055 39.4022 35.8615 39.0594C35.5174 38.7165 35.3241 38.2516 35.3241 37.7667V30.4542ZM30.4313 23.7511C31.0801 23.7511 31.7024 23.4943 32.1612 23.0372C32.62 22.58 32.8777 21.9601 32.8777 21.3136C32.8777 20.6671 32.62 20.0471 32.1612 19.59C31.7024 19.1329 31.0801 18.8761 30.4313 18.8761C29.7825 18.8761 29.1603 19.1329 28.7015 19.59C28.2427 20.0471 27.985 20.6671 27.985 21.3136C27.985 21.9601 28.2427 22.58 28.7015 23.0372C29.1603 23.4943 29.7825 23.7511 30.4313 23.7511Z" fill="white"/>
</svg>
