<svg width="30" height="30" viewBox="0 0 30 30" fill="none" xmlns="http://www.w3.org/2000/svg">
<path fill-rule="evenodd" clip-rule="evenodd" d="M13.715 0.274087C14.0053 0.0949216 14.3399 0 14.6813 0C15.0228 0 15.3574 0.0949216 15.6476 0.274087L28.4911 8.19596C28.8768 8.43299 29.1608 8.80384 29.2884 9.23709C29.416 9.67033 29.3782 10.1353 29.1823 10.5424C28.9863 10.9496 28.6461 11.27 28.2271 11.4421C27.8082 11.6142 27.3401 11.6257 26.9132 11.4744V25.5948H27.5247C28.0114 25.5948 28.478 25.7874 28.8221 26.1303C29.1662 26.4731 29.3595 26.9381 29.3595 27.423C29.3595 27.9078 29.1662 28.3728 28.8221 28.7156C28.478 29.0585 28.0114 29.2511 27.5247 29.2511H1.83792C1.35131 29.2511 0.88463 29.0585 0.540543 28.7156C0.196456 28.3728 0.00315068 27.9078 0.00315068 27.423C0.00315068 26.9381 0.196456 26.4731 0.540543 26.1303C0.88463 25.7874 1.35131 25.5948 1.83792 25.5948H2.44951V11.4744C2.02255 11.6257 1.5545 11.6142 1.13553 11.4421C0.716573 11.27 0.376345 10.9496 0.180397 10.5424C-0.0155518 10.1353 -0.0533561 9.67033 0.0742668 9.23709C0.20189 8.80384 0.48591 8.43299 0.87161 8.19596L13.715 0.274087ZM6.11906 16.4542C6.11906 15.9694 6.31237 15.5044 6.65645 15.1615C7.00054 14.8187 7.46722 14.6261 7.95383 14.6261C8.44044 14.6261 8.90713 14.8187 9.25121 15.1615C9.5953 15.5044 9.78861 15.9694 9.78861 16.4542V23.7667C9.78861 24.2516 9.5953 24.7165 9.25121 25.0594C8.90713 25.4022 8.44044 25.5948 7.95383 25.5948C7.46722 25.5948 7.00054 25.4022 6.65645 25.0594C6.31237 24.7165 6.11906 24.2516 6.11906 23.7667V16.4542ZM14.6813 14.6261C14.1947 14.6261 13.728 14.8187 13.384 15.1615C13.0399 15.5044 12.8466 15.9694 12.8466 16.4542V23.7667C12.8466 24.2516 13.0399 24.7165 13.384 25.0594C13.728 25.4022 14.1947 25.5948 14.6813 25.5948C15.1679 25.5948 15.6346 25.4022 15.9787 25.0594C16.3228 24.7165 16.5161 24.2516 16.5161 23.7667V16.4542C16.5161 15.9694 16.3228 15.5044 15.9787 15.1615C15.6346 14.8187 15.1679 14.6261 14.6813 14.6261ZM19.5741 16.4542C19.5741 15.9694 19.7674 15.5044 20.1115 15.1615C20.4555 14.8187 20.9222 14.6261 21.4088 14.6261C21.8954 14.6261 22.3621 14.8187 22.7062 15.1615C23.0503 15.5044 23.2436 15.9694 23.2436 16.4542V23.7667C23.2436 24.2516 23.0503 24.7165 22.7062 25.0594C22.3621 25.4022 21.8954 25.5948 21.4088 25.5948C20.9222 25.5948 20.4555 25.4022 20.1115 25.0594C19.7674 24.7165 19.5741 24.2516 19.5741 23.7667V16.4542ZM14.6813 9.75109C15.3301 9.75109 15.9524 9.49428 16.4112 9.03716C16.87 8.58004 17.1277 7.96005 17.1277 7.31359C17.1277 6.66712 16.87 6.04713 16.4112 5.59001C15.9524 5.13289 15.3301 4.87609 14.6813 4.87609C14.0325 4.87609 13.4103 5.13289 12.9515 5.59001C12.4927 6.04713 12.235 6.66712 12.235 7.31359C12.235 7.96005 12.4927 8.58004 12.9515 9.03716C13.4103 9.49428 14.0325 9.75109 14.6813 9.75109Z" fill="#111933"/>
</svg>
