<svg width="64" height="65" viewBox="0 0 64 65" fill="none" xmlns="http://www.w3.org/2000/svg">
<g clip-path="url(#clip0_2156_7918)">
<path d="M57.5932 7.51473C57.5822 7.52424 57.5691 7.53089 57.555 7.53409C57.5409 7.53729 57.5262 7.53694 57.5122 7.53306C57.3988 7.50219 57.2844 7.47364 57.1721 7.4481C57.1606 7.44573 57.1496 7.44107 57.1399 7.43438C57.1302 7.4277 57.1218 7.41912 57.1154 7.40916C57.109 7.39919 57.1047 7.38804 57.1026 7.37636C57.1006 7.36468 57.1008 7.3527 57.1034 7.34113C57.106 7.32956 57.1109 7.31862 57.1177 7.30896C57.1246 7.29931 57.1333 7.29112 57.1433 7.28489C57.1533 7.27866 57.1645 7.27451 57.1761 7.27267C57.1878 7.27084 57.1997 7.27137 57.2111 7.27423C57.3264 7.30023 57.4428 7.32948 57.5586 7.36105C57.5698 7.36409 57.5804 7.36933 57.5896 7.37648C57.5988 7.38362 57.6065 7.39253 57.6123 7.40269C57.6181 7.41285 57.6218 7.42406 57.6233 7.43568C57.6248 7.4473 57.6239 7.45909 57.6209 7.47039C57.6162 7.48759 57.6066 7.50302 57.5932 7.51473Z" fill="white"/>
<path d="M60.9046 22.226C60.7478 22.3618 60.5843 22.4932 60.4188 22.6165C60.4095 22.6237 60.3988 22.6291 60.3874 22.6321C60.376 22.6352 60.3641 22.636 60.3524 22.6343C60.3408 22.6327 60.3295 22.6288 60.3194 22.6227C60.3092 22.6167 60.3004 22.6086 60.2934 22.5991C60.2863 22.5895 60.2813 22.5787 60.2785 22.5672C60.2757 22.5556 60.2752 22.5436 60.2771 22.5319C60.279 22.5202 60.2831 22.509 60.2894 22.4989C60.2956 22.4888 60.3038 22.4801 60.3134 22.4732C60.5039 22.3312 60.6909 22.1787 60.8698 22.0201C60.8878 22.0075 60.9098 22.0021 60.9316 22.0049C60.9534 22.0077 60.9733 22.0184 60.9876 22.0352C61.002 22.0519 61.0096 22.0734 61.0092 22.0955C61.0087 22.1175 61.0001 22.1387 60.9851 22.1547L60.9046 22.226ZM61.8104 21.3121C61.7934 21.3267 61.7716 21.3344 61.7493 21.3336C61.727 21.3327 61.7058 21.3235 61.69 21.3076C61.6742 21.2917 61.665 21.2704 61.6641 21.248C61.6633 21.2255 61.6708 21.2035 61.6854 21.1865C61.8399 21.0049 61.9886 20.815 62.1274 20.6198C62.1342 20.6103 62.1428 20.6022 62.1527 20.5961C62.1625 20.5899 62.1735 20.5857 62.185 20.5838C62.1965 20.5819 62.2082 20.5823 62.2195 20.585C62.2309 20.5877 62.2416 20.5926 62.251 20.5994C62.2604 20.6062 62.2685 20.6148 62.2746 20.6248C62.2807 20.6347 62.2849 20.6458 62.2867 20.6574C62.2886 20.6689 62.2882 20.6807 62.2856 20.6921C62.2829 20.7035 62.2781 20.7143 62.2713 20.7238C62.1295 20.9223 61.9775 21.1171 61.82 21.3023C61.8172 21.3059 61.8139 21.3092 61.8104 21.3121ZM62.8761 19.7335C62.8605 19.7471 62.8406 19.7548 62.82 19.7552C62.7993 19.7556 62.7791 19.7487 62.763 19.7357C62.7468 19.7227 62.7357 19.7045 62.7315 19.6841C62.7273 19.6637 62.7304 19.6425 62.7401 19.6242C62.8512 19.4122 62.9547 19.1935 63.0474 18.9742C63.0566 18.9524 63.074 18.9352 63.0958 18.9263C63.1175 18.9175 63.1419 18.9177 63.1635 18.9269C63.1852 18.9361 63.2022 18.9536 63.211 18.9756C63.2198 18.9975 63.2196 19.022 63.2105 19.0438C63.1159 19.268 63.0103 19.4914 62.8966 19.7077C62.8914 19.7179 62.8842 19.727 62.8754 19.7344L62.8761 19.7335ZM63.5679 17.9583C63.5535 17.9707 63.5356 17.9781 63.5168 17.9795C63.498 17.9809 63.4792 17.9762 63.4632 17.9661C63.4472 17.956 63.4348 17.941 63.4279 17.9233C63.421 17.9056 63.4198 17.8861 63.4247 17.8678C63.486 17.637 63.5384 17.4007 63.5799 17.1648C63.5816 17.1531 63.5857 17.1418 63.5919 17.1317C63.5981 17.1216 63.6062 17.1128 63.6158 17.1058C63.6254 17.0989 63.6363 17.094 63.6478 17.0914C63.6593 17.0887 63.6712 17.0885 63.6828 17.0905C63.6945 17.0926 63.7056 17.097 63.7155 17.1034C63.7254 17.1099 63.7339 17.1183 63.7406 17.1281C63.7472 17.1379 63.7518 17.149 63.7542 17.1606C63.7565 17.1723 63.7565 17.1843 63.7542 17.1959C63.7118 17.4367 63.6585 17.6783 63.5958 17.914C63.5916 17.9315 63.5822 17.9473 63.5688 17.9592L63.5679 17.9583ZM63.8492 16.0726C63.8361 16.084 63.8201 16.0912 63.803 16.0935C63.7859 16.0958 63.7685 16.0931 63.7529 16.0855C63.7374 16.078 63.7243 16.0661 63.7154 16.0512C63.7065 16.0363 63.7021 16.0192 63.7028 16.0018C63.7115 15.7629 63.7101 15.5206 63.6986 15.2822C63.6978 15.2703 63.6994 15.2585 63.7033 15.2473C63.7071 15.2361 63.7131 15.2258 63.7209 15.217C63.7287 15.2082 63.7382 15.201 63.7488 15.1959C63.7595 15.1908 63.771 15.1879 63.7827 15.1873C63.7944 15.1868 63.8062 15.1885 63.8172 15.1926C63.8283 15.1966 63.8384 15.2028 63.847 15.2109C63.8557 15.2189 63.8626 15.2286 63.8675 15.2393C63.8724 15.2501 63.8751 15.2617 63.8755 15.2736C63.8872 15.5178 63.8888 15.7652 63.8799 16.009C63.8796 16.0212 63.8768 16.0333 63.8717 16.0444C63.8666 16.0555 63.8592 16.0654 63.8501 16.0735L63.8492 16.0726ZM63.7069 14.1707C63.6951 14.1809 63.6809 14.1878 63.6656 14.1907C63.6503 14.1936 63.6345 14.1924 63.6199 14.1872C63.6052 14.1821 63.5921 14.1731 63.582 14.1612C63.5718 14.1493 63.565 14.135 63.5621 14.1196C63.5181 13.8842 63.4634 13.6481 63.4007 13.4178C63.3944 13.395 63.3973 13.3707 63.4089 13.3501C63.4204 13.3295 63.4396 13.3144 63.4623 13.308C63.4849 13.3017 63.5091 13.3046 63.5295 13.3163C63.55 13.3279 63.565 13.3472 63.5713 13.37C63.6361 13.6049 63.6922 13.8461 63.7371 14.0864C63.7403 14.1019 63.7392 14.118 63.734 14.133C63.7289 14.148 63.7198 14.1613 63.7078 14.1716L63.7069 14.1707ZM63.1521 12.3479C63.1451 12.3536 63.1374 12.3584 63.1291 12.362C63.1184 12.3667 63.1069 12.3692 63.0953 12.3694C63.0837 12.3695 63.0721 12.3674 63.0613 12.3631C63.0505 12.3588 63.0406 12.3524 63.0323 12.3442C63.0239 12.3361 63.0172 12.3263 63.0126 12.3156C62.9179 12.096 62.8127 11.878 62.6999 11.6675C62.6944 11.6572 62.691 11.6459 62.6898 11.6342C62.6886 11.6226 62.6897 11.6108 62.693 11.5996C62.6964 11.5883 62.7018 11.5779 62.7092 11.5688C62.7165 11.5597 62.7256 11.5522 62.7358 11.5466C62.746 11.5411 62.7573 11.5376 62.7688 11.5364C62.7804 11.5352 62.7921 11.5363 62.8032 11.5397C62.8144 11.543 62.8248 11.5485 62.8338 11.5559C62.8428 11.5633 62.8503 11.5724 62.8558 11.5827C62.9711 11.7977 63.0783 12.0203 63.175 12.2446C63.1826 12.262 63.1845 12.2814 63.1804 12.3C63.1763 12.3186 63.1664 12.3354 63.1521 12.3479ZM62.2067 10.6938L62.2014 10.698C62.1921 10.705 62.1814 10.71 62.1701 10.7128C62.1588 10.7156 62.1471 10.7161 62.1356 10.7143C62.1241 10.7126 62.1131 10.7085 62.1031 10.7025C62.0932 10.6964 62.0845 10.6884 62.0776 10.679C61.9533 10.5088 61.821 10.3415 61.6842 10.1815C61.666 10.1602 61.6476 10.1388 61.6291 10.1177C61.6214 10.1089 61.6156 10.0986 61.6118 10.0876C61.6081 10.0765 61.6065 10.0648 61.6073 10.0531C61.608 10.0414 61.611 10.03 61.6162 10.0195C61.6213 10.009 61.6284 9.99958 61.6372 9.99185C61.6548 9.97651 61.6778 9.96881 61.7011 9.97042C61.7244 9.97203 61.7461 9.98281 61.7615 10.0004C61.7804 10.022 61.7991 10.0438 61.8177 10.0657C61.9572 10.2282 62.0924 10.4 62.2194 10.5738C62.2326 10.5918 62.2387 10.6141 62.2363 10.6363C62.234 10.6586 62.2234 10.6791 62.2067 10.6938ZM60.9189 9.29449C60.9028 9.30831 60.8824 9.3159 60.8613 9.3159C60.8401 9.3159 60.8197 9.30831 60.8036 9.29449C60.624 9.13873 60.4347 8.98853 60.2419 8.84785C60.2236 8.83373 60.2115 8.81297 60.2081 8.79C60.2048 8.76702 60.2105 8.74364 60.224 8.72483C60.2375 8.70602 60.2578 8.69326 60.2805 8.68927C60.3033 8.68527 60.3266 8.69037 60.3457 8.70346C60.5428 8.84692 60.7358 9.00037 60.9191 9.15939C60.9369 9.17483 60.9479 9.19675 60.9497 9.22033C60.9515 9.24391 60.9439 9.26724 60.9286 9.28521C60.9256 9.28822 60.9224 9.29148 60.9191 9.29449H60.9189ZM59.3551 8.21781C59.3415 8.2295 59.3248 8.23679 59.3071 8.23874C59.2893 8.24069 59.2714 8.2372 59.2557 8.22872C59.0452 8.11614 58.8282 8.01144 58.6101 7.91765C58.5988 7.91348 58.5885 7.90704 58.5798 7.89875C58.5711 7.89045 58.5642 7.88045 58.5594 7.86937C58.5547 7.85829 58.5522 7.84636 58.5522 7.83429C58.5521 7.82222 58.5545 7.81026 58.5592 7.79915C58.5639 7.78805 58.5708 7.77801 58.5794 7.76966C58.5881 7.76131 58.5983 7.75481 58.6096 7.75057C58.6208 7.74632 58.6327 7.74442 58.6447 7.74497C58.6567 7.74551 58.6684 7.74851 58.6792 7.75376C58.902 7.8494 59.1236 7.95619 59.3383 8.07133C59.3485 8.07682 59.3577 8.08431 59.3651 8.09335C59.3725 8.10239 59.3781 8.11282 59.3815 8.12403C59.3849 8.13524 59.386 8.14702 59.3849 8.1587C59.3838 8.17037 59.3804 8.1817 59.3749 8.19205C59.3699 8.20175 59.3632 8.21047 59.3551 8.21781Z" fill="white"/>
<path d="M59.4294 23.25C59.4246 23.2542 59.4193 23.2579 59.4137 23.2609C59.3078 23.3187 59.2008 23.3742 59.0957 23.4259C59.0746 23.4363 59.0503 23.4379 59.028 23.4302C59.0058 23.4226 58.9875 23.4063 58.9772 23.3851C58.9668 23.3638 58.9653 23.3393 58.9729 23.317C58.9805 23.2946 58.9967 23.2762 59.0178 23.2658C59.1208 23.2149 59.2253 23.1606 59.3293 23.1033C59.3485 23.0926 59.371 23.0895 59.3924 23.0945C59.4137 23.0996 59.4325 23.1125 59.445 23.1307C59.4574 23.1489 59.4627 23.1711 59.4598 23.193C59.457 23.2149 59.4461 23.235 59.4294 23.2493V23.25Z" fill="white"/>
<path d="M52.8187 23.8875C52.8073 23.8975 52.7935 23.9043 52.7787 23.9073C52.7639 23.9104 52.7485 23.9095 52.7341 23.9049C52.6216 23.8689 52.5077 23.8297 52.3954 23.7888C52.3733 23.7807 52.3553 23.7641 52.3454 23.7427C52.3355 23.7213 52.3344 23.6967 52.3424 23.6745C52.3505 23.6523 52.367 23.6342 52.3883 23.6242C52.4096 23.6142 52.4339 23.6131 52.456 23.6212C52.5658 23.6616 52.6776 23.6999 52.7876 23.735C52.8026 23.7398 52.8161 23.7486 52.8267 23.7604C52.8372 23.7722 52.8444 23.7866 52.8476 23.8022C52.8508 23.8177 52.8498 23.8339 52.8447 23.8489C52.8396 23.8639 52.8307 23.8773 52.8187 23.8877V23.8875Z" fill="white"/>
<path d="M51.4271 23.3006C51.4137 23.3124 51.397 23.3198 51.3793 23.3218C51.3616 23.3239 51.3437 23.3204 51.328 23.312C51.1174 23.1999 50.9085 23.0773 50.7068 22.9473C50.687 22.9345 50.6731 22.9144 50.668 22.8913C50.663 22.8681 50.6673 22.844 50.68 22.8241C50.6927 22.8041 50.7127 22.7901 50.7357 22.7851C50.7587 22.78 50.7827 22.7844 50.8025 22.7971C50.9998 22.9243 51.2046 23.0446 51.4107 23.1544C51.421 23.1599 51.4301 23.1673 51.4376 23.1763C51.445 23.1854 51.4506 23.1958 51.454 23.2069C51.4574 23.2181 51.4586 23.2299 51.4575 23.2415C51.4564 23.2532 51.4531 23.2645 51.4476 23.2749C51.4425 23.2847 51.4355 23.2934 51.4271 23.3006ZM49.8822 22.2481C49.8662 22.262 49.8457 22.2697 49.8246 22.2697C49.8034 22.2697 49.7829 22.262 49.7669 22.2481C49.5847 22.0921 49.4072 21.9266 49.2391 21.7564C49.2229 21.7396 49.214 21.717 49.2143 21.6936C49.2145 21.6701 49.2239 21.6478 49.2404 21.6313C49.2569 21.6148 49.2792 21.6055 49.3025 21.6054C49.3258 21.6053 49.3481 21.6145 49.3648 21.6308C49.5292 21.7975 49.7033 21.9593 49.8817 22.1121C49.8996 22.1275 49.9107 22.1493 49.9126 22.1729C49.9145 22.1965 49.907 22.2198 49.8919 22.2379C49.8891 22.2415 49.8861 22.2449 49.8829 22.2481H49.8822ZM48.6036 20.8815L48.599 20.8852C48.5897 20.8923 48.5791 20.8974 48.5679 20.9004C48.5566 20.9033 48.5448 20.904 48.5333 20.9024C48.5218 20.9007 48.5107 20.8968 48.5007 20.8908C48.4907 20.8849 48.4819 20.8769 48.4749 20.8676C48.3315 20.6756 48.1945 20.475 48.0677 20.2712C48.061 20.2613 48.0563 20.2501 48.054 20.2383C48.0517 20.2266 48.0518 20.2145 48.0542 20.2027C48.0566 20.191 48.0614 20.1799 48.0682 20.17C48.075 20.1602 48.0837 20.1518 48.0938 20.1454C48.1039 20.1391 48.1151 20.1348 48.1269 20.1329C48.1387 20.131 48.1507 20.1315 48.1623 20.1344C48.1738 20.1373 48.1847 20.1426 48.1942 20.1498C48.2037 20.157 48.2117 20.1661 48.2176 20.1765C48.3421 20.3759 48.4761 20.5725 48.6165 20.7603C48.6301 20.7783 48.6364 20.8008 48.6341 20.8233C48.6318 20.8458 48.6212 20.8666 48.6043 20.8815H48.6036ZM47.6547 19.2655C47.6483 19.2711 47.641 19.2757 47.6333 19.2792C47.6227 19.284 47.6112 19.2867 47.5996 19.2871C47.588 19.2874 47.5764 19.2854 47.5655 19.2813C47.5546 19.2771 47.5447 19.2708 47.5362 19.2628C47.5277 19.2548 47.5209 19.2451 47.5162 19.2344C47.4182 19.0155 47.3282 18.7894 47.2487 18.5626C47.2446 18.5515 47.2428 18.5397 47.2433 18.528C47.2438 18.5162 47.2466 18.5046 47.2516 18.4939C47.2566 18.4832 47.2636 18.4736 47.2723 18.4657C47.281 18.4577 47.2912 18.4516 47.3022 18.4477C47.3133 18.4438 47.325 18.4421 47.3367 18.4427C47.3484 18.4434 47.3599 18.4464 47.3705 18.4516C47.381 18.4567 47.3904 18.4639 47.3982 18.4728C47.4059 18.4817 47.4119 18.492 47.4156 18.5032C47.4936 18.7253 47.5816 18.9468 47.6778 19.1613C47.6857 19.1788 47.6878 19.1984 47.6838 19.2171C47.6797 19.2359 47.6698 19.2529 47.6554 19.2655H47.6547ZM47.0804 17.4804C47.0687 17.4905 47.0546 17.4974 47.0394 17.5004C47.0243 17.5034 47.0086 17.5023 46.994 17.4972C46.9794 17.4922 46.9664 17.4834 46.9562 17.4718C46.946 17.4601 46.9391 17.4459 46.936 17.4307C46.8876 17.1955 46.8486 16.9553 46.8207 16.7166C46.8193 16.705 46.8202 16.6932 46.8234 16.6819C46.8265 16.6706 46.8318 16.6601 46.839 16.6509C46.8462 16.6416 46.8551 16.6339 46.8652 16.6282C46.8754 16.6224 46.8865 16.6188 46.8981 16.6174C46.9096 16.616 46.9213 16.6169 46.9326 16.62C46.9438 16.6232 46.9542 16.6285 46.9634 16.6358C46.9725 16.643 46.9802 16.652 46.9859 16.6622C46.9916 16.6724 46.9953 16.6836 46.9967 16.6953C47.0246 16.9288 47.0628 17.1642 47.1101 17.3947C47.1133 17.4104 47.1122 17.4266 47.107 17.4417C47.1017 17.4567 47.0925 17.4701 47.0804 17.4804ZM46.9051 15.6118C46.8921 15.6231 46.8762 15.6304 46.8592 15.6327C46.8422 15.6351 46.8249 15.6324 46.8094 15.625C46.7939 15.6176 46.7808 15.6059 46.7718 15.5912C46.7628 15.5765 46.7583 15.5595 46.7587 15.5422C46.7624 15.3017 46.7765 15.0586 46.8002 14.8198C46.8026 14.7962 46.8141 14.7746 46.8323 14.7596C46.8505 14.7446 46.8739 14.7375 46.8973 14.7399C46.9207 14.7423 46.9422 14.7539 46.957 14.7722C46.9719 14.7906 46.979 14.8141 46.9766 14.8376C46.9535 15.0716 46.9395 15.3096 46.936 15.545C46.9358 15.5576 46.9329 15.5701 46.9276 15.5815C46.9223 15.593 46.9146 15.6031 46.9051 15.6114V15.6118ZM47.1396 13.7505C47.1254 13.7628 47.1077 13.7703 47.089 13.7719C47.0703 13.7734 47.0517 13.7689 47.0357 13.7591C47.0197 13.7493 47.0072 13.7346 47 13.7171C46.9928 13.6997 46.9913 13.6804 46.9957 13.6621C47.0518 13.4281 47.1184 13.1941 47.1938 12.9656C47.1975 12.9545 47.2033 12.9443 47.2109 12.9354C47.2185 12.9266 47.2278 12.9193 47.2382 12.9141C47.2486 12.9088 47.26 12.9057 47.2716 12.9049C47.2832 12.9041 47.2948 12.9055 47.3059 12.9092C47.3169 12.9129 47.3271 12.9188 47.3359 12.9265C47.3447 12.9341 47.3519 12.9435 47.3571 12.954C47.3623 12.9644 47.3654 12.9758 47.3662 12.9875C47.3671 12.9992 47.3656 13.0109 47.3619 13.0221C47.2881 13.2451 47.2236 13.4745 47.168 13.7034C47.1636 13.7215 47.1537 13.7379 47.1396 13.7501V13.7505ZM47.7751 11.9862C47.7598 12.0004 47.7399 12.0087 47.7191 12.0097C47.6983 12.0106 47.6778 12.0041 47.6612 11.9913C47.6447 11.9785 47.6332 11.9603 47.6287 11.9398C47.6242 11.9192 47.6271 11.8978 47.6368 11.8792C47.7421 11.6643 47.8581 11.4507 47.9826 11.2443C47.9884 11.2338 47.9962 11.2246 48.0055 11.2172C48.0149 11.2098 48.0256 11.2043 48.0371 11.2012C48.0486 11.1981 48.0606 11.1973 48.0724 11.199C48.0842 11.2006 48.0956 11.2047 48.1058 11.2109C48.116 11.217 48.1249 11.2252 48.1319 11.2349C48.1389 11.2446 48.1438 11.2556 48.1465 11.2673C48.1492 11.279 48.1495 11.2911 48.1474 11.3029C48.1453 11.3147 48.1409 11.326 48.1344 11.336C48.0135 11.5384 47.8999 11.7476 47.7968 11.9581C47.7914 11.9687 47.784 11.978 47.7751 11.9858V11.9862ZM48.7775 10.4035C48.7607 10.4181 48.7392 10.426 48.717 10.4254C48.6948 10.4248 48.6737 10.4159 48.6577 10.4003C48.6418 10.3848 48.6322 10.3638 48.6309 10.3416C48.6296 10.3193 48.6366 10.2973 48.6506 10.28C48.8008 10.092 48.9599 9.90856 49.124 9.73515C49.1402 9.718 49.1625 9.70802 49.186 9.70741C49.1976 9.70711 49.2092 9.70912 49.22 9.71332C49.2309 9.71752 49.2408 9.72383 49.2492 9.7319C49.2577 9.73996 49.2644 9.74962 49.2692 9.76032C49.2739 9.77101 49.2765 9.78254 49.2768 9.79425C49.2771 9.80596 49.2751 9.8176 49.2709 9.82853C49.2667 9.83946 49.2605 9.84946 49.2525 9.85795C49.0911 10.0279 48.9356 10.2076 48.7888 10.3919C48.7853 10.3959 48.7815 10.3996 48.7775 10.403V10.4035ZM50.6731 8.65591C50.6703 8.65828 50.6674 8.66046 50.6643 8.66241C50.4697 8.79311 50.2783 8.93379 50.0955 9.08027C50.0864 9.08757 50.076 9.093 50.0648 9.09624C50.0537 9.09948 50.042 9.10047 50.0304 9.09916C50.0189 9.09784 50.0077 9.09425 49.9975 9.08858C49.9874 9.08291 49.9784 9.07527 49.9712 9.06611C49.9638 9.05702 49.9583 9.04652 49.955 9.03524C49.9517 9.02396 49.9506 9.01213 49.9519 9.00044C49.9532 8.98875 49.9569 8.97745 49.9626 8.9672C49.9683 8.95695 49.976 8.94795 49.9853 8.94075C50.1718 8.79125 50.3671 8.64756 50.5661 8.51408C50.5849 8.50104 50.6079 8.49579 50.6304 8.49941C50.6529 8.50303 50.6732 8.51525 50.6869 8.53352C50.7007 8.55179 50.707 8.57471 50.7044 8.59751C50.7018 8.62031 50.6906 8.64123 50.6731 8.65591Z" fill="white"/>
<path d="M52.0022 7.92681C51.9953 7.93272 51.9875 7.93757 51.9791 7.9412C51.8715 7.98763 51.7645 8.03754 51.6607 8.08814C51.6396 8.09806 51.6155 8.09923 51.5936 8.0914C51.5717 8.08356 51.5537 8.06735 51.5435 8.04628C51.5334 8.0252 51.5319 8.00095 51.5394 7.97876C51.5468 7.95658 51.5627 7.93825 51.5835 7.92773C51.6893 7.87597 51.7988 7.82559 51.9086 7.77754C51.9279 7.76955 51.9495 7.76872 51.9694 7.77519C51.9893 7.78167 52.0063 7.79504 52.0174 7.81293C52.0284 7.83082 52.0328 7.85207 52.0298 7.87291C52.0268 7.89376 52.0165 7.91285 52.0008 7.92681H52.0022Z" fill="white"/>
<path d="M53.501 9.39244C53.4802 9.3962 53.461 9.4064 53.4462 9.42163C53.4314 9.43686 53.4217 9.45636 53.4185 9.47741L53.2268 10.7078C52.6883 10.941 52.191 11.261 51.7548 11.6554L50.5647 11.3153C50.5444 11.3094 50.5227 11.31 50.5028 11.3172C50.4828 11.3244 50.4656 11.3377 50.4536 11.3552L49.6044 12.5821C49.5923 12.5996 49.5859 12.6204 49.5861 12.6417C49.5863 12.663 49.5931 12.6837 49.6055 12.7009L50.3344 13.7075C50.118 14.2559 49.9917 14.8361 49.9606 15.4254L48.8789 16.0334C48.8604 16.0437 48.8456 16.0596 48.8365 16.0789C48.8274 16.0982 48.8245 16.1198 48.8282 16.1408L49.0892 17.6126C49.093 17.6336 49.1031 17.6529 49.1182 17.6678C49.1333 17.6827 49.1527 17.6924 49.1736 17.6957L50.3957 17.8886C50.6273 18.4308 50.9452 18.9313 51.337 19.3704L51.0003 20.5678C50.9944 20.5883 50.9951 20.6101 51.0022 20.6302C51.0093 20.6503 51.0226 20.6676 51.04 20.6797L52.2582 21.5347C52.2755 21.5468 52.2963 21.5532 52.3174 21.5529C52.3386 21.5527 52.3591 21.5458 52.3762 21.5333L53.376 20.7995C53.9207 21.0175 54.497 21.1447 55.0824 21.176L55.6853 22.2645C55.6957 22.2831 55.7115 22.298 55.7307 22.3071C55.7498 22.3162 55.7713 22.3191 55.7921 22.3154L57.254 22.0528C57.2748 22.049 57.294 22.0387 57.3088 22.0235C57.3236 22.0082 57.3333 21.9887 57.3366 21.9676L57.5282 20.7373C58.0667 20.504 58.5639 20.1839 59 19.7894L60.1903 20.1297C60.2106 20.1356 60.2323 20.1348 60.2522 20.1277C60.2721 20.1205 60.2893 20.1073 60.3014 20.0898L61.1507 18.8634C61.1628 18.8459 61.1692 18.8251 61.1689 18.8038C61.1687 18.7824 61.1618 18.7617 61.1493 18.7445L60.4204 17.738C60.637 17.1896 60.7633 16.6094 60.7944 16.0201L61.8756 15.4131C61.8941 15.4027 61.9089 15.3868 61.9179 15.3676C61.927 15.3484 61.9299 15.3268 61.9261 15.3058L61.6651 13.834C61.6614 13.8131 61.6513 13.7938 61.6362 13.7789C61.6211 13.7641 61.6018 13.7543 61.5809 13.7509L60.3588 13.558C60.127 13.0156 59.8087 12.5148 59.4167 12.0756L59.7547 10.8775C59.7605 10.857 59.7598 10.8352 59.7527 10.8151C59.7456 10.795 59.7324 10.7777 59.715 10.7656L58.4969 9.91059C58.4795 9.89842 58.4588 9.89199 58.4377 9.8922C58.4165 9.89241 58.3959 9.89924 58.3788 9.91175L57.379 10.6456C56.8343 10.4277 56.258 10.3006 55.6727 10.2692L55.0695 9.18073C55.0592 9.16207 55.0435 9.14711 55.0243 9.13795C55.0052 9.12879 54.9838 9.12589 54.9629 9.12966L53.501 9.39244Z" fill="#00296B"/>
<path d="M56.3268 16.8303C56.221 16.9218 56.1028 16.9976 55.9756 17.0553C55.6427 17.2058 55.2655 17.2238 54.9199 17.1057C54.5743 16.9876 54.286 16.7422 54.1128 16.4187C53.9397 16.0953 53.8946 15.7179 53.9866 15.3623C54.0786 15.0068 54.301 14.6995 54.6089 14.5023C54.9168 14.305 55.2875 14.2325 55.6463 14.2992C56.0052 14.3659 56.3257 14.567 56.5433 14.8619C56.761 15.1568 56.8596 15.5238 56.8195 15.889C56.7793 16.2542 56.6033 16.5905 56.3268 16.8303ZM54.6039 14.8188C54.454 14.9488 54.339 15.1147 54.2695 15.3012C54.1726 15.5595 54.1677 15.8436 54.2555 16.1052C54.3434 16.3667 54.5186 16.5895 54.7513 16.7356C54.984 16.8817 55.2598 16.9421 55.5318 16.9064C55.8037 16.8707 56.0549 16.7411 56.2427 16.5399C56.4304 16.3386 56.543 16.078 56.5613 15.8025C56.5796 15.527 56.5024 15.2537 56.343 15.0291C56.1835 14.8044 55.9517 14.6424 55.6869 14.5706C55.422 14.4987 55.1407 14.5216 54.8907 14.6352C54.7867 14.6822 54.6898 14.7439 54.6032 14.8186L54.6039 14.8188Z" fill="white"/>
<path d="M57.8097 18.5903C56.5549 19.6767 54.68 19.8188 53.261 18.8224C53.0051 18.6429 52.7727 18.4317 52.5692 18.1938C51.4896 16.9305 51.3485 15.0427 52.3375 13.6138C52.3555 13.5883 52.3735 13.5628 52.3919 13.5375C52.5156 13.368 52.6531 13.2092 52.803 13.0627C52.8206 13.0455 52.8381 13.0288 52.8558 13.0121L53.0371 13.208C52.8574 13.3766 52.696 13.5639 52.5556 13.7668L52.5517 13.7726C51.468 15.3435 51.8544 17.5101 53.4132 18.6028C54.9719 19.6955 57.1286 19.3108 58.2167 17.7395C59.1351 16.413 59.0039 14.6601 58.0018 13.4871C57.7041 13.1393 57.3409 12.8543 56.9333 12.6484C56.5257 12.4425 56.0817 12.3198 55.6268 12.2874L55.645 12.0206C56.1352 12.0552 56.6138 12.1872 57.0531 12.409C57.4924 12.6307 57.8837 12.9379 58.2045 13.3127C59.2841 14.5758 59.4252 16.4638 58.4351 17.8925C58.2566 18.1506 58.0465 18.3851 57.8097 18.5903Z" fill="white"/>
<path d="M50.5989 1.00353C50.5923 1.00924 50.5844 1.01324 50.5759 1.01519C50.5674 1.01713 50.5586 1.01695 50.5502 1.01467C50.481 0.996096 50.4133 0.978918 50.3457 0.963597C50.3321 0.960352 50.3203 0.95184 50.3128 0.939903C50.3054 0.927966 50.3029 0.913561 50.306 0.899805C50.309 0.886049 50.3173 0.874046 50.329 0.866391C50.3408 0.858737 50.355 0.856046 50.3687 0.8589C50.4379 0.874686 50.5071 0.892097 50.5763 0.911132C50.5899 0.91483 50.6015 0.923827 50.6086 0.936147C50.6156 0.948466 50.6175 0.963099 50.6139 0.976829C50.6115 0.986982 50.6063 0.996244 50.5989 1.00353Z" fill="white"/>
<path d="M52.589 9.8456C52.4947 9.92708 52.3965 10.006 52.2969 10.0803C52.2913 10.085 52.2848 10.0884 52.2779 10.0905C52.2709 10.0926 52.2636 10.0932 52.2564 10.0923C52.2492 10.0915 52.2423 10.0891 52.236 10.0854C52.2297 10.0818 52.2243 10.0768 52.2199 10.0709C52.2156 10.0651 52.2126 10.0584 52.2109 10.0513C52.2093 10.0441 52.2091 10.0368 52.2104 10.0296C52.2117 10.0224 52.2144 10.0155 52.2184 10.0094C52.2224 10.0034 52.2276 9.99816 52.2337 9.99417C52.349 9.90874 52.4606 9.81704 52.568 9.72163C52.5789 9.71382 52.5922 9.71037 52.6054 9.71196C52.6186 9.71356 52.6308 9.72008 52.6395 9.73025C52.6482 9.74042 52.6527 9.75349 52.6523 9.76689C52.6519 9.78029 52.6465 9.79305 52.6372 9.80265L52.589 9.8456ZM53.1334 9.29635C53.1233 9.30534 53.1101 9.31009 53.0966 9.30965C53.083 9.30921 53.0702 9.30361 53.0606 9.29397C53.0511 9.28434 53.0455 9.27141 53.0451 9.25779C53.0446 9.24417 53.0493 9.2309 53.0583 9.22067C53.1505 9.11156 53.2404 8.99688 53.3239 8.88011C53.3322 8.86857 53.3446 8.8608 53.3586 8.85852C53.3725 8.85623 53.3868 8.85961 53.3983 8.86793C53.4097 8.87624 53.4175 8.8888 53.4197 8.90284C53.422 8.91688 53.4186 8.93125 53.4104 8.94279C53.3251 9.06188 53.234 9.17888 53.1392 9.29101L53.1334 9.29635ZM53.774 8.34804C53.7646 8.3562 53.7527 8.3608 53.7403 8.36104C53.7278 8.36128 53.7157 8.35715 53.706 8.34936C53.6963 8.34157 53.6896 8.33061 53.6871 8.31837C53.6846 8.30613 53.6863 8.29339 53.6921 8.28235C53.759 8.1549 53.8213 8.02351 53.8766 7.89142C53.8825 7.87895 53.893 7.86926 53.9058 7.86436C53.9186 7.85946 53.9328 7.85973 53.9455 7.86512C53.9581 7.87051 53.9682 7.88059 53.9736 7.89327C53.979 7.90596 53.9794 7.92026 53.9746 7.9332C53.9179 8.06808 53.8543 8.20249 53.786 8.33249C53.783 8.33836 53.7789 8.34363 53.774 8.34804ZM54.1904 7.28019C54.1818 7.28769 54.171 7.2922 54.1597 7.29307C54.1483 7.29394 54.1369 7.29111 54.1273 7.285C54.1176 7.2789 54.1102 7.26983 54.106 7.25915C54.1019 7.24846 54.1012 7.23671 54.1042 7.22563C54.1411 7.08635 54.1734 6.94497 54.1964 6.80313C54.1989 6.78913 54.2068 6.77668 54.2184 6.76854C54.23 6.7604 54.2443 6.75723 54.2582 6.75972C54.2721 6.76222 54.2845 6.77017 54.2926 6.78184C54.3007 6.79351 54.3038 6.80793 54.3014 6.82194C54.2758 6.96679 54.2437 7.11188 54.2061 7.25349C54.2037 7.26403 54.1982 7.27363 54.1904 7.28112V7.28019ZM54.3592 6.14686C54.3491 6.15569 54.336 6.16026 54.3226 6.15963C54.3156 6.15939 54.3087 6.15777 54.3024 6.15484C54.296 6.15192 54.2903 6.14776 54.2855 6.14261C54.2808 6.13745 54.2771 6.1314 54.2746 6.1248C54.2722 6.1182 54.2711 6.11118 54.2714 6.10415C54.2767 5.96069 54.2758 5.81513 54.2688 5.6712C54.2682 5.66399 54.269 5.65671 54.2712 5.64981C54.2734 5.64291 54.2769 5.63654 54.2817 5.63106C54.2864 5.62559 54.2922 5.62114 54.2986 5.61798C54.3051 5.61481 54.3121 5.613 54.3193 5.61266C54.3265 5.61231 54.3337 5.61344 54.3405 5.61596C54.3472 5.61849 54.3534 5.62237 54.3586 5.62737C54.3638 5.63236 54.368 5.63837 54.3708 5.64503C54.3736 5.65168 54.3751 5.65885 54.3751 5.6661C54.3823 5.81281 54.3832 5.96162 54.3779 6.10717C54.3778 6.11488 54.3761 6.1225 54.3729 6.1295C54.3697 6.1365 54.365 6.14274 54.3592 6.14779V6.14686ZM54.2739 5.00356C54.2668 5.00972 54.2583 5.01389 54.2491 5.01566C54.2399 5.01742 54.2304 5.01671 54.2215 5.01361C54.2127 5.0105 54.2048 5.0051 54.1987 4.99796C54.1926 4.99082 54.1885 4.98218 54.1868 4.97292C54.1602 4.83131 54.1275 4.68947 54.0892 4.55112C54.0871 4.54424 54.0863 4.537 54.087 4.52983C54.0877 4.52265 54.0898 4.51569 54.0932 4.50935C54.0966 4.50302 54.1012 4.49744 54.1069 4.49295C54.1125 4.48847 54.1189 4.48517 54.1258 4.48325C54.1327 4.48133 54.1399 4.48083 54.147 4.48178C54.1541 4.48273 54.161 4.48511 54.1671 4.48878C54.1733 4.49245 54.1786 4.49733 54.1829 4.50314C54.1871 4.50894 54.1902 4.51555 54.1918 4.52256C54.2308 4.6637 54.2642 4.80856 54.2914 4.95295C54.2934 4.96228 54.2929 4.97197 54.29 4.98102C54.287 4.99008 54.2817 4.99818 54.2746 5.00449L54.2739 5.00356ZM53.9396 3.90762C53.9332 3.91298 53.9257 3.91678 53.9176 3.91873C53.9095 3.92068 53.9011 3.92072 53.893 3.91886C53.8849 3.91699 53.8773 3.91327 53.8709 3.90798C53.8644 3.90268 53.8593 3.89597 53.8559 3.88835C53.7991 3.75626 53.7357 3.62533 53.6679 3.49881C53.6612 3.48628 53.6597 3.47158 53.6637 3.45793C53.6678 3.44428 53.6771 3.43281 53.6895 3.42604C53.7019 3.41926 53.7166 3.41774 53.7301 3.42181C53.7437 3.42589 53.7551 3.43521 53.7618 3.44774C53.831 3.57704 53.8955 3.71076 53.9536 3.84563C53.9583 3.85625 53.9595 3.8681 53.9569 3.87943C53.9544 3.89076 53.9483 3.90097 53.9396 3.90854V3.90762ZM53.3719 2.91335L53.3686 2.9159C53.363 2.92011 53.3566 2.92315 53.3498 2.92486C53.343 2.92656 53.336 2.9269 53.329 2.92584C53.3221 2.92478 53.3155 2.92235 53.3095 2.9187C53.3035 2.91504 53.2983 2.91022 53.2942 2.90453C53.2194 2.80215 53.1399 2.70163 53.0578 2.60553L53.0246 2.56722C53.0153 2.55654 53.0106 2.54257 53.0115 2.52837C53.0124 2.51418 53.0188 2.50093 53.0294 2.49154C53.0401 2.48241 53.0539 2.47786 53.0679 2.47886C53.0819 2.47985 53.0949 2.48633 53.1042 2.49688L53.1381 2.53612C53.222 2.63431 53.3031 2.73692 53.3795 2.84138C53.3876 2.85226 53.3913 2.86581 53.3899 2.87933C53.3885 2.89285 53.382 2.90534 53.3719 2.91428V2.91335ZM52.5978 2.0723C52.5881 2.08054 52.5759 2.08507 52.5632 2.08507C52.5505 2.08507 52.5383 2.08054 52.5286 2.0723C52.4207 1.97944 52.307 1.88821 52.191 1.80394C52.1796 1.79563 52.1719 1.78307 52.1696 1.76903C52.1673 1.75499 52.1707 1.74062 52.1789 1.72907C52.1872 1.71753 52.1997 1.70976 52.2136 1.70747C52.2276 1.70519 52.2418 1.70857 52.2533 1.71688C52.3718 1.80324 52.4878 1.8954 52.5992 1.99104C52.6045 1.99563 52.6089 2.00123 52.612 2.00752C52.6152 2.01382 52.6171 2.02068 52.6176 2.02772C52.6181 2.03476 52.6173 2.04183 52.615 2.04852C52.6128 2.05522 52.6093 2.0614 52.6047 2.06672L52.5978 2.0723ZM51.6577 1.42485C51.6495 1.43185 51.6395 1.43622 51.6288 1.43738C51.6182 1.43854 51.6074 1.43644 51.598 1.43135C51.4714 1.36356 51.3409 1.30065 51.2099 1.24447C51.1969 1.23887 51.1867 1.2283 51.1814 1.21509C51.1761 1.20187 51.1763 1.1871 51.1819 1.17402C51.1874 1.16094 51.1979 1.15061 51.2111 1.14532C51.2242 1.14003 51.2389 1.14021 51.2519 1.14581C51.3856 1.20338 51.5189 1.26769 51.648 1.33687C51.6604 1.34356 51.6697 1.35495 51.6738 1.36852C51.6779 1.3821 51.6765 1.39676 51.6699 1.4093C51.6669 1.41548 51.6627 1.42106 51.6577 1.42578V1.42485Z" fill="white"/>
<path d="M51.7022 10.4611C51.6994 10.4636 51.6963 10.4658 51.693 10.4676C51.6293 10.5024 51.565 10.5356 51.5018 10.5667C51.4955 10.5706 51.4884 10.5732 51.481 10.5741C51.4737 10.5751 51.4662 10.5745 51.459 10.5724C51.4519 10.5703 51.4453 10.5667 51.4396 10.5619C51.4339 10.557 51.4293 10.551 51.4261 10.5443C51.4229 10.5376 51.4211 10.5302 51.4208 10.5227C51.4206 10.5152 51.4219 10.5078 51.4247 10.5009C51.4275 10.4939 51.4317 10.4876 51.437 10.4824C51.4424 10.4772 51.4487 10.4732 51.4557 10.4706C51.5175 10.44 51.5805 10.4073 51.6429 10.3734C51.6545 10.3672 51.6679 10.3656 51.6805 10.3687C51.6932 10.3719 51.7042 10.3796 51.7116 10.3904C51.719 10.4012 51.7222 10.4144 51.7206 10.4274C51.719 10.4405 51.7127 10.4524 51.7029 10.4611H51.7022Z" fill="white"/>
<path d="M47.729 10.8446C47.7222 10.8506 47.7139 10.8547 47.705 10.8566C47.6961 10.8585 47.6869 10.858 47.6783 10.8552C47.6107 10.8336 47.542 10.8088 47.4747 10.7856C47.4679 10.7833 47.4617 10.7797 47.4564 10.775C47.4511 10.7702 47.4468 10.7645 47.4437 10.758C47.4406 10.7516 47.4388 10.7446 47.4385 10.7374C47.4381 10.7303 47.4392 10.7232 47.4416 10.7164C47.4441 10.7097 47.4478 10.7036 47.4526 10.6983C47.4575 10.6931 47.4633 10.6888 47.4698 10.6859C47.4762 10.683 47.4832 10.6814 47.4903 10.6812C47.4974 10.681 47.5045 10.6822 47.5111 10.6848C47.577 10.7081 47.6442 10.7313 47.7106 10.7531C47.724 10.7575 47.7351 10.767 47.7416 10.7796C47.7481 10.7922 47.7494 10.8069 47.7451 10.8204C47.7421 10.8298 47.7365 10.8382 47.729 10.8446Z" fill="white"/>
<path d="M46.8927 10.4915C46.8846 10.4985 46.8746 10.5029 46.864 10.5041C46.8534 10.5053 46.8426 10.5033 46.8332 10.4982C46.7066 10.4309 46.5809 10.3573 46.4599 10.2791C46.4484 10.2713 46.4403 10.2592 46.4375 10.2455C46.4347 10.2318 46.4373 10.2175 46.4448 10.2057C46.4523 10.1939 46.4641 10.1856 46.4776 10.1824C46.4912 10.1792 46.5054 10.1815 46.5173 10.1888C46.6361 10.2654 46.759 10.3376 46.883 10.4035C46.8956 10.4101 46.9051 10.4214 46.9094 10.4349C46.9137 10.4485 46.9125 10.4633 46.9061 10.476C46.9027 10.482 46.8981 10.4873 46.8927 10.4915ZM45.9646 9.85892C45.9549 9.86717 45.9427 9.87169 45.93 9.87169C45.9173 9.87169 45.9051 9.86717 45.8954 9.85892C45.7859 9.76606 45.6791 9.66578 45.5781 9.5634C45.5682 9.55335 45.5626 9.53975 45.5626 9.52556C45.5626 9.51138 45.5682 9.49777 45.5781 9.48772C45.583 9.48268 45.5889 9.47868 45.5953 9.47595C45.6018 9.47321 45.6087 9.4718 45.6157 9.4718C45.6227 9.4718 45.6296 9.47321 45.6361 9.47595C45.6426 9.47868 45.6484 9.48268 45.6533 9.48772C45.7522 9.58778 45.8567 9.68528 45.9639 9.77697C45.9746 9.78616 45.9813 9.79926 45.9825 9.8134C45.9837 9.82754 45.9792 9.84157 45.9701 9.85242C45.9685 9.85474 45.9666 9.85692 45.9646 9.85892ZM45.196 9.0376L45.1933 9.03969C45.182 9.04822 45.1679 9.05192 45.1539 9.04996C45.1399 9.048 45.1273 9.04055 45.1188 9.02924C45.0326 8.91317 44.9502 8.79315 44.8742 8.67058C44.8675 8.65857 44.8657 8.64444 44.8691 8.63112C44.8724 8.61779 44.8808 8.60629 44.8924 8.59898C44.9039 8.59168 44.9179 8.58913 44.9313 8.59187C44.9446 8.59461 44.9565 8.60243 44.9643 8.61371C45.039 8.73372 45.1195 8.85165 45.2039 8.96471C45.2121 8.97557 45.2158 8.98917 45.2144 9.00272C45.2129 9.01627 45.2064 9.02875 45.196 9.0376ZM44.6258 8.06631C44.622 8.06968 44.6176 8.07243 44.6129 8.07444C44.6002 8.07988 44.5858 8.08011 44.5729 8.07509C44.56 8.07006 44.5495 8.06017 44.5437 8.04751C44.4849 7.91588 44.4307 7.78008 44.3823 7.64381C44.3784 7.63062 44.3796 7.61642 44.3858 7.60413C44.392 7.59185 44.4027 7.58244 44.4155 7.57784C44.4284 7.57325 44.4426 7.57382 44.4551 7.57945C44.4676 7.58507 44.4774 7.59532 44.4826 7.60806C44.5287 7.74155 44.5825 7.8748 44.6401 8.00271C44.645 8.01342 44.6463 8.02545 44.6437 8.03695C44.6411 8.04845 44.6348 8.05877 44.6258 8.06631ZM44.2799 6.99312C44.2733 6.9988 44.2654 7.00278 44.2569 7.00472C44.2431 7.00761 44.2287 7.00485 44.2169 6.99706C44.2051 6.98927 44.1968 6.97708 44.1939 6.96317C44.1649 6.8218 44.1414 6.6774 44.1248 6.53394C44.1235 6.52676 44.1237 6.51939 44.1254 6.5123C44.127 6.5052 44.1301 6.49852 44.1344 6.49266C44.1387 6.4868 44.1442 6.48189 44.1505 6.47823C44.1567 6.47457 44.1637 6.47223 44.1709 6.47136C44.178 6.47049 44.1853 6.47111 44.1923 6.47317C44.1992 6.47524 44.2057 6.47871 44.2113 6.48337C44.2168 6.48803 44.2214 6.49379 44.2247 6.50029C44.228 6.50679 44.2299 6.51389 44.2304 6.52117C44.2472 6.66162 44.2702 6.80299 44.2995 6.94158C44.3013 6.95111 44.3004 6.96093 44.297 6.97001C44.2937 6.97908 44.2879 6.98707 44.2804 6.99312H44.2799ZM44.175 5.87001C44.1651 5.87847 44.1525 5.88309 44.1395 5.88301C44.1254 5.8827 44.112 5.8768 44.1022 5.86658C44.0924 5.85637 44.087 5.84266 44.0872 5.82846C44.0895 5.68383 44.0978 5.53781 44.1121 5.39435C44.1135 5.38019 44.1204 5.36717 44.1313 5.35816C44.1423 5.34915 44.1563 5.34488 44.1704 5.3463C44.1845 5.34771 44.1974 5.3547 44.2064 5.36571C44.2153 5.37672 44.2195 5.39087 44.2181 5.40503C44.2041 5.54431 44.1951 5.68848 44.1937 5.83008C44.1936 5.83769 44.1919 5.84519 44.1886 5.85208C44.1854 5.85897 44.1808 5.86508 44.175 5.87001ZM44.3161 4.75131C44.3076 4.75868 44.297 4.76314 44.2857 4.76405C44.2745 4.76495 44.2633 4.76226 44.2537 4.75636C44.2441 4.75046 44.2366 4.74165 44.2323 4.73119C44.228 4.72073 44.2271 4.70917 44.2297 4.69815C44.2633 4.55748 44.3035 4.4168 44.3486 4.2803C44.3535 4.26729 44.3631 4.25669 44.3756 4.2507C44.388 4.24472 44.4023 4.24383 44.4154 4.24823C44.4285 4.25262 44.4393 4.26194 44.4457 4.27425C44.4521 4.28655 44.4535 4.30087 44.4496 4.31419C44.4054 4.44837 44.3662 4.58603 44.333 4.72369C44.3303 4.73447 44.3243 4.74413 44.3159 4.75131H44.3161ZM44.6978 3.69112C44.6885 3.69933 44.6767 3.70404 44.6643 3.70443C44.652 3.70482 44.6399 3.70087 44.6302 3.69325C44.6204 3.68563 44.6136 3.67483 44.6109 3.6627C44.6082 3.65058 44.6098 3.63788 44.6154 3.62681C44.6786 3.49774 44.7483 3.36914 44.823 3.24517C44.8266 3.23907 44.8313 3.23375 44.837 3.22951C44.8426 3.22526 44.849 3.22218 44.8559 3.22043C44.8627 3.21869 44.8698 3.21831 44.8768 3.21933C44.8838 3.22035 44.8905 3.22274 44.8965 3.22637C44.9026 3.23 44.9079 3.23479 44.9121 3.24047C44.9163 3.24616 44.9194 3.25262 44.9211 3.2595C44.9228 3.26638 44.9232 3.27353 44.9222 3.28055C44.9212 3.28757 44.9188 3.29432 44.9152 3.30042C44.8426 3.42206 44.7741 3.54765 44.7121 3.67417C44.7085 3.68078 44.7037 3.68656 44.6978 3.69112ZM45.3003 2.73933C45.2902 2.74819 45.2772 2.75292 45.2639 2.75258C45.2505 2.75225 45.2378 2.74688 45.2282 2.73753C45.2186 2.72818 45.2128 2.71554 45.212 2.70212C45.2112 2.68869 45.2155 2.67546 45.2239 2.66505C45.3141 2.55199 45.4098 2.44196 45.5085 2.33773C45.5133 2.33245 45.519 2.32818 45.5255 2.32517C45.5319 2.32217 45.5389 2.32049 45.5459 2.32023C45.553 2.31997 45.5601 2.32113 45.5667 2.32365C45.5733 2.32618 45.5794 2.33001 45.5846 2.33492C45.5897 2.33984 45.5938 2.34573 45.5967 2.35227C45.5995 2.35881 45.601 2.36585 45.6011 2.37298C45.6013 2.38012 45.5999 2.38721 45.5973 2.39383C45.5947 2.40045 45.5907 2.40648 45.5857 2.41155C45.4891 2.51369 45.3953 2.62164 45.307 2.73214C45.305 2.73475 45.3027 2.73716 45.3003 2.73933ZM46.4396 1.68889C46.4379 1.69041 46.4362 1.6918 46.4343 1.69306C46.3174 1.77153 46.2023 1.85556 46.0926 1.94401C46.0871 1.94864 46.0808 1.95213 46.074 1.95427C46.0672 1.95641 46.0601 1.95715 46.053 1.95645C46.0459 1.95575 46.039 1.95363 46.0327 1.9502C46.0265 1.94678 46.021 1.94213 46.0165 1.93652C46.0121 1.93091 46.0088 1.92447 46.0069 1.91756C46.0049 1.91065 46.0044 1.90343 46.0053 1.89631C46.0062 1.8892 46.0085 1.88234 46.0121 1.87613C46.0157 1.86993 46.0205 1.86452 46.0262 1.86021C46.1382 1.77037 46.2567 1.68401 46.3753 1.60485C46.3865 1.59734 46.4002 1.59443 46.4136 1.5967C46.4269 1.59898 46.4389 1.60628 46.4471 1.61712C46.4552 1.62796 46.459 1.64152 46.4576 1.65507C46.4562 1.66861 46.4498 1.68112 46.4396 1.69005V1.68889Z" fill="white"/>
<path d="M47.2383 1.25125C47.2342 1.25477 47.2296 1.25767 47.2247 1.25984C47.1601 1.28816 47.0958 1.31787 47.0333 1.34829C47.0207 1.35374 47.0065 1.35408 46.9936 1.34922C46.9808 1.34437 46.9703 1.3347 46.9643 1.32224C46.9584 1.30978 46.9574 1.29549 46.9617 1.28235C46.9659 1.26921 46.9751 1.25823 46.9872 1.25171C47.0508 1.22084 47.1166 1.19043 47.1827 1.16141C47.1944 1.15639 47.2075 1.15574 47.2196 1.15957C47.2317 1.1634 47.2421 1.17146 47.2488 1.1823C47.2555 1.19314 47.2582 1.20604 47.2563 1.21868C47.2544 1.23133 47.2481 1.24288 47.2385 1.25125H47.2383Z" fill="white"/>
<path d="M48.1392 2.13219C48.1267 2.13442 48.1152 2.14054 48.1063 2.1497C48.0974 2.15886 48.0916 2.1706 48.0896 2.18326L47.9743 2.92333C47.6506 3.06346 47.3519 3.25589 47.0898 3.49301L46.375 3.28849C46.3629 3.28492 46.3499 3.28524 46.338 3.2894C46.3261 3.29355 46.3157 3.30135 46.3084 3.31171L45.7978 4.04876C45.7905 4.0592 45.7865 4.0717 45.7865 4.08451C45.7865 4.09732 45.7905 4.10981 45.7978 4.12026L46.236 4.72499C46.1058 5.05467 46.0299 5.40352 46.0114 5.7578L45.3613 6.12272C45.3503 6.12901 45.3415 6.1386 45.3361 6.15016C45.3306 6.16172 45.3289 6.17468 45.3311 6.18726L45.4879 7.07172C45.4902 7.08435 45.4963 7.09596 45.5054 7.10495C45.5144 7.11393 45.5261 7.11985 45.5387 7.12187L46.2738 7.23794C46.413 7.56386 46.6041 7.86472 46.8396 8.12867L46.6365 8.84831C46.6329 8.86056 46.6332 8.87361 46.6374 8.88567C46.6415 8.89774 46.6492 8.90821 46.6595 8.91563L47.3919 9.42937C47.4022 9.43683 47.4146 9.44085 47.4273 9.44085C47.44 9.44085 47.4524 9.43683 47.4627 9.42937L48.0636 8.9883C48.3911 9.11929 48.7376 9.19573 49.0894 9.21463L49.4519 9.86881C49.4581 9.88003 49.4676 9.88901 49.4791 9.89451C49.4906 9.90001 49.5035 9.90174 49.516 9.89946L50.3946 9.74137C50.4071 9.7392 50.4187 9.7331 50.4276 9.72393C50.4365 9.71475 50.4423 9.70298 50.4441 9.6903L50.5594 8.95022C50.8833 8.81002 51.1823 8.61752 51.4446 8.38031L52.1595 8.5846C52.1716 8.58819 52.1846 8.58788 52.1966 8.58372C52.2085 8.57956 52.2189 8.57176 52.2263 8.56138L52.7366 7.82433C52.744 7.81389 52.7479 7.80139 52.7479 7.78858C52.7479 7.77577 52.744 7.76328 52.7366 7.75283L52.2985 7.14787C52.4286 6.81818 52.5045 6.46934 52.5231 6.11506L53.1731 5.75037C53.1842 5.74406 53.193 5.73448 53.1984 5.72294C53.2039 5.71139 53.2057 5.69843 53.2035 5.68583L53.0465 4.80114C53.0443 4.78852 53.0382 4.77692 53.0291 4.76797C53.02 4.75902 53.0084 4.75316 52.9958 4.75122L52.2607 4.63515C52.1215 4.30927 51.9304 4.00848 51.6948 3.74465L51.898 3.02501C51.9016 3.01277 51.9013 2.9997 51.8972 2.98763C51.893 2.97556 51.8852 2.96509 51.8749 2.95769L51.1426 2.44372C51.1322 2.43629 51.1199 2.4323 51.1072 2.4323C51.0945 2.4323 51.0821 2.43629 51.0718 2.44372L50.4709 2.8848C50.1435 2.75358 49.7969 2.67713 49.445 2.65846L49.0825 2.00428C49.0764 1.99306 49.0669 1.98408 49.0554 1.97858C49.0439 1.97308 49.031 1.97135 49.0184 1.97363L48.1392 2.13219Z" fill="#00296B"/>
<path d="M49.8372 6.60243C49.6762 6.74248 49.47 6.8185 49.2572 6.81621C49.0444 6.81392 48.8398 6.73347 48.6818 6.58999C48.5238 6.44651 48.4233 6.24987 48.3992 6.03703C48.375 5.8242 48.4289 5.60981 48.5508 5.43418C48.6726 5.25854 48.8539 5.13375 49.0607 5.08324C49.2675 5.03274 49.4855 5.06001 49.6737 5.15993C49.8619 5.25985 50.0074 5.42553 50.0828 5.62584C50.1583 5.82615 50.1584 6.0473 50.0833 6.24772C50.0321 6.38485 49.9475 6.50682 49.8372 6.60243ZM48.8017 5.39367C48.7115 5.47178 48.6424 5.5715 48.6006 5.68361C48.5398 5.84656 48.5401 6.02626 48.6016 6.18897C48.6631 6.35167 48.7814 6.48619 48.9344 6.56726C49.0875 6.64834 49.2646 6.67039 49.4326 6.62928C49.6006 6.58817 49.748 6.48672 49.8469 6.34399C49.9459 6.20126 49.9897 6.02706 49.9702 5.8541C49.9506 5.68114 49.869 5.52132 49.7407 5.40465C49.6124 5.28798 49.4461 5.22249 49.2732 5.22046C49.1004 5.21844 48.9327 5.28003 48.8017 5.39367Z" fill="white"/>
<path d="M50.7289 7.66068C50.3167 8.01803 49.7891 8.21165 49.2452 8.20518C48.7012 8.19871 48.1783 7.9926 47.7746 7.62554C47.3709 7.25847 47.1141 6.75569 47.0525 6.21156C46.9908 5.66743 47.1286 5.11936 47.4398 4.67021C47.4504 4.65474 47.4613 4.63926 47.4724 4.62378C47.5467 4.52195 47.6294 4.42652 47.7195 4.33848L47.7514 4.30807L47.8602 4.42577C47.7523 4.52717 47.6553 4.63976 47.5708 4.76168L47.5685 4.76516C47.3078 5.14363 47.1788 5.59829 47.2015 6.05829C47.2243 6.5183 47.3976 6.9578 47.6943 7.30831C47.9911 7.65882 48.3947 7.90065 48.8423 7.99611C49.2898 8.09157 49.7562 8.03529 50.1686 7.83606C50.5811 7.63683 50.9165 7.30583 51.1226 6.89464C51.3287 6.48345 51.3939 6.01518 51.308 5.56279C51.2222 5.1104 50.9901 4.69931 50.6479 4.39358C50.3058 4.08786 49.8728 3.90467 49.4164 3.87257L49.4272 3.71216C49.869 3.74324 50.2916 3.90578 50.6414 4.17913C50.9912 4.45248 51.2524 4.82432 51.3919 5.24744C51.5314 5.67055 51.5428 6.12585 51.4248 6.55552C51.3067 6.9852 51.0645 7.36986 50.7289 7.66068Z" fill="white"/>
<path d="M4.40393 55.2841C4.4046 55.5519 4.5106 55.8086 4.69874 55.998C4.88688 56.1873 5.14185 56.294 5.4079 56.2946H59.6933C59.9592 56.294 60.2141 56.1875 60.4022 55.9983C60.5903 55.8091 60.6964 55.5527 60.6973 55.285L61.149 23.8779C61.149 23.3227 60.499 22.2386 59.308 22.32L6.25414 20.9372C5.91154 20.9281 5.57067 20.9892 5.25223 21.1167C4.93378 21.2443 4.64441 21.4357 4.40167 21.6793C4.15893 21.9228 3.96788 22.2135 3.84012 22.5337C3.71236 22.8539 3.65055 23.1969 3.65845 23.5418L4.40393 55.2841Z" fill="url(#paint0_linear_2156_7918)"/>
<path d="M5.39501 54.3154C5.3958 54.5688 5.49612 54.8116 5.67406 54.9907C5.85201 55.1698 6.09313 55.2708 6.34479 55.2716H58.3839C58.6355 55.2708 58.8767 55.1698 59.0546 54.9907C59.2326 54.8116 59.3329 54.5688 59.3337 54.3154L59.7598 25.8039C59.7097 24.0881 58.2149 23.4716 57.3098 23.508L6.46285 22.1346C6.222 22.1283 5.9824 22.1713 5.75857 22.2611C5.53475 22.3508 5.33137 22.4854 5.1608 22.6567C4.99022 22.828 4.856 23.0324 4.76629 23.2575C4.67658 23.4826 4.63325 23.7238 4.63892 23.9663L5.39501 54.3154Z" fill="url(#paint1_linear_2156_7918)"/>
<path d="M58.771 40.7705H58.7689C58.7505 40.7706 58.7323 40.7669 58.7153 40.7597C58.6983 40.7525 58.6829 40.7419 58.67 40.7287C58.6572 40.7154 58.647 40.6997 58.6402 40.6825C58.6335 40.6652 58.6302 40.6468 58.6306 40.6282L58.6643 38.3159C58.6646 38.2792 58.6794 38.2441 58.7053 38.2183C58.7312 38.1925 58.7662 38.178 58.8026 38.178H58.8047C58.823 38.1782 58.8411 38.182 58.8579 38.1893C58.8747 38.1965 58.8899 38.2071 58.9027 38.2203C58.9154 38.2336 58.9254 38.2492 58.9321 38.2664C58.9388 38.2835 58.942 38.3019 58.9416 38.3203L58.908 40.6324C58.9077 40.6689 58.8932 40.7038 58.8675 40.7297C58.8419 40.7555 58.8073 40.7702 58.771 40.7705Z" fill="white"/>
<path d="M58.8538 35.1042H58.8517C58.8334 35.1041 58.8154 35.1002 58.7986 35.093C58.7817 35.0857 58.7665 35.0752 58.7538 35.062C58.7411 35.0488 58.7311 35.0331 58.7243 35.016C58.7176 34.9989 58.7144 34.9806 58.7148 34.9622L58.8439 26.1061C58.8413 25.5801 58.6825 25.1602 58.3723 24.8607C57.7929 24.3017 56.8735 24.3303 56.8341 24.3321L40.5825 23.8934C40.5642 23.893 40.5462 23.8889 40.5294 23.8815C40.5127 23.874 40.4976 23.8633 40.485 23.8499C40.4724 23.8366 40.4626 23.8208 40.4561 23.8036C40.4496 23.7864 40.4465 23.7681 40.4471 23.7497C40.4468 23.731 40.4502 23.7125 40.4574 23.6953C40.4645 23.6781 40.4752 23.6626 40.4886 23.6498C40.502 23.637 40.518 23.6271 40.5354 23.6208C40.5528 23.6146 40.5714 23.612 40.5899 23.6134L56.832 24.0521C56.933 24.0461 57.9125 24.0289 58.5649 24.6583C58.932 25.0123 59.1194 25.5 59.1222 26.1075L58.9931 34.9663C58.9927 35.0032 58.9778 35.0384 58.9517 35.0643C58.9256 35.0901 58.8904 35.1045 58.8538 35.1042Z" fill="white"/>
<path d="M0.130524 58.9009L63.87 58.9009C63.9419 58.9009 64.0002 58.8422 64.0002 58.7697V56.2726C64.0002 56.2001 63.9419 56.1414 63.87 56.1414L0.130524 56.1414C0.0585709 56.1414 0.000244141 56.2001 0.000244141 56.2726V58.7697C0.000244141 58.8422 0.0585709 58.9009 0.130524 58.9009Z" fill="url(#paint2_linear_2156_7918)"/>
<path d="M15.9311 10.3825C15.9311 9.45901 16.2955 8.57331 16.9442 7.92029C17.5928 7.26726 18.4726 6.90039 19.3899 6.90039H48.8003C49.5817 6.90021 50.3333 7.20226 50.8998 7.74413C51.4663 8.286 51.8043 9.02627 51.844 9.81193L54.015 52.7402C54.0303 53.0432 53.985 53.3461 53.8817 53.631C53.7784 53.9159 53.6192 54.177 53.4137 54.3987C53.2081 54.6205 52.9604 54.7984 52.6852 54.9218C52.41 55.0452 52.113 55.1116 51.8118 55.1172L18.1032 55.7337C17.82 55.7389 17.5385 55.6873 17.2753 55.5817C17.012 55.4762 16.7723 55.3189 16.5702 55.1191C16.368 54.9192 16.2075 54.6808 16.0978 54.4178C15.9882 54.1547 15.9318 53.8723 15.9318 53.5871L15.9311 10.3825Z" fill="#01296B"/>
<path d="M17.0497 45.1945C17.0283 45.1945 17.0078 45.1859 16.9927 45.1708C16.9776 45.1556 16.9691 45.135 16.969 45.1135V44.1849C16.969 44.1633 16.9775 44.1427 16.9926 44.1274C17.0078 44.1122 17.0283 44.1036 17.0497 44.1036C17.0711 44.1036 17.0916 44.1122 17.1068 44.1274C17.1219 44.1427 17.1304 44.1633 17.1304 44.1849V45.1135C17.1304 45.1241 17.1283 45.1347 17.1243 45.1445C17.1202 45.1544 17.1142 45.1633 17.1068 45.1708C17.0993 45.1784 17.0904 45.1843 17.0806 45.1884C17.0708 45.1924 17.0603 45.1945 17.0497 45.1945Z" fill="url(#paint3_linear_2156_7918)"/>
<path d="M18.3405 7.56154C18.3396 7.41675 18.3695 7.27346 18.4284 7.14133C18.4872 7.00921 18.5735 6.89134 18.6815 6.79569C18.7894 6.70005 18.9165 6.62885 19.0542 6.58692C19.1918 6.54499 19.3368 6.5333 19.4794 6.55265C23.4955 7.10097 37.3066 8.797 48.7254 7.9144C48.8489 7.90462 48.9732 7.91982 49.0908 7.95912C49.2084 7.99841 49.317 8.061 49.4103 8.1432C49.5035 8.22541 49.5795 8.32556 49.6337 8.43776C49.6879 8.54996 49.7192 8.67195 49.7259 8.79654L52.0022 51.9161C52.0173 52.2001 51.9201 52.4785 51.7319 52.6906C51.5437 52.9026 51.2798 53.0311 50.9978 53.0478C46.1954 53.3341 26.4174 54.4407 19.3615 53.6962C19.1542 53.6741 18.9623 53.5758 18.8225 53.4201C18.6827 53.2644 18.6048 53.0623 18.6038 52.8524L18.3405 7.56154Z" fill="#FDC501"/>
<path opacity="0.78" d="M22.3916 11.8414L22.8021 20.7376C22.8085 20.8802 22.8683 21.015 22.9694 21.1151C23.0705 21.2151 23.2055 21.273 23.3472 21.2771C24.9843 21.3235 30.0833 21.4489 32.9626 21.2977C33.1196 21.2894 33.2678 21.2221 33.3778 21.109C33.4879 20.996 33.5517 20.8454 33.5568 20.6872C33.6117 19.0188 33.7318 14.1628 33.3541 12.133C33.3243 11.9737 33.2415 11.8294 33.1193 11.7239C32.9971 11.6184 32.8428 11.558 32.6819 11.5526L23.0091 11.2125C22.9267 11.2096 22.8445 11.2239 22.7678 11.2546C22.6911 11.2853 22.6215 11.3316 22.5635 11.3907C22.5055 11.4498 22.4602 11.5204 22.4307 11.5979C22.4011 11.6755 22.3878 11.7584 22.3916 11.8414Z" fill="white"/>
<g opacity="0.6">
<path d="M46.5922 12.6158C46.7818 12.6158 46.933 12.4814 46.9282 12.3173C46.9233 12.1531 46.7645 12.0155 46.5752 12.0127L35.9683 11.8223C35.7787 11.8188 35.6752 11.9635 35.7377 12.1434L35.7884 12.2885C35.8513 12.4684 36.0579 12.6158 36.2475 12.6158H46.5922Z" fill="white"/>
</g>
<g opacity="0.6">
<path d="M35.9678 13.4808C35.7783 13.4775 35.6747 13.6219 35.7372 13.8018L35.7879 13.9469C35.8509 14.1271 36.0575 14.2742 36.247 14.2742H46.5918C46.7813 14.2742 46.9326 14.1398 46.9277 13.9757C46.9229 13.8116 46.764 13.6739 46.5747 13.6711L35.9678 13.4808Z" fill="white"/>
</g>
<g opacity="0.6">
<path d="M35.9678 15.1634C35.7783 15.1601 35.6747 15.3045 35.7372 15.4844L35.7879 15.6295C35.8509 15.8097 36.0575 15.9568 36.247 15.9568H46.5918C46.7813 15.9568 46.9326 15.8224 46.9277 15.6583C46.9229 15.4942 46.764 15.3565 46.5747 15.3537L35.9678 15.1634Z" fill="white"/>
</g>
<g opacity="0.6">
<path d="M47.6227 24.0711C47.8122 24.0711 47.9584 23.9367 47.9476 23.7726C47.9368 23.6084 47.773 23.4731 47.5835 23.4708L22.7334 23.2737C22.5438 23.2721 22.4852 23.393 22.6033 23.5423L22.8065 23.799C22.9245 23.9483 23.1754 24.0704 23.3656 24.0704L47.6227 24.0711Z" fill="white"/>
</g>
<g opacity="0.6">
<path d="M22.7334 25.4017C22.5438 25.4004 22.4852 25.5213 22.6033 25.6706L22.8065 25.9259C22.9245 26.0752 23.1754 26.1975 23.3656 26.1975H47.6232C47.8127 26.1975 47.9589 26.0631 47.948 25.899C47.9372 25.7349 47.7735 25.5993 47.584 25.5972L22.7334 25.4017Z" fill="white"/>
</g>
<path d="M25.828 36.2425H25.8223L23.7251 36.2223C23.4253 36.2193 23.1779 36.0118 23.1486 35.7395L22.9642 33.968C22.9589 33.9161 22.9642 33.8636 22.9798 33.8138C22.9953 33.764 23.0208 33.7179 23.0546 33.6783C23.0948 33.6315 23.1438 33.5933 23.1989 33.566C23.254 33.5386 23.314 33.5227 23.3753 33.519C23.5522 33.5067 23.801 33.4854 24.0643 33.4629C24.6191 33.4164 25.3095 33.3561 25.6978 33.3512C25.9798 33.3498 26.2187 33.5177 26.2851 33.7649C26.3944 34.1716 26.3849 34.9414 26.3639 35.7613C26.3584 36.0285 26.1181 36.2425 25.828 36.2425ZM23.3875 33.6808C23.3479 33.6831 23.3092 33.6932 23.2735 33.7107C23.2379 33.7282 23.2061 33.7527 23.18 33.7828C23.1603 33.8057 23.1454 33.8325 23.1362 33.8614C23.1271 33.8903 23.1238 33.9208 23.1267 33.9511L23.3112 35.7225C23.331 35.9129 23.5102 36.058 23.7281 36.0601L25.8264 36.0805H25.8306C26.034 36.0805 26.2023 35.9363 26.2067 35.7574C26.2272 34.9497 26.2369 34.1927 26.1333 33.8074C26.0872 33.6344 25.9083 33.5142 25.7035 33.5137C25.321 33.5186 24.6338 33.5773 24.0818 33.6247C23.8176 33.6479 23.5681 33.6688 23.3901 33.6811L23.3875 33.6808Z" fill="white"/>
<path opacity="0.6" d="M23.6131 33.8636C24.0537 33.8334 25.0113 33.7355 25.4656 33.7296C25.6579 33.7273 25.8267 33.8443 25.8719 34.0124C25.9595 34.3388 25.948 34.989 25.9327 35.5893C25.9281 35.7693 25.7642 35.9127 25.5638 35.9106L23.8879 35.8946C23.6818 35.8925 23.5107 35.7511 23.4915 35.5668L23.3442 34.1508C23.3301 34.0045 23.4498 33.875 23.6131 33.8636Z" fill="white"/>
<g opacity="0.6">
<path d="M27.6702 35.0663C27.6997 35.1789 27.7656 35.2783 27.8574 35.349C27.9493 35.4197 28.0619 35.4576 28.1775 35.4568L47.5828 35.2903C47.6873 35.2901 47.7874 35.2482 47.8611 35.1736C47.9348 35.0991 47.9761 34.9982 47.9759 34.893C47.9756 34.7879 47.9339 34.6871 47.8599 34.6129C47.7859 34.5387 47.6857 34.4971 47.5812 34.4974L28.1754 34.4082C28.0956 34.408 28.0167 34.4262 27.945 34.4615C27.8733 34.4969 27.8106 34.5483 27.7617 34.6119C27.7129 34.6755 27.6792 34.7496 27.6634 34.8284C27.6475 34.9072 27.6498 34.9886 27.6702 35.0663Z" fill="white"/>
</g>
<path d="M25.828 40.7681H25.8223L23.7251 40.7479C23.4253 40.7448 23.1779 40.5373 23.1486 40.265L22.9642 38.4935C22.9589 38.4416 22.9642 38.3892 22.9798 38.3394C22.9953 38.2896 23.0208 38.2436 23.0546 38.204C23.0948 38.1573 23.1439 38.1191 23.199 38.0917C23.254 38.0643 23.314 38.0483 23.3753 38.0446C23.5522 38.0325 23.801 38.0111 24.0643 37.9884C24.6191 37.9408 25.3095 37.8818 25.6978 37.877H25.7063C25.983 37.877 26.2193 38.0462 26.2851 38.2906C26.3944 38.6973 26.3849 39.4671 26.3639 40.2871C26.3584 40.5533 26.1181 40.7681 25.828 40.7681ZM23.3875 38.2064C23.348 38.2087 23.3093 38.2189 23.2736 38.2364C23.238 38.2539 23.2062 38.2783 23.18 38.3083C23.1603 38.3312 23.1454 38.358 23.1362 38.3869C23.1271 38.4159 23.1239 38.4464 23.1267 38.4766L23.3112 40.2481C23.331 40.4384 23.5102 40.5835 23.7281 40.5858L25.8264 40.606H25.8306C26.034 40.606 26.2023 40.4619 26.2067 40.2829C26.2272 39.4753 26.2369 38.7185 26.1333 38.3329C26.0872 38.1602 25.9058 38.036 25.7035 38.0392C25.321 38.0441 24.6338 38.1031 24.0818 38.1502C23.8176 38.1734 23.5681 38.1943 23.3901 38.2066L23.3875 38.2064Z" fill="white"/>
<path opacity="0.6" d="M23.6131 38.3892C24.0537 38.3588 25.0113 38.2609 25.4656 38.2553C25.6579 38.2527 25.8267 38.37 25.8719 38.5378C25.9595 38.8642 25.948 39.5147 25.9327 40.1148C25.9281 40.2947 25.7642 40.4381 25.5638 40.4363L23.8879 40.42C23.6818 40.4179 23.5107 40.2766 23.4915 40.0922L23.3442 38.6762C23.3301 38.5301 23.4498 38.4004 23.6131 38.3892Z" fill="white"/>
<g opacity="0.6">
<path d="M27.6702 39.5917C27.6997 39.7043 27.7656 39.8037 27.8574 39.8744C27.9493 39.9451 28.0619 39.983 28.1775 39.9822L47.5828 39.8158C47.6873 39.8155 47.7873 39.7736 47.8611 39.699C47.9348 39.6245 47.976 39.5236 47.9758 39.4184C47.9756 39.3133 47.9339 39.2125 47.8599 39.1383C47.7859 39.0641 47.6856 39.0225 47.5812 39.0228L28.1754 38.9338C28.0955 38.9336 28.0167 38.9518 27.945 38.9871C27.8732 39.0224 27.8105 39.0738 27.7617 39.1374C27.7129 39.201 27.6792 39.2751 27.6633 39.3538C27.6475 39.4326 27.6498 39.514 27.6702 39.5917Z" fill="white"/>
</g>
<path d="M25.828 45.2937H25.8223L23.7251 45.2733C23.4253 45.2705 23.1779 45.0629 23.1486 44.7906L22.9642 43.0189C22.9589 42.967 22.9642 42.9146 22.9798 42.8648C22.9953 42.815 23.0208 42.769 23.0546 42.7294C23.0948 42.6827 23.1439 42.6445 23.199 42.6171C23.254 42.5897 23.314 42.5737 23.3753 42.57C23.5522 42.5579 23.801 42.5365 24.0643 42.514C24.6191 42.4676 25.3095 42.4072 25.6978 42.4023H25.7063C25.983 42.4023 26.2193 42.5716 26.2851 42.816C26.3944 43.2227 26.3849 43.9925 26.3639 44.8124C26.3584 45.0789 26.1181 45.2937 25.828 45.2937ZM23.3875 42.7318C23.348 42.7341 23.3093 42.7443 23.2736 42.7618C23.238 42.7793 23.2062 42.8037 23.18 42.8337C23.1603 42.8567 23.1454 42.8835 23.1362 42.9124C23.1271 42.9414 23.1238 42.9719 23.1267 43.0022L23.3112 44.7737C23.331 44.964 23.5102 45.1091 23.7279 45.1112L25.8262 45.1314H25.8304C26.0337 45.1314 26.2021 44.9873 26.2064 44.8083C26.227 44.0006 26.2366 43.2439 26.1331 42.8583C26.087 42.6853 25.9055 42.5607 25.7033 42.5644C25.3208 42.5693 24.6336 42.6282 24.0816 42.6756C23.8173 42.6988 23.5678 42.7194 23.3898 42.7318H23.3875Z" fill="white"/>
<path opacity="0.6" d="M23.6131 42.9146C24.0537 42.8842 25.0113 42.7865 25.4656 42.7807C25.6579 42.7784 25.8267 42.8954 25.8719 43.0634C25.9595 43.3896 25.948 44.04 25.9327 44.6404C25.9281 44.82 25.7642 44.9635 25.5638 44.9617L23.8879 44.9454C23.6818 44.9435 23.5107 44.8019 23.4915 44.6176L23.3442 43.2015C23.3301 43.0555 23.4498 42.9258 23.6131 42.9146Z" fill="white"/>
<g opacity="0.6">
<path d="M27.6702 44.1171C27.6997 44.2297 27.7656 44.3291 27.8574 44.3999C27.9492 44.4706 28.0618 44.5086 28.1775 44.5078L47.5828 44.3411C47.6856 44.3384 47.7832 44.2954 47.8549 44.2212C47.9266 44.1469 47.9665 44.0475 47.9663 43.944C47.9661 43.8405 47.9257 43.7411 47.8538 43.6672C47.7818 43.5933 47.684 43.5507 47.5812 43.5484L28.1754 43.4592C28.0955 43.459 28.0167 43.4772 27.945 43.5125C27.8732 43.5478 27.8105 43.5992 27.7617 43.6628C27.7129 43.7264 27.6792 43.8004 27.6633 43.8792C27.6475 43.958 27.6498 44.0394 27.6702 44.1171Z" fill="white"/>
</g>
<path d="M25.8281 49.8191H25.8223L23.7251 49.7989C23.4254 49.7959 23.1779 49.5883 23.1487 49.316L22.9642 47.5445C22.959 47.4926 22.9643 47.4401 22.9798 47.3903C22.9954 47.3405 23.0208 47.2944 23.0546 47.2548C23.0948 47.2081 23.1439 47.1699 23.199 47.1425C23.2541 47.1151 23.314 47.0991 23.3753 47.0953C23.5522 47.0833 23.801 47.0619 24.0643 47.0394C24.6191 46.993 25.3095 46.9326 25.6978 46.9277H25.7063C25.983 46.9277 26.2194 47.0967 26.2851 47.3414C26.3944 47.7481 26.3849 48.5179 26.3639 49.3378C26.3584 49.6043 26.1181 49.8191 25.8281 49.8191ZM23.3875 47.2571C23.348 47.2595 23.3092 47.2698 23.2736 47.2873C23.238 47.3048 23.2062 47.3293 23.18 47.3593C23.1603 47.3822 23.1454 47.409 23.1362 47.4379C23.1271 47.4669 23.1238 47.4974 23.1268 47.5276L23.3112 49.2991C23.3311 49.4894 23.5102 49.6345 23.7279 49.6366L25.8262 49.6568H25.8304C26.0337 49.6568 26.2021 49.5126 26.2065 49.3339C26.227 48.5263 26.2367 47.7692 26.1331 47.3839C26.087 47.2112 25.9055 47.0856 25.7033 47.0902C25.3208 47.0949 24.6336 47.1538 24.0816 47.2012C23.8174 47.2244 23.5679 47.2453 23.3899 47.2574L23.3875 47.2571Z" fill="white"/>
<path opacity="0.6" d="M23.6131 47.44C24.0537 47.4098 25.0113 47.3119 25.4656 47.3061C25.6579 47.3037 25.8267 47.4207 25.8719 47.5888C25.9595 47.915 25.948 48.5654 25.9327 49.1658C25.9281 49.3454 25.7642 49.4891 25.5638 49.487L23.8879 49.471C23.6818 49.4689 23.5107 49.3273 23.4915 49.1432L23.3442 47.7272C23.3301 47.5809 23.4498 47.4514 23.6131 47.44Z" fill="white"/>
<g opacity="0.6">
<path d="M27.6702 48.6427C27.6997 48.7552 27.7656 48.8547 27.8574 48.9254C27.9493 48.9961 28.0619 49.034 28.1775 49.0332L47.5828 48.8665C47.6856 48.8638 47.7833 48.8207 47.8549 48.7465C47.9266 48.6723 47.9666 48.5728 47.9664 48.4693C47.9662 48.3658 47.9257 48.2665 47.8538 48.1926C47.7818 48.1187 47.684 48.076 47.5812 48.0737L28.1761 47.9839C28.0961 47.9835 28.0171 48.0017 27.9452 48.037C27.8734 48.0723 27.8105 48.1238 27.7616 48.1876C27.7127 48.2513 27.679 48.3255 27.6631 48.4044C27.6473 48.4833 27.6497 48.5649 27.6702 48.6427Z" fill="white"/>
</g>
<path d="M25.6431 32.305H25.6374L23.539 32.2848C23.2393 32.2818 22.9921 32.0743 22.9637 31.802L22.7793 30.0305C22.7741 29.9786 22.7794 29.9261 22.795 29.8763C22.8105 29.8265 22.8359 29.7804 22.8696 29.7408C22.9099 29.694 22.959 29.6558 23.0141 29.6284C23.0693 29.601 23.1293 29.585 23.1906 29.5813C23.3672 29.5692 23.616 29.5479 23.8796 29.5254C24.4342 29.4789 25.1248 29.4186 25.5131 29.4137H25.5216C25.7983 29.4137 26.0347 29.5827 26.1004 29.8274C26.2097 30.2339 26.2 31.0039 26.1792 31.8238C26.1735 32.0903 25.933 32.305 25.6431 32.305ZM23.2024 29.7431C23.1628 29.7454 23.124 29.7556 23.0884 29.7731C23.0528 29.7907 23.021 29.8152 22.9949 29.8452C22.975 29.8682 22.9601 29.8949 22.9509 29.9238C22.9417 29.9528 22.9384 29.9833 22.9414 30.0136L23.1258 31.785C23.1454 31.9754 23.3248 32.1205 23.5425 32.1226L25.6408 32.1428H25.645C25.8481 32.1428 26.0164 31.9986 26.021 31.8199C26.0416 31.012 26.0513 30.2552 25.9477 29.8699C25.9016 29.6971 25.7201 29.5716 25.5179 29.576C25.1351 29.5808 24.448 29.6398 23.896 29.6872C23.632 29.7104 23.3822 29.7313 23.2042 29.7433L23.2024 29.7431Z" fill="white"/>
<path opacity="0.6" d="M23.4281 29.926C23.8688 29.8958 24.8264 29.7978 25.2804 29.792C25.473 29.7897 25.6417 29.9067 25.6869 30.0748C25.7746 30.3998 25.7628 31.0514 25.7478 31.6517C25.7432 31.8314 25.579 31.9751 25.3789 31.973L23.7028 31.9568C23.4968 31.9549 23.3255 31.8133 23.3064 31.6292L23.159 30.2131C23.1438 30.0669 23.2649 29.9373 23.4281 29.926Z" fill="white"/>
<g opacity="0.6">
<path d="M27.4853 31.1285C27.5148 31.241 27.5806 31.3405 27.6725 31.4112C27.7643 31.4819 27.8769 31.5198 27.9926 31.5189L47.3979 31.3523C47.5007 31.3495 47.5983 31.3065 47.67 31.2323C47.7416 31.1581 47.7816 31.0586 47.7814 30.9551C47.7812 30.8516 47.7408 30.7523 47.6689 30.6783C47.5969 30.6044 47.4991 30.5618 47.3963 30.5595L27.9905 30.4703C27.9106 30.4701 27.8318 30.4883 27.76 30.5236C27.6882 30.5589 27.6255 30.6104 27.5767 30.674C27.5278 30.7376 27.4942 30.8117 27.4783 30.8905C27.4625 30.9693 27.4649 31.0507 27.4853 31.1285Z" fill="white"/>
</g>
<path d="M35.9201 1.04769C34.8578 0.303675 33.934 0.3183 33.2838 0.511675C32.9962 0.597824 32.7472 0.781729 32.5792 1.03204C32.4112 1.28235 32.3347 1.58356 32.3626 1.88434L32.643 4.96603L35.98 5.2641C35.98 5.2641 38.0025 2.50718 35.9201 1.04769ZM34.4526 3.53371C34.288 3.53371 34.1271 3.48457 33.9903 3.3925C33.8534 3.30043 33.7467 3.16957 33.6838 3.01647C33.6208 2.86337 33.6043 2.6949 33.6364 2.53237C33.6686 2.36985 33.7479 2.22057 33.8643 2.10341C33.9807 1.98625 34.129 1.90647 34.2904 1.87417C34.4519 1.84187 34.6192 1.8585 34.7712 1.92194C34.9233 1.98539 35.0533 2.09281 35.1447 2.23062C35.2361 2.36842 35.2848 2.53043 35.2848 2.69614C35.2848 2.80625 35.2632 2.91528 35.2213 3.01699C35.1794 3.1187 35.118 3.21109 35.0406 3.28889C34.9632 3.36668 34.8714 3.42834 34.7703 3.47035C34.6692 3.51236 34.5608 3.53389 34.4515 3.53371H34.4526Z" fill="#FDC500"/>
<path d="M32.9753 3.66973C32.9552 3.6697 32.9358 3.66212 32.9209 3.64846C32.9061 3.63481 32.8969 3.61607 32.895 3.59591L32.8505 3.10516C32.8493 3.09445 32.8503 3.0836 32.8533 3.07326C32.8563 3.06292 32.8614 3.05329 32.8681 3.04494C32.8749 3.03659 32.8833 3.02968 32.8927 3.02463C32.9022 3.01957 32.9126 3.01646 32.9232 3.01549C32.9339 3.01451 32.9446 3.01569 32.9548 3.01896C32.965 3.02222 32.9745 3.0275 32.9827 3.03449C32.9908 3.04148 32.9975 3.05004 33.0023 3.05966C33.0072 3.06929 33.01 3.07978 33.0108 3.09054L33.0555 3.58129C33.0574 3.60268 33.0508 3.62397 33.0372 3.64047C33.0235 3.65697 33.0039 3.66733 32.9826 3.66927L32.9753 3.66973ZM32.8876 2.70797C32.8676 2.70793 32.8482 2.70034 32.8334 2.68668C32.8186 2.67302 32.8094 2.65428 32.8076 2.63414L32.7737 2.26272C32.7476 1.97623 32.8207 1.68945 32.9806 1.45106C33.1406 1.21266 33.3776 1.03733 33.6513 0.954823C34.0475 0.836518 34.4667 0.819207 34.8711 0.904448C34.892 0.908789 34.9104 0.921316 34.9221 0.939274C34.9339 0.957233 34.938 0.979151 34.9337 1.00021C34.9294 1.02126 34.917 1.03973 34.8991 1.05155C34.8813 1.06337 34.8595 1.06757 34.8386 1.06323C34.4601 0.983318 34.0678 0.999271 33.697 1.10966C33.459 1.18152 33.253 1.33404 33.1139 1.54136C32.9748 1.74868 32.9113 1.99804 32.934 2.24716L32.9679 2.61975C32.9698 2.64117 32.9632 2.66248 32.9496 2.67902C32.9359 2.69556 32.9163 2.70596 32.895 2.70797H32.8876Z" fill="white"/>
<path d="M28.0873 6.95727V5.40887C28.0873 5.282 28.1127 5.15643 28.1619 5.03964C28.2112 4.92285 28.2832 4.81723 28.3739 4.72907C28.4645 4.64091 28.5718 4.57202 28.6894 4.52649C28.8071 4.48095 28.9326 4.45972 29.0585 4.46405L39.6689 4.82852C39.8961 4.83637 40.1122 4.92924 40.275 5.08898C40.4378 5.24873 40.5356 5.46386 40.5493 5.69232L40.6378 7.18105L28.0873 6.95727Z" fill="#FDC500"/>
<path d="M32.0437 5.04702H31.5874C31.566 5.04702 31.5454 5.03846 31.5303 5.02322C31.5152 5.00799 31.5067 4.98732 31.5067 4.96577C31.5067 4.94422 31.5152 4.92356 31.5303 4.90832C31.5454 4.89308 31.566 4.88452 31.5874 4.88452H32.0437C32.0651 4.88452 32.0856 4.89308 32.1008 4.90832C32.1159 4.92356 32.1244 4.94422 32.1244 4.96577C32.1244 4.98732 32.1159 5.00799 32.1008 5.02322C32.0856 5.03846 32.0651 5.04702 32.0437 5.04702Z" fill="white"/>
<path d="M28.6617 6.47101C28.6404 6.47101 28.6199 6.46247 28.6048 6.44728C28.5897 6.43209 28.5812 6.41148 28.5812 6.38999V5.76321C28.5815 5.53037 28.6735 5.30714 28.837 5.1425C29.0005 4.97786 29.2223 4.88526 29.4535 4.88501H31.131C31.1525 4.88501 31.173 4.89357 31.1881 4.90881C31.2032 4.92405 31.2118 4.94471 31.2118 4.96626C31.2118 4.98781 31.2032 5.00847 31.1881 5.02371C31.173 5.03895 31.1525 5.04751 31.131 5.04751H29.4535C29.265 5.04776 29.0842 5.12329 28.9508 5.25754C28.8175 5.39179 28.7424 5.57381 28.7422 5.76367V6.39046C28.7421 6.41186 28.7335 6.43235 28.7185 6.44744C28.7034 6.46254 28.683 6.47101 28.6617 6.47101Z" fill="white"/>
<path d="M23.7641 7.34867C23.7764 7.09038 23.8871 6.8468 24.073 6.66839C24.2589 6.48998 24.5059 6.39044 24.7627 6.39038H43.3168C43.6399 6.39038 43.9527 6.50526 44.1999 6.71478C44.4471 6.92429 44.6129 7.21497 44.668 7.53554L44.6839 7.62677C44.7132 7.79707 44.7051 7.97176 44.6603 8.13859C44.6155 8.30543 44.5349 8.46038 44.4244 8.5926C44.3138 8.72483 44.1759 8.83112 44.0203 8.90404C43.8646 8.97696 43.695 9.01475 43.5234 9.01476H24.4881C24.3845 9.01475 24.2819 8.99356 24.1866 8.95247C24.0914 8.91139 24.0054 8.85126 23.9338 8.77572C23.8623 8.70019 23.8068 8.61083 23.7706 8.51306C23.7344 8.41528 23.7183 8.31113 23.7233 8.2069L23.7641 7.34867Z" fill="#01296B"/>
<path d="M26.0102 17.869V17.4896C26.0102 17.1425 26.0632 16.8399 26.1691 16.5817C26.275 16.3236 26.4679 16.0462 26.7479 15.7497C27.0135 15.4569 27.183 15.2275 27.2565 15.0614C27.33 14.8954 27.3668 14.684 27.367 14.4272C27.367 14.1923 27.3132 14.0008 27.2056 13.8526C27.098 13.7045 26.9275 13.6305 26.6941 13.6305C26.3064 13.6305 25.8991 13.7698 25.472 14.0483L24.9661 12.9642C25.5165 12.5815 26.1707 12.3788 26.8396 12.3839C27.4318 12.3839 27.8992 12.5492 28.242 12.8797C28.5848 13.2103 28.7562 13.6701 28.7562 14.2591C28.7562 14.6713 28.697 15.0209 28.5785 15.308C28.4599 15.595 28.214 15.941 27.8406 16.3459C27.5999 16.6097 27.4461 16.813 27.3794 16.9557C27.3127 17.0984 27.2795 17.2926 27.2798 17.5384V17.869H26.0102ZM25.7566 19.6797C25.7566 19.3944 25.8328 19.1749 25.9853 19.0211C26.1378 18.8672 26.3595 18.7905 26.6503 18.7908C26.9445 18.7908 27.1674 18.8694 27.319 19.0266C27.4706 19.1839 27.5459 19.4016 27.545 19.6797C27.545 19.9542 27.4681 20.1709 27.3144 20.3297C27.1607 20.4885 26.9394 20.5678 26.6505 20.5678C26.3632 20.5678 26.1425 20.4905 25.9883 20.3357C25.8341 20.1809 25.7571 19.9621 25.7573 19.6792L25.7566 19.6797Z" fill="white"/>
<path d="M14.3172 62.9481C14.3172 62.9481 14.1955 63.6411 14.136 64.3273C14.1307 64.3909 14.1382 64.455 14.1581 64.5156C14.178 64.5762 14.2099 64.6321 14.2519 64.68C14.2939 64.7278 14.3451 64.7666 14.4023 64.794C14.4596 64.8214 14.5218 64.8369 14.5852 64.8394C15.4925 64.8775 17.4338 64.9515 18.1302 64.9202C18.1545 64.919 18.1782 64.912 18.1993 64.8998C18.2204 64.8875 18.2383 64.8703 18.2514 64.8497C18.2646 64.8291 18.2727 64.8056 18.275 64.7812C18.2772 64.7567 18.2737 64.7321 18.2646 64.7094C18.2323 64.6271 18.1697 64.5606 18.0898 64.5237L14.8833 63.04L14.3172 62.9481Z" fill="url(#paint4_linear_2156_7918)"/>
<path d="M14.2177 62.5409L14.3152 63.3698C14.3152 63.3698 14.8769 63.6331 15.2606 63.3366L15.0279 62.4127L14.2177 62.5409Z" fill="url(#paint5_linear_2156_7918)"/>
<path d="M14.2912 46.9555C14.249 47.1719 14.0647 57.7588 15.1886 62.5031C15.1978 62.5404 15.1934 62.5798 15.1762 62.6142C15.1591 62.6485 15.1302 62.6756 15.095 62.6904C14.8024 62.8042 14.4928 62.8674 14.1793 62.8775C14.1183 62.8796 14.0584 62.8611 14.0089 62.8251C13.9595 62.7891 13.9233 62.7375 13.9061 62.6786C13.5849 61.5778 12.0453 56.0625 11.8444 50.7945C11.6199 44.9076 11.8444 50.5939 11.8444 50.5939L11.9761 46.9551L14.2912 46.9555Z" fill="url(#paint6_linear_2156_7918)"/>
<path d="M10.6286 63.3096C10.6286 63.3096 10.4351 63.6596 10.2476 64.5894C10.2395 64.6289 10.2398 64.6698 10.2483 64.7092C10.2569 64.7487 10.2736 64.7859 10.2974 64.8184C10.3211 64.851 10.3514 64.8781 10.3863 64.8981C10.4211 64.9182 10.4598 64.9306 10.4997 64.9346C10.7994 64.9643 11.2606 65.0026 11.6295 64.9998C11.6697 64.9997 11.7095 64.991 11.7461 64.9744C11.7827 64.9577 11.8155 64.9335 11.8422 64.9032C11.8688 64.8729 11.8889 64.8373 11.901 64.7987C11.913 64.7601 11.9169 64.7194 11.9122 64.6792C11.8714 64.3398 11.7439 63.7829 11.3498 63.349L10.6286 63.3096Z" fill="url(#paint7_linear_2156_7918)"/>
<path d="M10.4586 62.2433L10.6869 63.4969C10.6869 63.4969 10.9127 63.6659 11.3591 63.5433L11.2502 62.1946L10.4586 62.2433Z" fill="url(#paint8_linear_2156_7918)"/>
<path d="M9.84205 47.2803C8.92271 52.8661 10.0413 61.0858 10.4185 62.6946C10.4296 62.7428 10.4547 62.7866 10.4904 62.8205C10.5262 62.8544 10.5711 62.8769 10.6196 62.8852C10.7881 62.9133 11.0653 62.936 11.3388 62.8562C11.3847 62.8426 11.4253 62.8149 11.4547 62.7769C11.4842 62.7389 11.5011 62.6926 11.503 62.6444C11.5535 61.3444 11.4624 53.3587 12.319 50.2032C12.3625 50.0437 12.4596 49.9042 12.5936 49.8086L14.2561 48.6186L14.3837 46.6951L9.84205 47.2803Z" fill="url(#paint9_linear_2156_7918)"/>
<path d="M15.6998 36.6967C12.9448 36.6502 9.905 37.4249 9.905 37.4249C9.08366 42.249 9.76135 47.8133 9.76135 47.8133C11.8943 48.3764 14.3002 47.469 14.3002 47.469C14.6548 45.4526 16.3088 39.7779 16.3088 39.7779C17.655 39.6098 18.7638 39.2186 19.677 38.7017C18.9804 37.8892 18.652 36.8545 18.5093 36.243C17.5353 36.5478 16.5495 36.7108 15.6998 36.6967Z" fill="url(#paint10_linear_2156_7918)"/>
<path d="M23.8374 32.6112C23.5667 32.2821 23.2241 32.4378 23.2241 32.4378C22.8187 34.162 20.6929 35.5599 18.5088 36.2431C18.6516 36.8546 18.9799 37.889 19.6765 38.7017C23.3015 36.6501 23.8374 32.6112 23.8374 32.6112Z" fill="url(#paint11_linear_2156_7918)"/>
<path d="M23.7722 32.6948C23.8005 32.7856 23.4724 32.9234 23.2794 32.5529C23.2727 32.3751 23.1641 31.6142 23.2709 31.4693C23.8323 30.6986 24.9212 29.7322 24.9212 29.7322C25.1056 29.9151 24.9537 30.0946 24.9537 30.0946L24.4254 30.6487C24.5358 30.8495 24.6707 31.0201 24.7337 31.2625C24.7801 31.448 24.7537 31.6444 24.6599 31.8108C24.5677 31.9789 24.4408 32.1975 24.3212 32.3679C24.0947 32.6925 23.7722 32.6948 23.7722 32.6948Z" fill="url(#paint12_linear_2156_7918)"/>
<path d="M24.1944 31.0081L23.7131 31.419L23.5619 31.8278L23.991 32.3071C23.991 32.3071 24.1353 31.4946 24.2425 31.3201C24.3498 31.1455 24.2942 31.0594 24.1944 31.0081Z" fill="url(#paint13_linear_2156_7918)"/>
<path d="M10.9618 40.1106L9.90501 37.4249C9.90501 37.4249 7.33169 39.1853 6.90741 41.4178C7.39371 41.4538 8.27847 41.5803 9.14408 42.0214C9.33593 40.9667 10.9618 40.1106 10.9618 40.1106Z" fill="url(#paint14_linear_2156_7918)"/>
<path d="M13.2104 42.6377C13.2104 42.6377 10.3212 44.2818 9.34652 42.878C9.14406 42.5864 9.09564 42.2976 9.14545 42.0207C8.27937 41.5796 7.39462 41.4531 6.90877 41.4171C6.78126 42.0903 6.84882 42.8056 7.24151 43.5296C8.94784 46.6745 13.5934 43.356 13.5934 43.356L13.2104 42.6377Z" fill="url(#paint15_linear_2156_7918)"/>
<path d="M12.8634 44.7175L14.4402 39.1737C14.449 39.1431 14.4666 39.1157 14.4907 39.0951C14.5149 39.0744 14.5445 39.0614 14.576 39.0576C14.8617 39.0242 15.6895 38.9299 16.6455 38.8487C17.7968 38.7507 19.1337 38.6713 19.9327 38.7389C19.9589 38.7411 19.9841 38.7497 20.0062 38.7639C20.0284 38.7781 20.0467 38.7976 20.0597 38.8206C20.0726 38.8435 20.0799 38.8694 20.0807 38.8958C20.0815 38.9222 20.0759 38.9484 20.0643 38.9722C19.6101 39.8978 17.7412 43.6615 16.8053 44.8951C16.7901 44.9153 16.7704 44.9316 16.7478 44.9428C16.7252 44.9539 16.7004 44.9596 16.6752 44.9594L13.0168 44.925C12.9919 44.9248 12.9674 44.9187 12.9452 44.9073C12.9231 44.896 12.9038 44.8796 12.889 44.8595C12.8741 44.8394 12.8641 44.8162 12.8597 44.7915C12.8552 44.7669 12.8565 44.7416 12.8634 44.7175Z" fill="url(#paint16_linear_2156_7918)"/>
<path d="M16.8089 38.3674L17.9522 38.1756C17.9662 38.1731 17.9806 38.1742 17.994 38.179C18.0074 38.1838 18.0194 38.192 18.0287 38.2028C18.038 38.2136 18.0443 38.2267 18.0471 38.2407C18.0499 38.2548 18.0489 38.2693 18.0444 38.2829L17.9314 38.6281C17.9266 38.6428 17.9178 38.6559 17.9059 38.6659C17.894 38.6758 17.8796 38.6822 17.8643 38.6843L16.7642 38.8321C16.751 38.8339 16.7376 38.8325 16.7251 38.8279C16.7126 38.8233 16.7014 38.8157 16.6925 38.8058C16.6836 38.7959 16.6772 38.7839 16.6738 38.771C16.6705 38.758 16.6703 38.7444 16.6734 38.7314L16.7425 38.4296C16.7463 38.4138 16.7546 38.3995 16.7664 38.3884C16.7782 38.3773 16.793 38.37 16.8089 38.3674Z" fill="url(#paint17_linear_2156_7918)"/>
<path d="M15.953 39.3417L16.0471 38.8479C16.0515 38.8237 16.0637 38.8015 16.0817 38.7848C16.0997 38.7681 16.1226 38.7576 16.1469 38.7551L18.456 38.5192C18.4739 38.5174 18.492 38.52 18.5088 38.5266C18.5255 38.5333 18.5405 38.5438 18.5524 38.5574C18.5643 38.571 18.5728 38.5873 18.5772 38.6049C18.5816 38.6225 18.5818 38.6409 18.5778 38.6585L18.4309 39.2739C18.4252 39.2979 18.4119 39.3193 18.3931 39.3351C18.3742 39.3508 18.3509 39.36 18.3264 39.3612L16.0699 39.4757C16.0529 39.4765 16.0359 39.4734 16.0203 39.4668C16.0046 39.4601 15.9906 39.4499 15.9794 39.437C15.9682 39.4242 15.96 39.4089 15.9554 39.3924C15.9508 39.3759 15.95 39.3586 15.953 39.3417Z" fill="url(#paint18_linear_2156_7918)"/>
<path d="M13.2443 43.378C13.2443 43.378 13.0248 42.4686 13.1134 42.1462C13.2019 41.8238 13.3737 41.4087 13.9458 41.5008C14.5179 41.593 15.193 41.8358 15.193 41.8358C15.193 41.8358 15.1589 42.256 14.724 42.1204L14.9938 42.3294C14.9938 42.3294 14.955 42.6657 14.5877 42.4861L14.8386 42.7646C14.8386 42.7646 14.6809 43.0409 14.4106 42.8638C14.1404 42.6866 14.0108 43.4875 13.2443 43.378Z" fill="url(#paint19_linear_2156_7918)"/>
<path d="M12.9093 34.4449L12.0331 36.9971C12.0261 37.0176 12.0265 37.0398 12.0341 37.0601C12.0418 37.0803 12.0561 37.0972 12.0748 37.1079C12.3137 37.2409 13.1747 37.6253 14.2121 36.963C14.2657 36.9293 14.3112 36.8841 14.3455 36.8307C14.3797 36.7772 14.4018 36.7168 14.4102 36.6538L14.694 34.4449H12.9093Z" fill="url(#paint20_linear_2156_7918)"/>
<path d="M14.8167 32.0822C14.8167 32.0822 15.7792 33.9063 15.6558 34.6432C15.5324 35.38 14.3394 35.3273 13.2976 34.7288L12.5696 32.7591L14.8167 32.0822Z" fill="url(#paint21_linear_2156_7918)"/>
<path d="M13.3437 33.7608C13.3537 33.7564 13.3625 33.7498 13.3697 33.7417C13.3769 33.7335 13.3822 33.7238 13.3853 33.7134C13.3884 33.7029 13.3893 33.6919 13.3877 33.6811C13.3862 33.6702 13.3824 33.6599 13.3765 33.6507C13.2992 33.5321 13.1546 33.29 13.1085 33.0783C13.1085 33.0783 12.9356 32.9666 13.5489 32.8187C14.1623 32.6709 15.0773 32.4415 15.2696 31.9157C15.457 31.4031 14.9645 30.1143 14.1787 31.1413C14.1717 31.1504 14.1627 31.1577 14.1525 31.1628C14.1422 31.1679 14.131 31.1705 14.1195 31.1705C14.1081 31.1705 14.0968 31.1679 14.0866 31.1628C14.0763 31.1577 14.0674 31.1504 14.0604 31.1413C13.9315 30.9723 13.5928 30.622 13.1224 30.8344C12.6824 31.0331 12.6328 31.3579 12.6381 31.5215C12.6386 31.5327 12.6366 31.5439 12.6321 31.5543C12.6277 31.5646 12.621 31.5737 12.6126 31.5811C12.6041 31.5884 12.5941 31.5938 12.5833 31.5967C12.5726 31.5996 12.5613 31.6 12.5503 31.5979C12.3278 31.5552 11.7937 31.5185 11.5445 32.0701C11.3393 32.5241 11.4728 32.7814 11.5943 32.9072C11.6033 32.9164 11.6098 32.9278 11.6131 32.9403C11.6164 32.9528 11.6164 32.966 11.6132 32.9785C11.61 32.991 11.6036 33.0025 11.5947 33.0118C11.5857 33.0211 11.5746 33.0279 11.5622 33.0316C11.416 33.0766 11.2272 33.2015 11.2461 33.5463C11.2724 34.0231 11.8018 33.9811 11.9526 33.9595C11.9647 33.9576 11.9771 33.9587 11.9887 33.9627C12.0003 33.9668 12.0107 33.9736 12.019 33.9827C12.1481 34.1269 12.7306 34.7383 13.361 34.8121C13.3736 34.8135 13.3864 34.8116 13.3981 34.8066C13.4098 34.8017 13.42 34.7938 13.4279 34.7838C13.4358 34.7738 13.441 34.762 13.4432 34.7494C13.4453 34.7368 13.4443 34.7239 13.4401 34.7119L13.1673 33.9135C13.1614 33.8958 13.1623 33.8764 13.1697 33.8592C13.1772 33.8421 13.1907 33.8283 13.2077 33.8207L13.3437 33.7608Z" fill="url(#paint22_linear_2156_7918)"/>
<path d="M13.4535 33.874C13.4535 33.874 12.7679 33.4007 12.7179 33.7993C12.6679 34.1979 13.3352 34.3769 13.6656 34.2281L13.4535 33.874Z" fill="url(#paint23_linear_2156_7918)"/>
<path d="M46.0704 33.3401C46.0804 33.3209 46.0959 33.3051 46.1149 33.2949C46.134 33.2847 46.1556 33.2804 46.177 33.2827C46.1985 33.285 46.2187 33.2938 46.2351 33.3078C46.2516 33.3218 46.2634 33.3405 46.2692 33.3615C46.3656 33.7111 46.5992 34.3211 47.0891 34.5377C47.1138 34.5486 47.1371 34.5596 47.1597 34.5707C47.1729 34.5332 47.177 34.493 47.1716 34.4536C47.1663 34.4141 47.1517 34.3765 47.129 34.3439C46.9766 34.1094 47.2517 33.7895 47.2517 33.7895C47.2517 33.7895 47.2699 34.0714 47.4823 34.2487C47.6668 34.4017 47.7537 34.742 47.6283 35.0211C47.3631 36.058 46.966 37.4295 48.5128 38.4315C50.0595 39.4334 52.2379 36.5404 52.2379 36.5404L51.1567 39.991C51.1567 39.991 49.4879 41.2306 47.5471 39.4875C45.6063 37.7443 46.8925 35.2075 46.8925 35.2075C46.8925 35.2075 45.4126 34.6062 46.0704 33.3401Z" fill="url(#paint24_linear_2156_7918)"/>
<path d="M52.509 31.4709C52.509 31.4709 52.061 29.4471 54.3634 29.9829C54.3634 29.9829 55.481 29.799 55.538 30.8611C55.538 30.8611 56.2583 31.339 55.7308 32.2581C55.7308 32.2581 57.872 31.4254 58.8047 33.3148C59.7374 35.2042 58.8801 36.2438 57.9813 36.5144C57.9813 36.5144 58.7094 36.8826 58.3647 37.7139C58.02 38.5452 56.2742 39.1312 55.2431 38.1202C55.2431 38.1202 52.3084 38.5106 52.3672 36.4239C52.3672 36.4239 51.0024 35.5367 52.4364 33.8121C53.8704 32.0875 52.509 31.4709 52.509 31.4709Z" fill="url(#paint25_linear_2156_7918)"/>
<path d="M52.3838 36.1614C52.8464 36.0221 54.1937 35.764 55.475 36.9546C55.5818 37.0536 55.6595 37.1801 55.6998 37.3205C55.7401 37.4608 55.7414 37.6096 55.7035 37.7506C55.3595 39.0274 54.4515 42.7949 55.2477 44.4257C55.2477 44.4257 53.8446 45.9829 52.3137 44.7275C52.3137 44.7275 51.627 41.714 50.7273 40.391C50.1063 39.4778 51.7177 36.9613 52.1253 36.3534C52.187 36.2613 52.2783 36.1935 52.3838 36.1614Z" fill="url(#paint26_linear_2156_7918)"/>
<path d="M53.6601 33.6271C53.6601 33.6271 54.3445 35.5757 54.3959 36.436C54.3959 36.436 53.6396 36.7821 52.9271 36.1978C52.9271 36.1978 52.8521 34.2515 52.7442 33.9031L53.6601 33.6271Z" fill="url(#paint27_linear_2156_7918)"/>
<path d="M52.7096 30.9702C52.7096 30.9702 50.9198 33.4919 51.9897 34.2243C53.0597 34.9567 54.3336 33.1646 54.3336 33.1646C54.3336 33.1646 54.7487 31.7845 54.3147 31.3163C53.8808 30.8481 52.7096 30.9702 52.7096 30.9702Z" fill="url(#paint28_linear_2156_7918)"/>
<path d="M53.5381 30.3678C53.5381 30.3678 52.7159 30.5639 52.6006 30.9384C52.4853 31.3128 53.7666 31.6601 54.1257 31.6773L54.4148 33.1886C54.4148 33.1886 55.2698 31.7667 54.9311 30.9456C54.5924 30.1245 53.5381 30.3678 53.5381 30.3678Z" fill="url(#paint29_linear_2156_7918)"/>
<path d="M53.9866 32.9792C53.9866 32.9792 54.6835 32.1667 54.9604 32.6964C55.2373 33.2262 54.3334 33.6236 54.0205 33.3636L53.9866 32.9792Z" fill="url(#paint30_linear_2156_7918)"/>
<path d="M50.5255 51.0549C50.5308 51.1919 50.2924 52.2769 50.1624 52.8559C50.1103 53.0886 50.1466 53.3325 50.2643 53.5396L54.7607 61.1592C54.815 61.2513 54.8548 61.3513 54.8787 61.4556C54.9613 61.8131 55.1324 62.6895 55.0429 63.4866L54.8103 63.9741L55.8163 63.7441L56.0354 61.0241L55.7503 60.8493C55.5044 60.6983 55.3127 60.4722 55.2032 60.2039C54.7964 59.2096 53.7867 56.6784 53.5264 55.445C53.2305 54.0428 51.6842 52.9042 51.6842 52.9042L51.9558 52.2577L50.5255 51.0549Z" fill="url(#paint31_linear_2156_7918)"/>
<path d="M56.9349 62.8072C56.9349 62.8072 56.3916 61.9399 56.3278 61.6024C56.2639 61.2649 56.0859 60.669 55.7513 60.8484C55.7513 60.8484 55.5936 62.488 55.648 63.1287C55.7024 63.7695 54.9286 63.7488 54.9286 63.7488C54.7901 63.7738 54.6619 63.839 54.5596 63.9364C54.4519 64.0448 54.529 64.2333 54.6811 64.243C55.0416 64.2676 55.4037 64.247 55.7591 64.1815C55.8309 64.1674 55.896 64.1297 55.9441 64.0742C55.9923 64.0188 56.0207 63.9488 56.025 63.8753L56.1366 61.9882L56.8219 62.8592L56.9349 62.8072Z" fill="url(#paint32_linear_2156_7918)"/>
<path d="M53.2121 52.2689C53.2121 52.2689 53.3705 59.0843 53.3922 60.0524C53.4138 61.0204 53.2402 63.1656 52.2764 63.8068L52.6958 64.1193C52.6958 64.1193 53.2199 63.6708 53.732 62.8077C54.3085 61.838 54.4812 61.6609 54.4812 61.6609L54.2903 61.2662C54.2069 61.0941 54.1826 60.899 54.2211 60.7114C54.4286 59.6965 55.1241 56.3207 55.3136 55.5936C55.5373 54.7347 55.5532 53.5895 54.7748 52.6303C53.9963 51.6711 53.2121 52.2689 53.2121 52.2689Z" fill="url(#paint33_linear_2156_7918)"/>
<path d="M54.1021 64.4266C54.1165 64.4268 54.1305 64.4218 54.1414 64.4124C54.1524 64.403 54.1596 64.3899 54.1616 64.3756C54.1937 64.1483 54.3272 63.2381 54.4365 63.0015C54.5617 62.7313 54.9705 61.5943 54.4365 61.4977C54.4365 61.4977 53.1083 63.4514 52.8533 63.7146C52.5983 63.9779 52.2768 63.8075 52.2768 63.8075C52.1048 63.8686 51.9537 63.9778 51.841 64.1223C51.8212 64.1484 51.809 64.1796 51.8058 64.2124C51.8026 64.2451 51.8085 64.2781 51.8228 64.3076C51.8372 64.3372 51.8595 64.3621 51.8871 64.3797C51.9148 64.3972 51.9467 64.4066 51.9794 64.4069L52.8741 64.4155C53.0009 64.4165 53.1251 64.3789 53.2304 64.3077C53.3357 64.2365 53.4172 64.1349 53.4641 64.0162C53.6216 63.6202 53.8921 63.0393 54.2073 62.7817L54.0436 64.3602C54.0427 64.3685 54.0436 64.3769 54.0461 64.3849C54.0487 64.3929 54.0528 64.4002 54.0583 64.4064C54.0638 64.4127 54.0706 64.4177 54.0781 64.4212C54.0857 64.4247 54.0938 64.4265 54.1021 64.4266Z" fill="url(#paint34_linear_2156_7918)"/>
<path d="M52.1009 43.9929C52.1009 43.9929 52.3024 44.6399 51.9928 45.7054L50.0715 52.4608C50.0567 52.512 50.0619 52.567 50.086 52.6144C50.1102 52.6619 50.1514 52.6983 50.2013 52.7161C50.7762 52.9237 52.6654 53.5108 55.2442 53.3318C55.3074 53.3277 55.3675 53.3031 55.4156 53.2617C55.4637 53.2203 55.4972 53.1643 55.511 53.1022L56.3801 49.165C56.835 47.1083 57.343 44.8899 55.1086 43.5486C54.0789 43.991 53.1185 44.2524 52.1009 43.9929Z" fill="url(#paint35_linear_2156_7918)"/>
<path d="M55.6581 37.209C55.6581 37.209 57.8441 39.0378 58.3866 41.5371C58.9292 44.0363 55.1923 44.3019 55.1923 44.3019C55.1923 44.3019 54.685 43.7315 54.0828 43.9349C53.4805 44.1382 54.0366 42.9397 54.7409 42.9427C55.4451 42.9457 55.119 43.5068 56.1158 43.0522C57.0868 42.6096 57.687 41.2399 55.2094 39.1641C55.065 39.0442 54.9525 38.89 54.8822 38.7154C54.4001 37.4957 54.7819 36.6962 55.6581 37.209Z" fill="url(#paint36_linear_2156_7918)"/>
</g>
<defs>
<linearGradient id="paint0_linear_2156_7918" x1="32.4214" y1="19.9796" x2="32.1853" y2="67.3476" gradientUnits="userSpaceOnUse">
<stop stop-color="#2B3582"/>
<stop offset="1" stop-color="#150E42"/>
</linearGradient>
<linearGradient id="paint1_linear_2156_7918" x1="53.9562" y1="19.5105" x2="6.92084" y2="60.5292" gradientUnits="userSpaceOnUse">
<stop stop-color="#53D8FF"/>
<stop offset="1" stop-color="#3840F7"/>
</linearGradient>
<linearGradient id="paint2_linear_2156_7918" x1="32.0179" y1="58.9708" x2="31.6629" y2="30.3011" gradientUnits="userSpaceOnUse">
<stop stop-color="#2B3582"/>
<stop offset="1" stop-color="#150E42"/>
</linearGradient>
<linearGradient id="paint3_linear_2156_7918" x1="12.0285" y1="41.4377" x2="42.8038" y2="60.8581" gradientUnits="userSpaceOnUse">
<stop stop-color="#A737D5"/>
<stop offset="1" stop-color="#EF497A"/>
</linearGradient>
<linearGradient id="paint4_linear_2156_7918" x1="18.029" y1="61.9903" x2="6.20116" y2="74.7691" gradientUnits="userSpaceOnUse">
<stop stop-color="#2B3582"/>
<stop offset="1" stop-color="#150E42"/>
</linearGradient>
<linearGradient id="paint5_linear_2156_7918" x1="14.2177" y1="62.9453" x2="15.2606" y2="62.9453" gradientUnits="userSpaceOnUse">
<stop stop-color="#F9B776"/>
<stop offset="1" stop-color="#F47960"/>
</linearGradient>
<linearGradient id="paint6_linear_2156_7918" x1="18.9534" y1="47.4488" x2="8.87483" y2="61.0175" gradientUnits="userSpaceOnUse">
<stop stop-color="#CB236D"/>
<stop offset="1" stop-color="#4C246D"/>
</linearGradient>
<linearGradient id="paint7_linear_2156_7918" x1="15.3948" y1="59.5521" x2="3.56693" y2="72.3311" gradientUnits="userSpaceOnUse">
<stop stop-color="#2B3582"/>
<stop offset="1" stop-color="#150E42"/>
</linearGradient>
<linearGradient id="paint8_linear_2156_7918" x1="10.4586" y1="62.8915" x2="11.3593" y2="62.8915" gradientUnits="userSpaceOnUse">
<stop stop-color="#F9B776"/>
<stop offset="1" stop-color="#F47960"/>
</linearGradient>
<linearGradient id="paint9_linear_2156_7918" x1="17.1728" y1="46.1263" x2="7.09426" y2="59.6948" gradientUnits="userSpaceOnUse">
<stop stop-color="#CB236D"/>
<stop offset="1" stop-color="#4C246D"/>
</linearGradient>
<linearGradient id="paint10_linear_2156_7918" x1="14.9463" y1="38.5429" x2="3.31563" y2="54.2966" gradientUnits="userSpaceOnUse">
<stop stop-color="#FDF53F"/>
<stop offset="1" stop-color="#D93C65"/>
</linearGradient>
<linearGradient id="paint11_linear_2156_7918" x1="23.0161" y1="29.3013" x2="21.1538" y2="34.5868" gradientUnits="userSpaceOnUse">
<stop stop-color="#F9B776"/>
<stop offset="1" stop-color="#F47960"/>
</linearGradient>
<linearGradient id="paint12_linear_2156_7918" x1="24.5889" y1="29.8554" x2="22.7266" y2="35.1409" gradientUnits="userSpaceOnUse">
<stop stop-color="#F9B776"/>
<stop offset="1" stop-color="#F47960"/>
</linearGradient>
<linearGradient id="paint13_linear_2156_7918" x1="23.1754" y1="33.2373" x2="24.5765" y2="30.4299" gradientUnits="userSpaceOnUse">
<stop stop-color="#F9B776"/>
<stop offset="1" stop-color="#F47960"/>
</linearGradient>
<linearGradient id="paint14_linear_2156_7918" x1="11.9226" y1="36.3106" x2="0.291974" y2="52.0644" gradientUnits="userSpaceOnUse">
<stop stop-color="#FDF53F"/>
<stop offset="1" stop-color="#D93C65"/>
</linearGradient>
<linearGradient id="paint15_linear_2156_7918" x1="6.84974" y1="43.1498" x2="13.593" y2="43.1498" gradientUnits="userSpaceOnUse">
<stop stop-color="#F9B776"/>
<stop offset="1" stop-color="#F47960"/>
</linearGradient>
<linearGradient id="paint16_linear_2156_7918" x1="15.8059" y1="39.0483" x2="19.5612" y2="54.5904" gradientUnits="userSpaceOnUse">
<stop stop-color="#2B3582"/>
<stop offset="0.24" stop-color="#262C72"/>
<stop offset="1" stop-color="#150E42"/>
</linearGradient>
<linearGradient id="paint17_linear_2156_7918" x1="17.9545" y1="35.8716" x2="17.1546" y2="39.3605" gradientUnits="userSpaceOnUse">
<stop stop-color="#A737D5"/>
<stop offset="1" stop-color="#EF497A"/>
</linearGradient>
<linearGradient id="paint18_linear_2156_7918" x1="17.541" y1="37.336" x2="17.1586" y2="39.6167" gradientUnits="userSpaceOnUse">
<stop stop-color="#A737D5"/>
<stop offset="1" stop-color="#EF497A"/>
</linearGradient>
<linearGradient id="paint19_linear_2156_7918" x1="13.0924" y1="42.438" x2="15.193" y2="42.438" gradientUnits="userSpaceOnUse">
<stop stop-color="#F9B776"/>
<stop offset="1" stop-color="#F47960"/>
</linearGradient>
<linearGradient id="paint20_linear_2156_7918" x1="12.0275" y1="35.8924" x2="14.6936" y2="35.8924" gradientUnits="userSpaceOnUse">
<stop stop-color="#F9B776"/>
<stop offset="1" stop-color="#F47960"/>
</linearGradient>
<linearGradient id="paint21_linear_2156_7918" x1="15.2307" y1="34.5558" x2="12.2712" y2="32.7642" gradientUnits="userSpaceOnUse">
<stop stop-color="#F9B776"/>
<stop offset="1" stop-color="#F47960"/>
</linearGradient>
<linearGradient id="paint22_linear_2156_7918" x1="10.7207" y1="30.8391" x2="14.5501" y2="33.841" gradientUnits="userSpaceOnUse">
<stop stop-color="#2B3582"/>
<stop offset="1" stop-color="#150E42"/>
</linearGradient>
<linearGradient id="paint23_linear_2156_7918" x1="14.4567" y1="35.2309" x2="11.7939" y2="33.6194" gradientUnits="userSpaceOnUse">
<stop stop-color="#F9B776"/>
<stop offset="1" stop-color="#F47960"/>
</linearGradient>
<linearGradient id="paint24_linear_2156_7918" x1="45.4555" y1="30.7419" x2="51.3517" y2="40.0368" gradientUnits="userSpaceOnUse">
<stop stop-color="#F9B776"/>
<stop offset="1" stop-color="#F47960"/>
</linearGradient>
<linearGradient id="paint25_linear_2156_7918" x1="61.5531" y1="30.045" x2="55.6558" y2="33.9512" gradientUnits="userSpaceOnUse">
<stop stop-color="#2B3582"/>
<stop offset="1" stop-color="#150E42"/>
</linearGradient>
<linearGradient id="paint26_linear_2156_7918" x1="46.1035" y1="26.0353" x2="53.4985" y2="39.528" gradientUnits="userSpaceOnUse">
<stop stop-color="#53D8FF"/>
<stop offset="1" stop-color="#3840F7"/>
</linearGradient>
<linearGradient id="paint27_linear_2156_7918" x1="52.5732" y1="37.3993" x2="53.6754" y2="34.9673" gradientUnits="userSpaceOnUse">
<stop stop-color="#F9B776"/>
<stop offset="1" stop-color="#F47960"/>
</linearGradient>
<linearGradient id="paint28_linear_2156_7918" x1="52.5166" y1="31.4757" x2="54.7541" y2="36.2864" gradientUnits="userSpaceOnUse">
<stop stop-color="#F9B776"/>
<stop offset="1" stop-color="#F47960"/>
</linearGradient>
<linearGradient id="paint29_linear_2156_7918" x1="59.9745" y1="27.6619" x2="54.077" y2="31.5681" gradientUnits="userSpaceOnUse">
<stop stop-color="#2B3582"/>
<stop offset="1" stop-color="#150E42"/>
</linearGradient>
<linearGradient id="paint30_linear_2156_7918" x1="53.5575" y1="30.9917" x2="55.795" y2="35.8024" gradientUnits="userSpaceOnUse">
<stop stop-color="#F9B776"/>
<stop offset="1" stop-color="#F47960"/>
</linearGradient>
<linearGradient id="paint31_linear_2156_7918" x1="58.6511" y1="67.7777" x2="50.452" y2="53.0603" gradientUnits="userSpaceOnUse">
<stop stop-color="#F9B776"/>
<stop offset="1" stop-color="#F47960"/>
</linearGradient>
<linearGradient id="paint32_linear_2156_7918" x1="56.9018" y1="62.5691" x2="54.4871" y2="62.5451" gradientUnits="userSpaceOnUse">
<stop stop-color="#2B3582"/>
<stop offset="1" stop-color="#150E42"/>
</linearGradient>
<linearGradient id="paint33_linear_2156_7918" x1="49.3972" y1="56.8229" x2="61.7287" y2="60.875" gradientUnits="userSpaceOnUse">
<stop stop-color="#F9B776"/>
<stop offset="1" stop-color="#F47960"/>
</linearGradient>
<linearGradient id="paint34_linear_2156_7918" x1="54.6587" y1="62.9855" x2="51.7803" y2="62.9569" gradientUnits="userSpaceOnUse">
<stop stop-color="#2B3582"/>
<stop offset="1" stop-color="#150E42"/>
</linearGradient>
<linearGradient id="paint35_linear_2156_7918" x1="50.9217" y1="43.4557" x2="57.7409" y2="58.9679" gradientUnits="userSpaceOnUse">
<stop stop-color="#2B3582"/>
<stop offset="1" stop-color="#150E42"/>
</linearGradient>
<linearGradient id="paint36_linear_2156_7918" x1="57.9815" y1="44.7213" x2="46.1879" y2="27.5164" gradientUnits="userSpaceOnUse">
<stop stop-color="#F9B776"/>
<stop offset="1" stop-color="#F47960"/>
</linearGradient>
<clipPath id="clip0_2156_7918">
<rect width="64" height="65" fill="white"/>
</clipPath>
</defs>
</svg>
