<svg width="14" height="14" viewBox="0 0 14 14" fill="none" xmlns="http://www.w3.org/2000/svg">
<path d="M0 1.4C0 1.0287 0.122917 0.672602 0.341709 0.410051C0.560501 0.1475 0.857247 0 1.16667 0H12.8333C13.1428 0 13.4395 0.1475 13.6583 0.410051C13.8771 0.672602 14 1.0287 14 1.4C14 1.7713 13.8771 2.1274 13.6583 2.38995C13.4395 2.6525 13.1428 2.8 12.8333 2.8H1.16667C0.857247 2.8 0.560501 2.6525 0.341709 2.38995C0.122917 2.1274 0 1.7713 0 1.4ZM2.33333 7C2.33333 6.6287 2.45625 6.2726 2.67504 6.01005C2.89383 5.7475 3.19058 5.6 3.5 5.6H10.5C10.8094 5.6 11.1062 5.7475 11.325 6.01005C11.5437 6.2726 11.6667 6.6287 11.6667 7C11.6667 7.3713 11.5437 7.7274 11.325 7.98995C11.1062 8.2525 10.8094 8.4 10.5 8.4H3.5C3.19058 8.4 2.89383 8.2525 2.67504 7.98995C2.45625 7.7274 2.33333 7.3713 2.33333 7ZM5.83333 11.2C5.52391 11.2 5.22717 11.3475 5.00838 11.6101C4.78958 11.8726 4.66667 12.2287 4.66667 12.6C4.66667 12.9713 4.78958 13.3274 5.00838 13.59C5.22717 13.8525 5.52391 14 5.83333 14H8.16667C8.47609 14 8.77283 13.8525 8.99162 13.59C9.21042 13.3274 9.33333 12.9713 9.33333 12.6C9.33333 12.2287 9.21042 11.8726 8.99162 11.6101C8.77283 11.3475 8.47609 11.2 8.16667 11.2H5.83333Z" fill="#B6B6B6"/>
</svg>
