<svg width="19" height="19" viewBox="0 0 19 19" fill="none" xmlns="http://www.w3.org/2000/svg">
<path d="M10.4283 0C14.933 0.447171 18.5234 4.01502 18.952 8.5343C19.0775 9.77654 18.9564 11.0313 18.5957 12.2267C18.235 13.4221 17.6418 14.5347 16.85 15.5007C16.0582 16.4667 15.0835 17.2672 13.9815 17.8562C12.8796 18.4453 11.6721 18.8113 10.4283 18.9334V17.0305C13.8949 16.6214 16.6187 13.8718 17.0568 10.4086C17.1801 9.41644 17.1065 8.40971 16.84 7.446C16.5736 6.48229 16.1195 5.58052 15.5039 4.79228C14.8882 4.00404 14.1231 3.3448 13.2522 2.85227C12.3813 2.35974 11.4217 2.04358 10.4283 1.92188V0ZM8.52362 0.0285428V1.9314C7.16175 2.12168 5.87606 2.67351 4.80942 3.52979L3.44754 2.12168C4.89209 0.932733 6.6602 0.203645 8.52362 0.0285428ZM2.10472 3.4632L3.46659 4.82374C2.62209 5.89816 2.0826 7.17983 1.90472 8.5343H0C0.190472 6.6695 0.904743 4.90936 2.10472 3.4632ZM0.00952359 10.4372H1.91424C2.08567 11.7882 2.62851 13.0726 3.46659 14.1477L2.11424 15.5083C0.931102 14.06 0.199303 12.2969 0.00952359 10.4372ZM4.80942 15.5463C5.88559 16.3836 7.17127 16.9259 8.52362 17.0971V19C6.657 18.8002 4.88561 18.0486 3.44754 16.8498L4.80942 15.5463ZM9.47599 13.7672L5.19036 9.48573H8.52362V5.68002H10.4283V9.48573H13.7616L9.47599 13.7672Z" fill="white"/>
</svg>
