<svg width="60" height="60" viewBox="0 0 60 60" fill="none" xmlns="http://www.w3.org/2000/svg">
<circle cx="30" cy="30" r="30" fill="#111933"/>
<path d="M18.7557 27.6923L20.1305 21.3623C20.2391 20.8633 20.4894 20.4203 20.8416 20.1038C21.1938 19.7873 21.6278 19.6154 22.0746 19.6154H43.9959C44.3005 19.6154 44.6012 19.6954 44.8749 19.8492C45.1487 20.0031 45.3884 20.2268 45.5758 20.5034C45.7633 20.7799 45.8935 21.102 45.9566 21.4452C46.0196 21.7884 46.014 22.1436 45.9399 22.4838L45.3086 25.3915M27.0228 40.3846H19.0142C18.6188 40.3858 18.227 40.2972 17.8613 40.1238C17.4957 39.9504 17.1633 39.6956 16.8833 39.374C16.6033 39.0525 16.3812 38.6705 16.2296 38.2499C16.078 37.8293 16 37.3784 16 36.9231V17.3077C16 16.6957 16.2112 16.1087 16.587 15.6759C16.9629 15.2431 17.4726 15 18.0041 15H28.0249C28.5564 15 29.0662 15.2431 29.442 15.6759C29.8179 16.1087 30.029 16.6957 30.029 17.3077V19.6154" stroke="white" stroke-width="2" stroke-linecap="round" stroke-linejoin="round"/>
<path d="M36.0435 40.2831H40.0438M38.0437 26.5385C34.6727 26.5385 32.0312 29.4438 32.0312 33.0138C32.0312 35.7023 33.2798 36.9831 34.2659 37.92C34.8992 38.5223 36.0435 38.8846 36.0435 39.3323V40.3108C36.0315 40.8831 36.0355 41.4761 36.0355 42.0554C36.0355 43.8161 36.7009 45 38.0637 45C39.4265 45 40.0518 43.8161 40.0518 42.0554C40.0518 41.4785 40.0538 40.8623 40.0438 40.3108V39.3323C40.0438 38.6515 41.2383 38.2408 41.9618 37.5715C42.9398 36.6646 44.0561 35.5408 44.0561 33.0138C44.0561 29.4438 41.4147 26.5385 38.0437 26.5385Z" stroke="white" stroke-width="2" stroke-linecap="round" stroke-linejoin="round"/>
</svg>
