<svg width="34" height="34" viewBox="0 0 34 34" fill="none" xmlns="http://www.w3.org/2000/svg">
<path d="M4.7557 14.6923L6.13054 8.36231C6.23911 7.86328 6.48938 7.42033 6.8416 7.10382C7.19382 6.78731 7.62778 6.6154 8.07456 6.61538H29.9959C30.3005 6.61539 30.6012 6.69537 30.8749 6.84924C31.1487 7.0031 31.3884 7.22681 31.5758 7.50335C31.7633 7.7799 31.8935 8.102 31.9566 8.44518C32.0196 8.78836 32.014 9.14358 31.9399 9.48385L31.3086 12.3915M13.0228 27.3846H5.01423C4.61878 27.3858 4.227 27.2972 3.86134 27.1238C3.49569 26.9504 3.16334 26.6956 2.88333 26.374C2.60333 26.0525 2.38118 25.6705 2.2296 25.2499C2.07802 24.8293 2 24.3784 2 23.9231V4.30769C2 3.69565 2.21115 3.10868 2.587 2.67591C2.96285 2.24313 3.47261 2 4.00415 2H14.0249C14.5564 2 15.0662 2.24313 15.442 2.67591C15.8179 3.10868 16.029 3.69565 16.029 4.30769V6.61538" stroke="#111933" stroke-width="3" stroke-linecap="round" stroke-linejoin="round"/>
<path d="M22.0435 27.2832H26.0438M24.0437 13.5386C20.6727 13.5386 18.0312 16.444 18.0312 20.014C18.0312 22.7024 19.2798 23.9832 20.2659 24.9201C20.8992 25.5224 22.0435 25.8847 22.0435 26.3324V27.3109C22.0315 27.8832 22.0355 28.4763 22.0355 29.0555C22.0355 30.8163 22.7009 32.0001 24.0637 32.0001C25.4265 32.0001 26.0518 30.8163 26.0518 29.0555C26.0518 28.4786 26.0538 27.8624 26.0438 27.3109V26.3324C26.0438 25.6517 27.2383 25.2409 27.9618 24.5717C28.9398 23.6647 30.0561 22.5409 30.0561 20.014C30.0561 16.444 27.4147 13.5386 24.0437 13.5386Z" stroke="#111933" stroke-width="3" stroke-linecap="round" stroke-linejoin="round"/>
</svg>
