<svg width="60" height="60" viewBox="0 0 60 60" fill="none" xmlns="http://www.w3.org/2000/svg">
<circle cx="30" cy="30" r="30" fill="#FFCC00"/>
<path d="M17.7557 27.6923L19.1305 21.3623C19.2391 20.8633 19.4894 20.4203 19.8416 20.1038C20.1938 19.7873 20.6278 19.6154 21.0746 19.6154H42.9959C43.3005 19.6154 43.6012 19.6954 43.8749 19.8492C44.1487 20.0031 44.3884 20.2268 44.5758 20.5034C44.7633 20.7799 44.8935 21.102 44.9566 21.4452C45.0196 21.7884 45.014 22.1436 44.9399 22.4838L44.3086 25.3915M26.0228 40.3846H18.0142C17.6188 40.3858 17.227 40.2972 16.8613 40.1238C16.4957 39.9504 16.1633 39.6956 15.8833 39.374C15.6033 39.0525 15.3812 38.6705 15.2296 38.2499C15.078 37.8293 15 37.3784 15 36.9231V17.3077C15 16.6957 15.2112 16.1087 15.587 15.6759C15.9629 15.2431 16.4726 15 17.0041 15H27.0249C27.5564 15 28.0662 15.2431 28.442 15.6759C28.8179 16.1087 29.029 16.6957 29.029 17.3077V19.6154" stroke="white" stroke-width="2" stroke-linecap="round" stroke-linejoin="round"/>
<path d="M35.0435 40.2832H39.0438M37.0437 26.5386C33.6727 26.5386 31.0312 29.444 31.0312 33.014C31.0312 35.7024 32.2798 36.9832 33.2659 37.9201C33.8992 38.5224 35.0435 38.8847 35.0435 39.3324V40.3109C35.0315 40.8832 35.0355 41.4763 35.0355 42.0555C35.0355 43.8163 35.7009 45.0001 37.0637 45.0001C38.4265 45.0001 39.0518 43.8163 39.0518 42.0555C39.0518 41.4786 39.0538 40.8624 39.0438 40.3109V39.3324C39.0438 38.6517 40.2383 38.2409 40.9618 37.5717C41.9398 36.6647 43.0561 35.5409 43.0561 33.014C43.0561 29.444 40.4147 26.5386 37.0437 26.5386Z" stroke="white" stroke-width="2" stroke-linecap="round" stroke-linejoin="round"/>
</svg>
