<svg width="22" height="22" viewBox="0 0 22 22" fill="none" xmlns="http://www.w3.org/2000/svg">
<path d="M19.9204 7.85714H12.8038V1.57143H2.12878V20.4286H19.9204V7.85714ZM19.1839 6.28571L14.5829 2.222V6.28571H19.1839ZM1.23919 0H14.5829L21.6996 6.28571V21.2143C21.6996 21.4227 21.6059 21.6225 21.4391 21.7699C21.2722 21.9172 21.046 22 20.81 22H1.23919C1.00326 22 0.776992 21.9172 0.610162 21.7699C0.443333 21.6225 0.349609 21.4227 0.349609 21.2143V0.785714C0.349609 0.57733 0.443333 0.37748 0.610162 0.23013C0.776992 0.0827803 1.00326 0 1.23919 0ZM5.68711 11H16.3621V12.5714H5.68711V11ZM5.68711 6.28571H10.135V7.85714H5.68711V6.28571ZM5.68711 15.7143H16.3621V17.2857H5.68711V15.7143Z" fill="#00296B"/>
</svg>
