<svg width="18" height="20" viewBox="0 0 18 20" fill="none" xmlns="http://www.w3.org/2000/svg">
<path id="Vector" d="M16.6645 3.07789C16.9223 3.07789 17.1696 3.17994 17.352 3.3616C17.5343 3.54327 17.6367 3.78965 17.6367 4.04656C17.6367 4.30347 17.5343 4.54985 17.352 4.73151C17.1696 4.91317 16.9223 5.01523 16.6645 5.01523H15.6923L15.6894 5.084L14.7823 17.7455C14.7474 18.2343 14.5278 18.6917 14.1679 19.0257C13.808 19.3596 13.3345 19.5453 12.8427 19.5453H4.92977C4.43797 19.5453 3.96442 19.3596 3.60452 19.0257C3.24462 18.6917 3.02511 18.2343 2.99019 17.7455L2.08311 5.08497L2.08116 5.01523H1.10894C0.851092 5.01523 0.603803 4.91317 0.421476 4.73151C0.239149 4.54985 0.136719 4.30347 0.136719 4.04656C0.136719 3.78965 0.239149 3.54327 0.421476 3.3616C0.603803 3.17994 0.851092 3.07789 1.10894 3.07789H16.6645ZM10.8312 0.171875C11.089 0.171875 11.3363 0.273931 11.5186 0.455592C11.701 0.637253 11.8034 0.883638 11.8034 1.14055C11.8034 1.39745 11.701 1.64384 11.5186 1.8255C11.3363 2.00716 11.089 2.10922 10.8312 2.10922H6.94227C6.68442 2.10922 6.43714 2.00716 6.25481 1.8255C6.07248 1.64384 5.97005 1.39745 5.97005 1.14055C5.97005 0.883638 6.07248 0.637253 6.25481 0.455592C6.43714 0.273931 6.68442 0.171875 6.94227 0.171875H10.8312Z" fill="#FF383B"/>
</svg>
